<?xml version="1.0" standalone="no"?>
 <!DOCTYPE svg PUBLIC "-//W3C//DTD SVG 1.1//EN" 
 "http://www.w3.org/Graphics/SVG/1.1/DTD/svg11.dtd"> 
<svg xmlns="http://www.w3.org/2000/svg" version="1.1" 
    width="29.7002cm" height="21.0007cm" viewBox="0 0 116930 82680 ">
<title>SVG Picture created as DSP-ADAU1452-drl_map.svg date 2016/05/25 09:42:06 </title>
  <desc>Picture generated by PCBNEW </desc>
<g style="fill:#000000; fill-opacity:1;stroke:#000000; stroke-opacity:1;
stroke-linecap:round; stroke-linejoin:round; "
 transform="translate(0 0) scale(1 1)">
</g>
<g style="fill:#000000; fill-opacity:0.0; 
stroke:#000000; stroke-width:-0.000393701; stroke-opacity:1; 
stroke-linecap:round; stroke-linejoin:round;">
</g>
<g style="fill:#000000; fill-opacity:0.0; 
stroke:#000000; stroke-width:39.3701; stroke-opacity:1; 
stroke-linecap:round; stroke-linejoin:round;">
<path d="M81496 14173
L81496 53543
" />
<path d="M42125 14173
L81496 14173
" />
<path d="M42125 53543
L42125 14173
" />
<path d="M48031 53543
L42125 53543
" />
<path d="M81496 53543
L48031 53543
" />
</g>
<g style="fill:#000000; fill-opacity:0.0; 
stroke:#000000; stroke-width:78.7402; stroke-opacity:1; 
stroke-linecap:round; stroke-linejoin:round;">
<path d="M42677 27994
L42874 28191
" />
<path d="M42874 27994
L42677 28191
" />
<path d="M42727 40194
L42924 40391
" />
<path d="M42924 40194
L42727 40391
" />
<path d="M42727 41244
L42924 41441
" />
<path d="M42924 41244
L42727 41441
" />
<path d="M42801 14851
L42998 15048
" />
<path d="M42998 14851
L42801 15048
" />
<path d="M42827 31244
L43024 31441
" />
<path d="M43024 31244
L42827 31441
" />
<path d="M42827 32244
L43024 32441
" />
<path d="M43024 32244
L42827 32441
" />
<path d="M42827 49594
L43024 49791
" />
<path d="M43024 49594
L42827 49791
" />
<path d="M42977 21444
L43174 21641
" />
<path d="M43174 21444
L42977 21641
" />
<path d="M42977 23194
L43174 23391
" />
<path d="M43174 23194
L42977 23391
" />
<path d="M42977 24894
L43174 25091
" />
<path d="M43174 24894
L42977 25091
" />
<path d="M42977 26244
L43174 26441
" />
<path d="M43174 26244
L42977 26441
" />
<path d="M42977 41944
L43174 42141
" />
<path d="M43174 41944
L42977 42141
" />
<path d="M43027 33694
L43224 33891
" />
<path d="M43224 33694
L43027 33891
" />
<path d="M44677 27444
L44874 27641
" />
<path d="M44874 27444
L44677 27641
" />
<path d="M44977 49294
L45174 49491
" />
<path d="M45174 49294
L44977 49491
" />
<path d="M45227 31894
L45424 32091
" />
<path d="M45424 31894
L45227 32091
" />
<path d="M45327 36044
L45524 36241
" />
<path d="M45524 36044
L45327 36241
" />
<path d="M45327 37044
L45524 37241
" />
<path d="M45524 37044
L45327 37241
" />
<path d="M45327 44344
L45524 44541
" />
<path d="M45524 44344
L45327 44541
" />
<path d="M45327 45344
L45524 45541
" />
<path d="M45524 45344
L45327 45541
" />
<path d="M45377 40194
L45574 40391
" />
<path d="M45574 40194
L45377 40391
" />
<path d="M45377 41194
L45574 41391
" />
<path d="M45574 41194
L45377 41391
" />
<path d="M45518 15800
L45715 15997
" />
<path d="M45715 15800
L45518 15997
" />
<path d="M45527 18844
L45724 19041
" />
<path d="M45724 18844
L45527 19041
" />
<path d="M45527 21644
L45724 21841
" />
<path d="M45724 21644
L45527 21841
" />
<path d="M45627 52344
L45824 52541
" />
<path d="M45824 52344
L45627 52541
" />
<path d="M46427 18844
L46624 19041
" />
<path d="M46624 18844
L46427 19041
" />
<path d="M46527 51994
L46724 52191
" />
<path d="M46724 51994
L46527 52191
" />
<path d="M47327 33994
L47524 34191
" />
<path d="M47524 33994
L47327 34191
" />
<path d="M47418 14675
L47615 14872
" />
<path d="M47615 14675
L47418 14872
" />
<path d="M47518 34950
L47715 35147
" />
<path d="M47715 34950
L47518 35147
" />
<path d="M47577 32394
L47774 32591
" />
<path d="M47774 32394
L47577 32591
" />
<path d="M47743 47450
L47940 47647
" />
<path d="M47940 47450
L47743 47647
" />
<path d="M47943 34950
L48140 35147
" />
<path d="M48140 34950
L47943 35147
" />
<path d="M48102 27369
L48299 27566
" />
<path d="M48299 27369
L48102 27566
" />
<path d="M48427 44344
L48624 44541
" />
<path d="M48624 44344
L48427 44541
" />
<path d="M48477 45419
L48674 45616
" />
<path d="M48674 45419
L48477 45616
" />
<path d="M48802 37444
L48999 37641
" />
<path d="M48999 37444
L48802 37641
" />
<path d="M48827 49644
L49024 49841
" />
<path d="M49024 49644
L48827 49841
" />
<path d="M48977 40344
L49174 40541
" />
<path d="M49174 40344
L48977 40541
" />
<path d="M49068 14700
L49265 14897
" />
<path d="M49265 14700
L49068 14897
" />
<path d="M49377 17044
L49574 17241
" />
<path d="M49574 17044
L49377 17241
" />
<path d="M49427 34844
L49624 35041
" />
<path d="M49624 34844
L49427 35041
" />
<path d="M49752 38344
L49949 38541
" />
<path d="M49949 38344
L49752 38541
" />
<path d="M49777 17044
L49974 17241
" />
<path d="M49974 17044
L49777 17241
" />
<path d="M49818 47000
L50015 47197
" />
<path d="M50015 47000
L49818 47197
" />
<path d="M49827 49644
L50024 49841
" />
<path d="M50024 49644
L49827 49841
" />
<path d="M49852 37244
L50049 37441
" />
<path d="M50049 37244
L49852 37441
" />
<path d="M50168 14700
L50365 14897
" />
<path d="M50365 14700
L50168 14897
" />
<path d="M50177 17044
L50374 17241
" />
<path d="M50374 17044
L50177 17241
" />
<path d="M50277 28694
L50474 28891
" />
<path d="M50474 28694
L50277 28891
" />
<path d="M50328 15462
L50525 15659
" />
<path d="M50525 15462
L50328 15659
" />
<path d="M50477 24894
L50674 25091
" />
<path d="M50674 24894
L50477 25091
" />
<path d="M50477 25844
L50674 26041
" />
<path d="M50674 25844
L50477 26041
" />
<path d="M50477 27094
L50674 27291
" />
<path d="M50674 27094
L50477 27291
" />
<path d="M50477 41944
L50674 42141
" />
<path d="M50674 41944
L50477 42141
" />
<path d="M50527 17044
L50724 17241
" />
<path d="M50724 17044
L50527 17241
" />
<path d="M50677 40944
L50874 41141
" />
<path d="M50874 40944
L50677 41141
" />
<path d="M50877 17044
L51074 17241
" />
<path d="M51074 17044
L50877 17241
" />
<path d="M50893 14700
L51090 14897
" />
<path d="M51090 14700
L50893 14897
" />
<path d="M51277 31144
L51474 31341
" />
<path d="M51474 31144
L51277 31341
" />
<path d="M51277 34944
L51474 35141
" />
<path d="M51474 34944
L51277 35141
" />
<path d="M51318 47900
L51515 48097
" />
<path d="M51515 47900
L51318 48097
" />
<path d="M51318 48800
L51515 48997
" />
<path d="M51515 48800
L51318 48997
" />
<path d="M51627 44944
L51824 45141
" />
<path d="M51824 44944
L51627 45141
" />
<path d="M51727 18244
L51924 18441
" />
<path d="M51924 18244
L51727 18441
" />
<path d="M51777 32394
L51974 32591
" />
<path d="M51974 32394
L51777 32591
" />
<path d="M51827 43944
L52024 44141
" />
<path d="M52024 43944
L51827 44141
" />
<path d="M51877 29494
L52074 29691
" />
<path d="M52074 29494
L51877 29691
" />
<path d="M51927 20344
L52124 20541
" />
<path d="M52124 20344
L51927 20541
" />
<path d="M51927 42994
L52124 43191
" />
<path d="M52124 42994
L51927 43191
" />
<path d="M52027 23044
L52224 23241
" />
<path d="M52224 23044
L52027 23241
" />
<path d="M52077 26544
L52274 26741
" />
<path d="M52274 26544
L52077 26741
" />
<path d="M52127 44944
L52324 45141
" />
<path d="M52324 44944
L52127 45141
" />
<path d="M52227 36694
L52424 36891
" />
<path d="M52424 36694
L52227 36891
" />
<path d="M52302 37494
L52499 37691
" />
<path d="M52499 37494
L52302 37691
" />
<path d="M52327 21394
L52524 21591
" />
<path d="M52524 21394
L52327 21591
" />
<path d="M52627 40044
L52824 40241
" />
<path d="M52824 40044
L52627 40241
" />
<path d="M52827 21394
L53024 21591
" />
<path d="M53024 21394
L52827 21591
" />
<path d="M53177 32394
L53374 32591
" />
<path d="M53374 32394
L53177 32591
" />
<path d="M53327 37494
L53524 37691
" />
<path d="M53524 37494
L53327 37691
" />
<path d="M53427 23044
L53624 23241
" />
<path d="M53624 23044
L53427 23241
" />
<path d="M53427 36694
L53624 36891
" />
<path d="M53624 36694
L53427 36891
" />
<path d="M53827 23444
L54024 23641
" />
<path d="M54024 23444
L53827 23641
" />
<path d="M53827 52344
L54024 52541
" />
<path d="M54024 52344
L53827 52541
" />
<path d="M53977 34794
L54174 34991
" />
<path d="M54174 34794
L53977 34991
" />
<path d="M54027 44944
L54224 45141
" />
<path d="M54224 44944
L54027 45141
" />
<path d="M54227 30494
L54424 30691
" />
<path d="M54424 30494
L54227 30691
" />
<path d="M54227 37611
L54424 37808
" />
<path d="M54424 37611
L54227 37808
" />
<path d="M54327 17444
L54524 17641
" />
<path d="M54524 17444
L54327 17641
" />
<path d="M54427 20494
L54624 20691
" />
<path d="M54624 20494
L54427 20691
" />
<path d="M54777 51994
L54974 52191
" />
<path d="M54974 51994
L54777 52191
" />
<path d="M55227 18994
L55424 19191
" />
<path d="M55424 18994
L55227 19191
" />
<path d="M55277 17444
L55474 17641
" />
<path d="M55474 17444
L55277 17641
" />
<path d="M55477 41894
L55674 42091
" />
<path d="M55674 41894
L55477 42091
" />
<path d="M55477 42444
L55674 42641
" />
<path d="M55674 42444
L55477 42641
" />
<path d="M56327 16944
L56524 17141
" />
<path d="M56524 16944
L56327 17141
" />
<path d="M56327 41444
L56524 41641
" />
<path d="M56524 41444
L56327 41641
" />
<path d="M56427 44194
L56624 44391
" />
<path d="M56624 44194
L56427 44391
" />
<path d="M56527 45544
L56724 45741
" />
<path d="M56724 45544
L56527 45741
" />
<path d="M56577 35894
L56774 36091
" />
<path d="M56774 35894
L56577 36091
" />
<path d="M56702 32369
L56899 32566
" />
<path d="M56899 32369
L56702 32566
" />
<path d="M56877 38019
L57074 38216
" />
<path d="M57074 38019
L56877 38216
" />
<path d="M57027 22644
L57224 22841
" />
<path d="M57224 22644
L57027 22841
" />
<path d="M57027 23144
L57224 23341
" />
<path d="M57224 23144
L57027 23341
" />
<path d="M57027 23744
L57224 23941
" />
<path d="M57224 23744
L57027 23941
" />
<path d="M57077 49644
L57274 49841
" />
<path d="M57274 49644
L57077 49841
" />
<path d="M57078 46555
L57275 46752
" />
<path d="M57275 46555
L57078 46752
" />
<path d="M57078 47445
L57275 47642
" />
<path d="M57275 47445
L57078 47642
" />
<path d="M57177 27744
L57374 27941
" />
<path d="M57374 27744
L57177 27941
" />
<path d="M57327 21494
L57524 21691
" />
<path d="M57524 21494
L57327 21691
" />
<path d="M57379 45370
L57576 45567
" />
<path d="M57576 45370
L57379 45567
" />
<path d="M57602 40869
L57799 41066
" />
<path d="M57799 40869
L57602 41066
" />
<path d="M57602 41469
L57799 41666
" />
<path d="M57799 41469
L57602 41666
" />
<path d="M57827 36694
L58024 36891
" />
<path d="M58024 36694
L57827 36891
" />
<path d="M57827 44175
L58024 44372
" />
<path d="M58024 44175
L57827 44372
" />
<path d="M58077 49644
L58274 49841
" />
<path d="M58274 49644
L58077 49841
" />
<path d="M58078 47445
L58275 47642
" />
<path d="M58275 47445
L58078 47642
" />
<path d="M58227 28144
L58424 28341
" />
<path d="M58424 28144
L58227 28341
" />
<path d="M58377 30594
L58574 30791
" />
<path d="M58574 30594
L58377 30791
" />
<path d="M58627 41234
L58824 41431
" />
<path d="M58824 41234
L58627 41431
" />
<path d="M59002 26194
L59199 26391
" />
<path d="M59199 26194
L59002 26391
" />
<path d="M59002 37769
L59199 37966
" />
<path d="M59199 37769
L59002 37966
" />
<path d="M59427 28744
L59624 28941
" />
<path d="M59624 28744
L59427 28941
" />
<path d="M59427 38044
L59624 38241
" />
<path d="M59624 38044
L59427 38241
" />
<path d="M59627 27044
L59824 27241
" />
<path d="M59824 27044
L59627 27241
" />
<path d="M59652 15419
L59849 15616
" />
<path d="M59849 15419
L59652 15616
" />
<path d="M59698 41245
L59895 41442
" />
<path d="M59895 41245
L59698 41442
" />
<path d="M59727 43194
L59924 43391
" />
<path d="M59924 43194
L59727 43391
" />
<path d="M59877 45469
L60074 45666
" />
<path d="M60074 45469
L59877 45666
" />
<path d="M59927 41794
L60124 41991
" />
<path d="M60124 41794
L59927 41991
" />
<path d="M60277 15019
L60474 15216
" />
<path d="M60474 15019
L60277 15216
" />
<path d="M60277 15419
L60474 15616
" />
<path d="M60474 15419
L60277 15616
" />
<path d="M60277 29994
L60474 30191
" />
<path d="M60474 29994
L60277 30191
" />
<path d="M60427 26144
L60624 26341
" />
<path d="M60624 26144
L60427 26341
" />
<path d="M60427 29044
L60624 29241
" />
<path d="M60624 29044
L60427 29241
" />
<path d="M60527 48244
L60724 48441
" />
<path d="M60724 48244
L60527 48441
" />
<path d="M60577 32044
L60774 32241
" />
<path d="M60774 32044
L60577 32241
" />
<path d="M60802 40069
L60999 40266
" />
<path d="M60999 40069
L60802 40266
" />
<path d="M60827 23494
L61024 23691
" />
<path d="M61024 23494
L60827 23691
" />
<path d="M60827 24144
L61024 24341
" />
<path d="M61024 24144
L60827 24341
" />
<path d="M60827 24744
L61024 24941
" />
<path d="M61024 24744
L60827 24941
" />
<path d="M60827 25344
L61024 25541
" />
<path d="M61024 25344
L60827 25541
" />
<path d="M60927 14844
L61124 15041
" />
<path d="M61124 14844
L60927 15041
" />
<path d="M61127 28844
L61324 29041
" />
<path d="M61324 28844
L61127 29041
" />
<path d="M61218 39493
L61415 39690
" />
<path d="M61415 39493
L61218 39690
" />
<path d="M61227 52344
L61424 52541
" />
<path d="M61424 52344
L61227 52541
" />
<path d="M61252 36119
L61449 36316
" />
<path d="M61449 36119
L61252 36316
" />
<path d="M61252 37044
L61449 37241
" />
<path d="M61449 37044
L61252 37241
" />
<path d="M61277 34994
L61474 35191
" />
<path d="M61474 34994
L61277 35191
" />
<path d="M61302 45494
L61499 45691
" />
<path d="M61499 45494
L61302 45691
" />
<path d="M61627 38244
L61824 38441
" />
<path d="M61824 38244
L61627 38441
" />
<path d="M61652 46619
L61849 46816
" />
<path d="M61849 46619
L61652 46816
" />
<path d="M61698 44235
L61895 44432
" />
<path d="M61895 44235
L61698 44432
" />
<path d="M61717 43334
L61914 43531
" />
<path d="M61914 43334
L61717 43531
" />
<path d="M61727 39094
L61924 39291
" />
<path d="M61924 39094
L61727 39291
" />
<path d="M62052 45444
L62249 45641
" />
<path d="M62249 45444
L62052 45641
" />
<path d="M62077 52344
L62274 52541
" />
<path d="M62274 52344
L62077 52541
" />
<path d="M62177 39544
L62374 39741
" />
<path d="M62374 39544
L62177 39741
" />
<path d="M62202 34144
L62399 34341
" />
<path d="M62399 34144
L62202 34341
" />
<path d="M62427 42644
L62624 42841
" />
<path d="M62624 42644
L62427 42841
" />
<path d="M63027 40494
L63224 40691
" />
<path d="M63224 40494
L63027 40691
" />
<path d="M63027 51994
L63224 52191
" />
<path d="M63224 51994
L63027 52191
" />
<path d="M63118 38325
L63315 38522
" />
<path d="M63315 38325
L63118 38522
" />
<path d="M63127 14769
L63324 14966
" />
<path d="M63324 14769
L63127 14966
" />
<path d="M63252 29969
L63449 30166
" />
<path d="M63449 29969
L63252 30166
" />
<path d="M63252 31219
L63449 31416
" />
<path d="M63449 31219
L63252 31416
" />
<path d="M63252 32494
L63449 32691
" />
<path d="M63449 32494
L63252 32691
" />
<path d="M63302 22644
L63499 22841
" />
<path d="M63499 22644
L63302 22841
" />
<path d="M63302 36744
L63499 36941
" />
<path d="M63499 36744
L63302 36941
" />
<path d="M63375 40900
L63572 41097
" />
<path d="M63572 40900
L63375 41097
" />
<path d="M63377 23669
L63574 23866
" />
<path d="M63574 23669
L63377 23866
" />
<path d="M63791 43330
L63988 43527
" />
<path d="M63988 43330
L63791 43527
" />
<path d="M63802 33869
L63999 34066
" />
<path d="M63999 33869
L63802 34066
" />
<path d="M63827 26394
L64024 26591
" />
<path d="M64024 26394
L63827 26591
" />
<path d="M63927 24244
L64124 24441
" />
<path d="M64124 24244
L63927 24441
" />
<path d="M63927 25244
L64124 25441
" />
<path d="M64124 25244
L63927 25441
" />
<path d="M64077 41244
L64274 41441
" />
<path d="M64274 41244
L64077 41441
" />
<path d="M64152 14644
L64349 14841
" />
<path d="M64349 14644
L64152 14841
" />
<path d="M64227 17994
L64424 18191
" />
<path d="M64424 17994
L64227 18191
" />
<path d="M64227 18619
L64424 18816
" />
<path d="M64424 18619
L64227 18816
" />
<path d="M64277 47444
L64474 47641
" />
<path d="M64474 47444
L64277 47641
" />
<path d="M64320 39609
L64517 39806
" />
<path d="M64517 39609
L64320 39806
" />
<path d="M64327 29944
L64524 30141
" />
<path d="M64524 29944
L64327 30141
" />
<path d="M64327 32519
L64524 32716
" />
<path d="M64524 32519
L64327 32716
" />
<path d="M64568 36785
L64765 36982
" />
<path d="M64765 36785
L64568 36982
" />
<path d="M64702 21869
L64899 22066
" />
<path d="M64899 21869
L64702 22066
" />
<path d="M64727 28144
L64924 28341
" />
<path d="M64924 28144
L64727 28341
" />
<path d="M64764 41220
L64961 41417
" />
<path d="M64961 41220
L64764 41417
" />
<path d="M65002 15019
L65199 15216
" />
<path d="M65199 15019
L65002 15216
" />
<path d="M65002 15444
L65199 15641
" />
<path d="M65199 15444
L65002 15641
" />
<path d="M65227 44244
L65424 44441
" />
<path d="M65424 44244
L65227 44441
" />
<path d="M65302 24069
L65499 24266
" />
<path d="M65499 24069
L65302 24266
" />
<path d="M65327 29644
L65524 29841
" />
<path d="M65524 29644
L65327 29841
" />
<path d="M65328 47445
L65525 47642
" />
<path d="M65525 47445
L65328 47642
" />
<path d="M65348 49685
L65545 49882
" />
<path d="M65545 49685
L65348 49882
" />
<path d="M65363 46170
L65560 46367
" />
<path d="M65560 46170
L65363 46367
" />
<path d="M65702 38319
L65899 38516
" />
<path d="M65899 38319
L65702 38516
" />
<path d="M65927 24444
L66124 24641
" />
<path d="M66124 24444
L65927 24641
" />
<path d="M65927 40544
L66124 40741
" />
<path d="M66124 40544
L65927 40741
" />
<path d="M65927 41244
L66124 41441
" />
<path d="M66124 41244
L65927 41441
" />
<path d="M66027 30244
L66224 30441
" />
<path d="M66224 30244
L66027 30441
" />
<path d="M66248 46465
L66445 46662
" />
<path d="M66445 46465
L66248 46662
" />
<path d="M66318 49685
L66515 49882
" />
<path d="M66515 49685
L66318 49882
" />
<path d="M66426 27201
L66623 27398
" />
<path d="M66623 27201
L66426 27398
" />
<path d="M66977 28128
L67174 28325
" />
<path d="M67174 28128
L66977 28325
" />
<path d="M67127 40544
L67324 40741
" />
<path d="M67324 40544
L67127 40741
" />
<path d="M67127 41144
L67324 41341
" />
<path d="M67324 41144
L67127 41341
" />
<path d="M67277 38794
L67474 38991
" />
<path d="M67474 38794
L67277 38991
" />
<path d="M67278 49675
L67475 49872
" />
<path d="M67475 49675
L67278 49872
" />
<path d="M67527 25819
L67724 26016
" />
<path d="M67724 25819
L67527 26016
" />
<path d="M67527 29964
L67724 30161
" />
<path d="M67724 29964
L67527 30161
" />
<path d="M67652 31144
L67849 31341
" />
<path d="M67849 31144
L67652 31341
" />
<path d="M67688 16295
L67885 16492
" />
<path d="M67885 16295
L67688 16492
" />
<path d="M68077 28144
L68274 28341
" />
<path d="M68274 28144
L68077 28341
" />
<path d="M68427 44244
L68624 44441
" />
<path d="M68624 44244
L68427 44441
" />
<path d="M68427 45144
L68624 45341
" />
<path d="M68624 45144
L68427 45341
" />
<path d="M68527 35594
L68724 35791
" />
<path d="M68724 35594
L68527 35791
" />
<path d="M68588 47365
L68785 47562
" />
<path d="M68785 47365
L68588 47562
" />
<path d="M68602 39794
L68799 39991
" />
<path d="M68799 39794
L68602 39991
" />
<path d="M68602 40694
L68799 40891
" />
<path d="M68799 40694
L68602 40891
" />
<path d="M68602 41294
L68799 41491
" />
<path d="M68799 41294
L68602 41491
" />
<path d="M68627 25719
L68824 25916
" />
<path d="M68824 25719
L68627 25916
" />
<path d="M68752 32444
L68949 32641
" />
<path d="M68949 32444
L68752 32641
" />
<path d="M68752 33069
L68949 33266
" />
<path d="M68949 33069
L68752 33266
" />
<path d="M69098 48695
L69295 48892
" />
<path d="M69295 48695
L69098 48892
" />
<path d="M69177 28121
L69374 28318
" />
<path d="M69374 28121
L69177 28318
" />
<path d="M69177 37519
L69374 37716
" />
<path d="M69374 37519
L69177 37716
" />
<path d="M69527 52344
L69724 52541
" />
<path d="M69724 52344
L69527 52541
" />
<path d="M69702 18969
L69899 19166
" />
<path d="M69899 18969
L69702 19166
" />
<path d="M69727 27194
L69924 27391
" />
<path d="M69924 27194
L69727 27391
" />
<path d="M69738 25720
L69935 25917
" />
<path d="M69935 25720
L69738 25917
" />
<path d="M70127 19636
L70324 19833
" />
<path d="M70324 19636
L70127 19833
" />
<path d="M70152 35994
L70349 36191
" />
<path d="M70349 35994
L70152 36191
" />
<path d="M70277 28121
L70474 28318
" />
<path d="M70474 28121
L70277 28318
" />
<path d="M70377 52344
L70574 52541
" />
<path d="M70574 52344
L70377 52541
" />
<path d="M70402 34819
L70599 35016
" />
<path d="M70599 34819
L70402 35016
" />
<path d="M70527 39219
L70724 39416
" />
<path d="M70724 39219
L70527 39416
" />
<path d="M71027 25644
L71224 25841
" />
<path d="M71224 25644
L71027 25841
" />
<path d="M71177 42544
L71374 42741
" />
<path d="M71374 42544
L71177 42741
" />
<path d="M71277 51944
L71474 52141
" />
<path d="M71474 51944
L71277 52141
" />
<path d="M71327 19644
L71524 19841
" />
<path d="M71524 19644
L71327 19841
" />
<path d="M71377 28113
L71574 28310
" />
<path d="M71574 28113
L71377 28310
" />
<path d="M71627 40894
L71824 41091
" />
<path d="M71824 40894
L71627 41091
" />
<path d="M71927 29964
L72124 30161
" />
<path d="M72124 29964
L71927 30161
" />
<path d="M71927 30694
L72124 30891
" />
<path d="M72124 30694
L71927 30891
" />
<path d="M71977 25669
L72174 25866
" />
<path d="M72174 25669
L71977 25866
" />
<path d="M72127 46395
L72324 46592
" />
<path d="M72324 46395
L72127 46592
" />
<path d="M72202 35519
L72399 35716
" />
<path d="M72399 35519
L72202 35716
" />
<path d="M72308 47315
L72505 47512
" />
<path d="M72505 47315
L72308 47512
" />
<path d="M72477 28121
L72674 28318
" />
<path d="M72674 28121
L72477 28318
" />
<path d="M72477 36544
L72674 36741
" />
<path d="M72674 36544
L72477 36741
" />
<path d="M72926 30951
L73123 31148
" />
<path d="M73123 30951
L72926 31148
" />
<path d="M72927 37544
L73124 37741
" />
<path d="M73124 37544
L72927 37741
" />
<path d="M72977 41194
L73174 41391
" />
<path d="M73174 41194
L72977 41391
" />
<path d="M73127 45144
L73324 45341
" />
<path d="M73324 45144
L73127 45341
" />
<path d="M73202 34044
L73399 34241
" />
<path d="M73399 34044
L73202 34241
" />
<path d="M73598 49705
L73795 49902
" />
<path d="M73795 49705
L73598 49902
" />
<path d="M73627 45144
L73824 45341
" />
<path d="M73824 45144
L73627 45341
" />
<path d="M73702 32919
L73899 33116
" />
<path d="M73899 32919
L73702 33116
" />
<path d="M73868 38625
L74065 38822
" />
<path d="M74065 38625
L73868 38822
" />
<path d="M73952 22069
L74149 22266
" />
<path d="M74149 22069
L73952 22266
" />
<path d="M74102 24544
L74299 24741
" />
<path d="M74299 24544
L74102 24741
" />
<path d="M74102 26369
L74299 26566
" />
<path d="M74299 26369
L74102 26566
" />
<path d="M74558 46515
L74755 46712
" />
<path d="M74755 46515
L74558 46712
" />
<path d="M74578 47445
L74775 47642
" />
<path d="M74775 47445
L74578 47642
" />
<path d="M74588 49705
L74785 49902
" />
<path d="M74785 49705
L74588 49902
" />
<path d="M74638 35020
L74835 35217
" />
<path d="M74835 35020
L74638 35217
" />
<path d="M74638 36045
L74835 36242
" />
<path d="M74835 36045
L74638 36242
" />
<path d="M74688 37945
L74885 38142
" />
<path d="M74885 37945
L74688 38142
" />
<path d="M74788 44495
L74985 44692
" />
<path d="M74985 44495
L74788 44692
" />
<path d="M74926 32501
L75123 32698
" />
<path d="M75123 32501
L74926 32698
" />
<path d="M75327 42044
L75524 42241
" />
<path d="M75524 42044
L75327 42241
" />
<path d="M75327 42444
L75524 42641
" />
<path d="M75524 42444
L75327 42641
" />
<path d="M75528 49705
L75725 49902
" />
<path d="M75725 49705
L75528 49902
" />
<path d="M75627 43144
L75824 43341
" />
<path d="M75824 43144
L75627 43341
" />
<path d="M75628 26935
L75825 27132
" />
<path d="M75825 26935
L75628 27132
" />
<path d="M75638 25970
L75835 26167
" />
<path d="M75835 25970
L75638 26167
" />
<path d="M75638 26420
L75835 26617
" />
<path d="M75835 26420
L75638 26617
" />
<path d="M75728 44345
L75925 44542
" />
<path d="M75925 44345
L75728 44542
" />
<path d="M76127 33744
L76324 33941
" />
<path d="M76324 33744
L76127 33941
" />
<path d="M76176 47276
L76373 47473
" />
<path d="M76373 47276
L76176 47473
" />
<path d="M76674 24064
L76871 24261
" />
<path d="M76871 24064
L76674 24261
" />
<path d="M76963 48020
L77160 48217
" />
<path d="M77160 48020
L76963 48217
" />
<path d="M77027 34744
L77224 34941
" />
<path d="M77224 34744
L77027 34941
" />
<path d="M77127 40944
L77324 41141
" />
<path d="M77324 40944
L77127 41141
" />
<path d="M77127 41544
L77324 41741
" />
<path d="M77324 41544
L77127 41741
" />
<path d="M77727 52194
L77924 52391
" />
<path d="M77924 52194
L77727 52391
" />
<path d="M77927 48594
L78124 48791
" />
<path d="M78124 48594
L77927 48791
" />
<path d="M77948 26995
L78145 27192
" />
<path d="M78145 26995
L77948 27192
" />
<path d="M77963 36045
L78160 36242
" />
<path d="M78160 36045
L77963 36242
" />
<path d="M77963 37070
L78160 37267
" />
<path d="M78160 37070
L77963 37267
" />
<path d="M78063 43370
L78260 43567
" />
<path d="M78260 43370
L78063 43567
" />
<path d="M78063 44345
L78260 44542
" />
<path d="M78260 44345
L78063 44542
" />
<path d="M78063 45370
L78260 45567
" />
<path d="M78260 45370
L78063 45567
" />
<path d="M78388 27595
L78585 27792
" />
<path d="M78585 27595
L78388 27792
" />
<path d="M78408 25595
L78605 25792
" />
<path d="M78605 25595
L78408 25792
" />
<path d="M78427 50144
L78624 50341
" />
<path d="M78624 50144
L78427 50341
" />
<path d="M78558 23395
L78755 23592
" />
<path d="M78755 23395
L78558 23592
" />
<path d="M80277 39444
L80474 39641
" />
<path d="M80474 39444
L80277 39641
" />
<path d="M80277 47694
L80474 47891
" />
<path d="M80474 47694
L80277 47891
" />
<path d="M80627 32844
L80824 33041
" />
<path d="M80824 32844
L80627 33041
" />
<path d="M80677 48544
L80874 48741
" />
<path d="M80874 48544
L80677 48741
" />
<path d="M80677 49994
L80874 50191
" />
<path d="M80874 49994
L80677 50191
" />
<path d="M80708 23270
L80905 23467
" />
<path d="M80905 23270
L80708 23467
" />
<path d="M80727 25644
L80924 25841
" />
<path d="M80924 25644
L80727 25841
" />
<path d="M80727 29144
L80924 29341
" />
<path d="M80924 29144
L80727 29341
" />
<path d="M80727 40294
L80924 40491
" />
<path d="M80924 40294
L80727 40491
" />
<path d="M80727 41144
L80924 41341
" />
<path d="M80924 41144
L80727 41341
" />
<circle cx="42826" cy="18543.3" r="157.48" /> 
<circle cx="42826" cy="20143.3" r="157.48" /> 
<circle cx="44252" cy="18189" r="157.48" /> 
<circle cx="44726" cy="19943.3" r="157.48" /> 
<circle cx="45717.3" cy="14899.4" r="157.48" /> 
<circle cx="47007.9" cy="19960.6" r="157.48" /> 
<circle cx="49762.4" cy="18668.7" r="157.48" /> 
<circle cx="50426" cy="21743.3" r="157.48" /> 
<circle cx="51026" cy="17893.3" r="157.48" /> 
<circle cx="51410.2" cy="21743.3" r="157.48" /> 
<circle cx="52627.4" cy="16143.7" r="157.48" /> 
<circle cx="52627.4" cy="17128" r="157.48" /> 
<circle cx="52817.3" cy="50099.4" r="157.48" /> 
<circle cx="53726" cy="18343.3" r="157.48" /> 
<circle cx="53826" cy="21543.3" r="157.48" /> 
<circle cx="54850" cy="15000" r="157.48" /> 
<circle cx="55676" cy="40093.3" r="157.48" /> 
<circle cx="56500" cy="42300" r="157.48" /> 
<circle cx="58015.4" cy="33443.3" r="157.48" /> 
<circle cx="58312.4" cy="17118.7" r="157.48" /> 
<circle cx="59926" cy="18759.1" r="157.48" /> 
<circle cx="59926" cy="19743.3" r="157.48" /> 
<circle cx="59936.6" cy="33443.3" r="157.48" /> 
<circle cx="60626" cy="35243.3" r="157.48" /> 
<circle cx="60652" cy="45543.3" r="157.48" /> 
<circle cx="61141.7" cy="30843.3" r="157.48" /> 
<circle cx="62126" cy="15451.2" r="157.48" /> 
<circle cx="62126" cy="16435.4" r="157.48" /> 
<circle cx="62126" cy="28243.3" r="157.48" /> 
<circle cx="62126" cy="28793.3" r="157.48" /> 
<circle cx="62126" cy="30843.3" r="157.48" /> 
<circle cx="62157.4" cy="35143.7" r="157.48" /> 
<circle cx="63433.9" cy="29343.3" r="157.48" /> 
<circle cx="63476" cy="46143.3" r="157.48" /> 
<circle cx="64418.1" cy="29343.3" r="157.48" /> 
<circle cx="64833.9" cy="19843.3" r="157.48" /> 
<circle cx="65135.3" cy="34643.3" r="157.48" /> 
<circle cx="65726" cy="26843.3" r="157.48" /> 
<circle cx="65818.1" cy="19843.3" r="157.48" /> 
<circle cx="66119.5" cy="34643.3" r="157.48" /> 
<circle cx="66926" cy="33743.3" r="157.48" /> 
<circle cx="67226" cy="39843.3" r="157.48" /> 
<circle cx="67226" cy="42017.3" r="157.48" /> 
<circle cx="67900" cy="14950" r="157.48" /> 
<circle cx="67912.4" cy="20618.7" r="157.48" /> 
<circle cx="68687.4" cy="31243.7" r="157.48" /> 
<circle cx="69837.4" cy="31243.7" r="157.48" /> 
<circle cx="70526" cy="36943.3" r="157.48" /> 
<circle cx="70937.4" cy="31243.7" r="157.48" /> 
<circle cx="72450" cy="14950" r="157.48" /> 
<circle cx="73126" cy="19651.2" r="157.48" /> 
<circle cx="73126" cy="20635.4" r="157.48" /> 
<circle cx="73726" cy="32343.3" r="157.48" /> 
<circle cx="75526" cy="39243.3" r="157.48" /> 
<circle cx="75526" cy="40068.3" r="157.48" /> 
<circle cx="75726" cy="20743.3" r="157.48" /> 
<circle cx="75907.4" cy="23373.7" r="157.48" /> 
<circle cx="76526" cy="20743.3" r="157.48" /> 
<circle cx="76600" cy="14950" r="157.48" /> 
<circle cx="77587.4" cy="31733.7" r="157.48" /> 
<circle cx="78547.4" cy="31173.7" r="157.48" /> 
<circle cx="78887.4" cy="25053.7" r="157.48" /> 
<circle cx="79367.4" cy="24273.7" r="157.48" /> 
<circle cx="80692.4" cy="17538.7" r="157.48" /> 
<circle cx="80697.4" cy="19988.7" r="157.48" /> 
<path d="M43625 34446
L43625 34840
" />
<path d="M43429 34643
L43822 34643
" />
<path d="M43625 35446
L43625 35840
" />
<path d="M43429 35643
L43822 35643
" />
<path d="M43625 36446
L43625 36840
" />
<path d="M43429 36643
L43822 36643
" />
<path d="M43625 37446
L43625 37840
" />
<path d="M43429 37643
L43822 37643
" />
<path d="M43625 38446
L43625 38840
" />
<path d="M43429 38643
L43822 38643
" />
<path d="M43625 42746
L43625 43140
" />
<path d="M43429 42943
L43822 42943
" />
<path d="M43625 43746
L43625 44140
" />
<path d="M43429 43943
L43822 43943
" />
<path d="M43625 44746
L43625 45140
" />
<path d="M43429 44943
L43822 44943
" />
<path d="M43625 45746
L43625 46140
" />
<path d="M43429 45943
L43822 45943
" />
<path d="M43625 46746
L43625 47140
" />
<path d="M43429 46943
L43822 46943
" />
<path d="M44375 21464
L44375 21858
" />
<path d="M44179 21661
L44572 21661
" />
<path d="M44533 21964
L44533 21358
" />
<path d="M44218 21964
L44218 21358
" />
<path d="M44533.5 21358.7 A157.48 157.48 0.0 0 0 44218.5 21358.7 " />
<path d="M44218.5 21965 A157.48 157.48 0.0 0 0 44533.5 21965 " />
<path d="M44375 22714
L44375 23108
" />
<path d="M44179 22911
L44572 22911
" />
<path d="M44625 34446
L44625 34840
" />
<path d="M44429 34643
L44822 34643
" />
<path d="M44625 35446
L44625 35840
" />
<path d="M44429 35643
L44822 35643
" />
<path d="M44625 36446
L44625 36840
" />
<path d="M44429 36643
L44822 36643
" />
<path d="M44625 37446
L44625 37840
" />
<path d="M44429 37643
L44822 37643
" />
<path d="M44625 38446
L44625 38840
" />
<path d="M44429 38643
L44822 38643
" />
<path d="M44625 42746
L44625 43140
" />
<path d="M44429 42943
L44822 42943
" />
<path d="M44625 43746
L44625 44140
" />
<path d="M44429 43943
L44822 43943
" />
<path d="M44625 44746
L44625 45140
" />
<path d="M44429 44943
L44822 44943
" />
<path d="M44625 45746
L44625 46140
" />
<path d="M44429 45943
L44822 45943
" />
<path d="M44625 46746
L44625 47140
" />
<path d="M44429 46943
L44822 46943
" />
<path d="M44725 25546
L44725 25940
" />
<path d="M44529 25743
L44922 25743
" />
<path d="M44725 26546
L44725 26940
" />
<path d="M44529 26743
L44922 26743
" />
<path d="M44725 29246
L44725 29640
" />
<path d="M44529 29443
L44922 29443
" />
<path d="M44725 30246
L44725 30640
" />
<path d="M44529 30443
L44922 30443
" />
<path d="M45725 25546
L45725 25940
" />
<path d="M45529 25743
L45922 25743
" />
<path d="M45725 26546
L45725 26940
" />
<path d="M45529 26743
L45922 26743
" />
<path d="M45725 29246
L45725 29640
" />
<path d="M45529 29443
L45922 29443
" />
<path d="M45725 30246
L45725 30640
" />
<path d="M45529 30443
L45922 30443
" />
<path d="M46375 35446
L46375 35840
" />
<path d="M46179 35643
L46572 35643
" />
<path d="M46375 36446
L46375 36840
" />
<path d="M46179 36643
L46572 36643
" />
<path d="M46375 37446
L46375 37840
" />
<path d="M46179 37643
L46572 37643
" />
<path d="M46375 43746
L46375 44140
" />
<path d="M46179 43943
L46572 43943
" />
<path d="M46375 44746
L46375 45140
" />
<path d="M46179 44943
L46572 44943
" />
<path d="M46375 45746
L46375 46140
" />
<path d="M46179 45943
L46572 45943
" />
<path d="M46725 25546
L46725 25940
" />
<path d="M46529 25743
L46922 25743
" />
<path d="M46725 26546
L46725 26940
" />
<path d="M46529 26743
L46922 26743
" />
<path d="M46725 29246
L46725 29640
" />
<path d="M46529 29443
L46922 29443
" />
<path d="M46725 30246
L46725 30640
" />
<path d="M46529 30443
L46922 30443
" />
<path d="M46725 47646
L46725 48040
" />
<path d="M46529 47843
L46922 47843
" />
<path d="M47025 40646
L47025 41040
" />
<path d="M46829 40843
L47222 40843
" />
<path d="M47425 50346
L47425 50740
" />
<path d="M47229 50543
L47622 50543
" />
<path d="M47425 51346
L47425 51740
" />
<path d="M47229 51543
L47622 51543
" />
<path d="M47725 25546
L47725 25940
" />
<path d="M47529 25743
L47922 25743
" />
<path d="M47725 26546
L47725 26940
" />
<path d="M47529 26743
L47922 26743
" />
<path d="M47725 29246
L47725 29640
" />
<path d="M47529 29443
L47922 29443
" />
<path d="M47725 30246
L47725 30640
" />
<path d="M47529 30443
L47922 30443
" />
<path d="M48425 48596
L48425 48990
" />
<path d="M48229 48793
L48622 48793
" />
<path d="M48425 50346
L48425 50740
" />
<path d="M48229 50543
L48622 50543
" />
<path d="M48425 51346
L48425 51740
" />
<path d="M48229 51543
L48622 51543
" />
<path d="M48725 25546
L48725 25940
" />
<path d="M48529 25743
L48922 25743
" />
<path d="M48725 26546
L48725 26940
" />
<path d="M48529 26743
L48922 26743
" />
<path d="M48725 29246
L48725 29640
" />
<path d="M48529 29443
L48922 29443
" />
<path d="M48725 30246
L48725 30640
" />
<path d="M48529 30443
L48922 30443
" />
<path d="M49125 33046
L49125 33440
" />
<path d="M48929 33243
L49322 33243
" />
<path d="M49125 34046
L49125 34440
" />
<path d="M48929 34243
L49322 34243
" />
<path d="M49425 48596
L49425 48990
" />
<path d="M49229 48793
L49622 48793
" />
<path d="M49425 50346
L49425 50740
" />
<path d="M49229 50543
L49622 50543
" />
<path d="M49425 51346
L49425 51740
" />
<path d="M49229 51543
L49622 51543
" />
<path d="M49725 25546
L49725 25940
" />
<path d="M49529 25743
L49922 25743
" />
<path d="M49725 26546
L49725 26940
" />
<path d="M49529 26743
L49922 26743
" />
<path d="M49725 29246
L49725 29640
" />
<path d="M49529 29443
L49922 29443
" />
<path d="M49725 30246
L49725 30640
" />
<path d="M49529 30443
L49922 30443
" />
<path d="M50125 33046
L50125 33440
" />
<path d="M49929 33243
L50322 33243
" />
<path d="M50125 34046
L50125 34440
" />
<path d="M49929 34243
L50322 34243
" />
<path d="M50425 48596
L50425 48990
" />
<path d="M50229 48793
L50622 48793
" />
<path d="M50425 50346
L50425 50740
" />
<path d="M50229 50543
L50622 50543
" />
<path d="M50425 51346
L50425 51740
" />
<path d="M50229 51543
L50622 51543
" />
<path d="M50525 39146
L50525 39540
" />
<path d="M50329 39343
L50722 39343
" />
<path d="M51125 33046
L51125 33440
" />
<path d="M50929 33243
L51322 33243
" />
<path d="M51125 34046
L51125 34440
" />
<path d="M50929 34243
L51322 34243
" />
<path d="M51425 50346
L51425 50740
" />
<path d="M51229 50543
L51622 50543
" />
<path d="M51425 51346
L51425 51740
" />
<path d="M51229 51543
L51622 51543
" />
<path d="M51525 39146
L51525 39540
" />
<path d="M51329 39343
L51722 39343
" />
<path d="M52125 33046
L52125 33440
" />
<path d="M51929 33243
L52322 33243
" />
<path d="M52125 34046
L52125 34440
" />
<path d="M51929 34243
L52322 34243
" />
<path d="M52825 25146
L52825 25540
" />
<path d="M52629 25343
L53022 25343
" />
<path d="M52825 28146
L52825 28540
" />
<path d="M52629 28343
L53022 28343
" />
<path d="M53125 33046
L53125 33440
" />
<path d="M52929 33243
L53322 33243
" />
<path d="M53125 34046
L53125 34440
" />
<path d="M52929 34243
L53322 34243
" />
<path d="M53825 25146
L53825 25540
" />
<path d="M53629 25343
L54022 25343
" />
<path d="M53825 28146
L53825 28540
" />
<path d="M53629 28343
L54022 28343
" />
<path d="M54825 25146
L54825 25540
" />
<path d="M54629 25343
L55022 25343
" />
<path d="M54825 28146
L54825 28540
" />
<path d="M54629 28343
L55022 28343
" />
<path d="M55425 20846
L55425 21240
" />
<path d="M55229 21043
L55622 21043
" />
<path d="M55425 21846
L55425 22240
" />
<path d="M55229 22043
L55622 22043
" />
<path d="M55675 50346
L55675 50740
" />
<path d="M55479 50543
L55872 50543
" />
<path d="M55675 51346
L55675 51740
" />
<path d="M55479 51543
L55872 51543
" />
<path d="M55825 25146
L55825 25540
" />
<path d="M55629 25343
L56022 25343
" />
<path d="M55825 28146
L55825 28540
" />
<path d="M55629 28343
L56022 28343
" />
<path d="M56675 48596
L56675 48990
" />
<path d="M56479 48793
L56872 48793
" />
<path d="M56675 50346
L56675 50740
" />
<path d="M56479 50543
L56872 50543
" />
<path d="M56675 51346
L56675 51740
" />
<path d="M56479 51543
L56872 51543
" />
<path d="M57125 25446
L57125 25840
" />
<path d="M56929 25643
L57322 25643
" />
<path d="M57275 28446
L57275 28840
" />
<path d="M57079 28643
L57472 28643
" />
<path d="M57275 29446
L57275 29840
" />
<path d="M57079 29643
L57472 29643
" />
<path d="M57275 30446
L57275 30840
" />
<path d="M57079 30643
L57472 30643
" />
<path d="M57675 48596
L57675 48990
" />
<path d="M57479 48793
L57872 48793
" />
<path d="M57675 50346
L57675 50740
" />
<path d="M57479 50543
L57872 50543
" />
<path d="M57675 51346
L57675 51740
" />
<path d="M57479 51543
L57872 51543
" />
<path d="M58675 48596
L58675 48990
" />
<path d="M58479 48793
L58872 48793
" />
<path d="M58675 50346
L58675 50740
" />
<path d="M58479 50543
L58872 50543
" />
<path d="M58675 51346
L58675 51740
" />
<path d="M58479 51543
L58872 51543
" />
<path d="M59675 50346
L59675 50740
" />
<path d="M59479 50543
L59872 50543
" />
<path d="M59675 51346
L59675 51740
" />
<path d="M59479 51543
L59872 51543
" />
<path d="M61725 48046
L61725 48440
" />
<path d="M61529 48243
L61922 48243
" />
<path d="M63925 50346
L63925 50740
" />
<path d="M63729 50543
L64122 50543
" />
<path d="M63925 51346
L63925 51740
" />
<path d="M63729 51543
L64122 51543
" />
<path d="M64925 48596
L64925 48990
" />
<path d="M64729 48793
L65122 48793
" />
<path d="M64925 50346
L64925 50740
" />
<path d="M64729 50543
L65122 50543
" />
<path d="M64925 51346
L64925 51740
" />
<path d="M64729 51543
L65122 51543
" />
<path d="M65925 48596
L65925 48990
" />
<path d="M65729 48793
L66122 48793
" />
<path d="M65925 50346
L65925 50740
" />
<path d="M65729 50543
L66122 50543
" />
<path d="M65925 51346
L65925 51740
" />
<path d="M65729 51543
L66122 51543
" />
<path d="M66925 48596
L66925 48990
" />
<path d="M66729 48793
L67122 48793
" />
<path d="M66925 50346
L66925 50740
" />
<path d="M66729 50543
L67122 50543
" />
<path d="M66925 51346
L66925 51740
" />
<path d="M66729 51543
L67122 51543
" />
<path d="M67625 23846
L67625 24240
" />
<path d="M67429 24043
L67822 24043
" />
<path d="M67625 24846
L67625 25240
" />
<path d="M67429 25043
L67822 25043
" />
<path d="M67925 50346
L67925 50740
" />
<path d="M67729 50543
L68122 50543
" />
<path d="M67925 51346
L67925 51740
" />
<path d="M67729 51543
L68122 51543
" />
<path d="M68625 21346
L68625 21740
" />
<path d="M68429 21543
L68822 21543
" />
<path d="M68625 22346
L68625 22740
" />
<path d="M68429 22543
L68822 22543
" />
<path d="M68625 23846
L68625 24240
" />
<path d="M68429 24043
L68822 24043
" />
<path d="M68625 24846
L68625 25240
" />
<path d="M68429 25043
L68822 25043
" />
<path d="M69625 23846
L69625 24240
" />
<path d="M69429 24043
L69822 24043
" />
<path d="M69625 24846
L69625 25240
" />
<path d="M69429 25043
L69822 25043
" />
<path d="M69707 17097
L69707 17491
" />
<path d="M69510 17294
L69904 17294
" />
<path d="M70625 23846
L70625 24240
" />
<path d="M70429 24043
L70822 24043
" />
<path d="M70625 24846
L70625 25240
" />
<path d="M70429 25043
L70822 25043
" />
<path d="M70707 17097
L70707 17491
" />
<path d="M70510 17294
L70904 17294
" />
<path d="M71625 21346
L71625 21740
" />
<path d="M71429 21543
L71822 21543
" />
<path d="M71625 22346
L71625 22740
" />
<path d="M71429 22543
L71822 22543
" />
<path d="M71625 23846
L71625 24240
" />
<path d="M71429 24043
L71822 24043
" />
<path d="M71625 24846
L71625 25240
" />
<path d="M71429 25043
L71822 25043
" />
<path d="M71707 17097
L71707 17491
" />
<path d="M71510 17294
L71904 17294
" />
<path d="M72175 50346
L72175 50740
" />
<path d="M71979 50543
L72372 50543
" />
<path d="M72175 51346
L72175 51740
" />
<path d="M71979 51543
L72372 51543
" />
<path d="M72625 23846
L72625 24240
" />
<path d="M72429 24043
L72822 24043
" />
<path d="M72625 24846
L72625 25240
" />
<path d="M72429 25043
L72822 25043
" />
<path d="M73175 48596
L73175 48990
" />
<path d="M72979 48793
L73372 48793
" />
<path d="M73175 50346
L73175 50740
" />
<path d="M72979 50543
L73372 50543
" />
<path d="M73175 51346
L73175 51740
" />
<path d="M72979 51543
L73372 51543
" />
<path d="M74175 48596
L74175 48990
" />
<path d="M73979 48793
L74372 48793
" />
<path d="M74175 50346
L74175 50740
" />
<path d="M73979 50543
L74372 50543
" />
<path d="M74175 51346
L74175 51740
" />
<path d="M73979 51543
L74372 51543
" />
<path d="M74707 17086
L74707 17480
" />
<path d="M74510 17283
L74904 17283
" />
<path d="M75175 48596
L75175 48990
" />
<path d="M74979 48793
L75372 48793
" />
<path d="M75175 50346
L75175 50740
" />
<path d="M74979 50543
L75372 50543
" />
<path d="M75175 51346
L75175 51740
" />
<path d="M74979 51543
L75372 51543
" />
<path d="M75275 29396
L75275 29790
" />
<path d="M75079 29593
L75472 29593
" />
<path d="M75275 30396
L75275 30790
" />
<path d="M75079 30593
L75472 30593
" />
<path d="M75275 31396
L75275 31790
" />
<path d="M75079 31593
L75472 31593
" />
<path d="M75707 17086
L75707 17480
" />
<path d="M75510 17283
L75904 17283
" />
<path d="M76175 50346
L76175 50740
" />
<path d="M75979 50543
L76372 50543
" />
<path d="M76175 51346
L76175 51740
" />
<path d="M75979 51543
L76372 51543
" />
<path d="M76645 22246
L76645 22640
" />
<path d="M76449 22443
L76842 22443
" />
<path d="M76707 17086
L76707 17480
" />
<path d="M76510 17283
L76904 17283
" />
<path d="M76725 39746
L76725 40140
" />
<path d="M76529 39943
L76922 39943
" />
<path d="M77075 43746
L77075 44140
" />
<path d="M76879 43943
L77272 43943
" />
<path d="M77075 44746
L77075 45140
" />
<path d="M76879 44943
L77272 44943
" />
<path d="M77075 45746
L77075 46140
" />
<path d="M76879 45943
L77272 45943
" />
<path d="M77125 35446
L77125 35840
" />
<path d="M76929 35643
L77322 35643
" />
<path d="M77125 36446
L77125 36840
" />
<path d="M76929 36643
L77322 36643
" />
<path d="M77125 37446
L77125 37840
" />
<path d="M76929 37643
L77322 37643
" />
<path d="M77645 22246
L77645 22640
" />
<path d="M77449 22443
L77842 22443
" />
<path d="M78925 34446
L78925 34840
" />
<path d="M78729 34643
L79122 34643
" />
<path d="M78925 35446
L78925 35840
" />
<path d="M78729 35643
L79122 35643
" />
<path d="M78925 36446
L78925 36840
" />
<path d="M78729 36643
L79122 36643
" />
<path d="M78925 37446
L78925 37840
" />
<path d="M78729 37643
L79122 37643
" />
<path d="M78925 38446
L78925 38840
" />
<path d="M78729 38643
L79122 38643
" />
<path d="M78925 42746
L78925 43140
" />
<path d="M78729 42943
L79122 42943
" />
<path d="M78925 43746
L78925 44140
" />
<path d="M78729 43943
L79122 43943
" />
<path d="M78925 44746
L78925 45140
" />
<path d="M78729 44943
L79122 44943
" />
<path d="M78925 45746
L78925 46140
" />
<path d="M78729 45943
L79122 45943
" />
<path d="M78925 46746
L78925 47140
" />
<path d="M78729 46943
L79122 46943
" />
<path d="M79175 22246
L79175 22640
" />
<path d="M78979 22443
L79372 22443
" />
<path d="M79925 34446
L79925 34840
" />
<path d="M79729 34643
L80122 34643
" />
<path d="M79925 35446
L79925 35840
" />
<path d="M79729 35643
L80122 35643
" />
<path d="M79925 36446
L79925 36840
" />
<path d="M79729 36643
L80122 36643
" />
<path d="M79925 37446
L79925 37840
" />
<path d="M79729 37643
L80122 37643
" />
<path d="M79925 38446
L79925 38840
" />
<path d="M79729 38643
L80122 38643
" />
<path d="M79925 42746
L79925 43140
" />
<path d="M79729 42943
L80122 42943
" />
<path d="M79925 43746
L79925 44140
" />
<path d="M79729 43943
L80122 43943
" />
<path d="M79925 44746
L79925 45140
" />
<path d="M79729 44943
L80122 44943
" />
<path d="M79925 45746
L79925 46140
" />
<path d="M79729 45943
L80122 45943
" />
<path d="M79925 46746
L79925 47140
" />
<path d="M79729 46943
L80122 46943
" />
<path d="M80175 22246
L80175 22640
" />
<path d="M79979 22443
L80372 22443
" />
<polyline fill="none;"
points="62236,41772
62236,40937
61401,40937
61401,41772
62236,41772
" /> 
<polyline fill="none;"
points="68896,18514
69290,18121
68896,17727
68502,18121
68896,18514
" /> 
<polyline fill="none;"
points="70707,16152
71101,15759
70707,15365
70313,15759
70707,16152
" /> 
<polyline fill="none;"
points="72518,18514
72912,18121
72518,17727
72124,18121
72518,18514
" /> 
<polyline fill="none;"
points="73896,18503
74290,18110
73896,17716
73502,18110
73896,18503
" /> 
<polyline fill="none;"
points="75707,16141
76101,15748
75707,15354
75313,15748
75707,16141
" /> 
<polyline fill="none;"
points="77518,18503
77912,18110
77518,17716
77124,18110
77518,18503
" /> 
<path d="M43464 15511
L44724 16771
" />
<path d="M44724 15511
L43464 16771
" />
<circle cx="44094.5" cy="16141.7" r="629.921" /> 
<path d="M43464 50945
L44724 52205
" />
<path d="M44724 50945
L43464 52205
" />
<circle cx="44094.5" cy="51575.2" r="629.921" /> 
<path d="M78897 15511
L80157 16771
" />
<path d="M80157 15511
L78897 16771
" />
<circle cx="79527.6" cy="16141.7" r="629.921" /> 
<path d="M78897 50944
L80157 52204
" />
<path d="M80157 50944
L78897 52204
" />
<circle cx="79527.6" cy="51574.8" r="629.921" /> 
</g>
<g style="fill:#000000; fill-opacity:0.0; 
stroke:#000000; stroke-width:118.11; stroke-opacity:1; 
stroke-linecap:round; stroke-linejoin:round;">
<path d="M43174 55396
L43174 54215
L43456 54215
L43624 54271
L43737 54384
L43793 54496
L43849 54721
L43849 54890
L43793 55115
L43737 55227
L43624 55340
L43456 55396
L43174 55396
" />
<path d="M44356 55396
L44356 54609
" />
<path d="M44356 54834
L44412 54721
L44468 54665
L44580 54609
L44693 54609
" />
<path d="M45087 55396
L45087 54609
" />
<path d="M45087 54215
L45030 54271
L45087 54327
L45143 54271
L45087 54215
L45087 54327
" />
<path d="M45818 55396
L45705 55340
L45649 55227
L45649 54215
" />
<path d="M46437 55396
L46324 55340
L46268 55227
L46268 54215
" />
<path d="M47786 55396
L47786 54215
L48180 55059
L48574 54215
L48574 55396
" />
<path d="M49642 55396
L49642 54777
L49586 54665
L49474 54609
L49249 54609
L49136 54665
" />
<path d="M49642 55340
L49530 55396
L49249 55396
L49136 55340
L49080 55227
L49080 55115
L49136 55002
L49249 54946
L49530 54946
L49642 54890
" />
<path d="M50205 54609
L50205 55790
" />
<path d="M50205 54665
L50317 54609
L50542 54609
L50655 54665
L50711 54721
L50767 54834
L50767 55171
L50711 55284
L50655 55340
L50542 55396
L50317 55396
L50205 55340
" />
<path d="M51273 55284
L51330 55340
L51273 55396
L51217 55340
L51273 55284
L51273 55396
" />
<path d="M51273 54665
L51330 54721
L51273 54777
L51217 54721
L51273 54665
L51273 54777
" />
<path d="M41909 57244
L42106 57440
" />
<path d="M42106 57244
L41909 57440
" />
<path d="M43399 56695
L43512 56695
L43624 56751
L43681 56808
L43737 56920
L43793 57145
L43793 57426
L43737 57651
L43681 57764
L43624 57820
L43512 57876
L43399 57876
L43287 57820
L43231 57764
L43174 57651
L43118 57426
L43118 57145
L43174 56920
L43231 56808
L43287 56751
L43399 56695
" />
<path d="M44299 57764
L44356 57820
L44299 57876
L44243 57820
L44299 57764
L44299 57876
" />
<path d="M45424 56695
L44862 56695
L44805 57258
L44862 57201
L44974 57145
L45255 57145
L45368 57201
L45424 57258
L45480 57370
L45480 57651
L45424 57764
L45368 57820
L45255 57876
L44974 57876
L44862 57820
L44805 57764
" />
<path d="M46212 56695
L46324 56695
L46437 56751
L46493 56808
L46549 56920
L46605 57145
L46605 57426
L46549 57651
L46493 57764
L46437 57820
L46324 57876
L46212 57876
L46099 57820
L46043 57764
L45987 57651
L45930 57426
L45930 57145
L45987 56920
L46043 56808
L46099 56751
L46212 56695
" />
<path d="M47111 57876
L47111 57089
" />
<path d="M47111 57201
L47168 57145
L47280 57089
L47449 57089
L47561 57145
L47618 57258
L47618 57876
" />
<path d="M47618 57258
L47674 57145
L47786 57089
L47955 57089
L48068 57145
L48124 57258
L48124 57876
" />
<path d="M48686 57876
L48686 57089
" />
<path d="M48686 57201
L48742 57145
L48855 57089
L49024 57089
L49136 57145
L49192 57258
L49192 57876
" />
<path d="M49192 57258
L49249 57145
L49361 57089
L49530 57089
L49642 57145
L49699 57258
L49699 57876
" />
<path d="M52005 56639
L50992 58158
" />
<path d="M53523 56695
L53636 56695
L53748 56751
L53804 56808
L53861 56920
L53917 57145
L53917 57426
L53861 57651
L53804 57764
L53748 57820
L53636 57876
L53523 57876
L53411 57820
L53354 57764
L53298 57651
L53242 57426
L53242 57145
L53298 56920
L53354 56808
L53411 56751
L53523 56695
" />
<path d="M54423 57764
L54479 57820
L54423 57876
L54367 57820
L54423 57764
L54423 57876
" />
<path d="M55210 56695
L55323 56695
L55435 56751
L55492 56808
L55548 56920
L55604 57145
L55604 57426
L55548 57651
L55492 57764
L55435 57820
L55323 57876
L55210 57876
L55098 57820
L55042 57764
L54985 57651
L54929 57426
L54929 57145
L54985 56920
L55042 56808
L55098 56751
L55210 56695
" />
<path d="M56054 56808
L56110 56751
L56223 56695
L56504 56695
L56616 56751
L56673 56808
L56729 56920
L56729 57033
L56673 57201
L55998 57876
L56729 57876
" />
<path d="M57460 56695
L57573 56695
L57685 56751
L57741 56808
L57798 56920
L57854 57145
L57854 57426
L57798 57651
L57741 57764
L57685 57820
L57573 57876
L57460 57876
L57348 57820
L57291 57764
L57235 57651
L57179 57426
L57179 57145
L57235 56920
L57291 56808
L57348 56751
L57460 56695
" />
<path d="M58304 56695
L58304 56920
" />
<path d="M58754 56695
L58754 56920
" />
<path d="M60497 58326
L60441 58270
L60329 58101
L60272 57989
L60216 57820
L60160 57539
L60160 57314
L60216 57033
L60272 56864
L60329 56751
L60441 56583
L60497 56526
" />
<path d="M60835 56695
L61566 56695
L61172 57145
L61341 57145
L61453 57201
L61510 57258
L61566 57370
L61566 57651
L61510 57764
L61453 57820
L61341 57876
L61003 57876
L60891 57820
L60835 57764
" />
<path d="M62297 56695
L62410 56695
L62522 56751
L62578 56808
L62634 56920
L62691 57145
L62691 57426
L62634 57651
L62578 57764
L62522 57820
L62410 57876
L62297 57876
L62185 57820
L62128 57764
L62072 57651
L62016 57426
L62016 57145
L62072 56920
L62128 56808
L62185 56751
L62297 56695
" />
<path d="M63253 57876
L63478 57876
L63591 57820
L63647 57764
L63759 57595
L63816 57370
L63816 56920
L63759 56808
L63703 56751
L63591 56695
L63366 56695
L63253 56751
L63197 56808
L63141 56920
L63141 57201
L63197 57314
L63253 57370
L63366 57426
L63591 57426
L63703 57370
L63759 57314
L63816 57201
" />
<path d="M65222 57876
L65222 56695
" />
<path d="M65728 57876
L65728 57258
L65672 57145
L65559 57089
L65390 57089
L65278 57145
L65222 57201
" />
<path d="M66459 57876
L66347 57820
L66290 57764
L66234 57651
L66234 57314
L66290 57201
L66347 57145
L66459 57089
L66628 57089
L66740 57145
L66796 57201
L66853 57314
L66853 57651
L66796 57764
L66740 57820
L66628 57876
L66459 57876
" />
<path d="M67528 57876
L67415 57820
L67359 57708
L67359 56695
" />
<path d="M68428 57820
L68315 57876
L68090 57876
L67978 57820
L67921 57708
L67921 57258
L67978 57145
L68090 57089
L68315 57089
L68428 57145
L68484 57258
L68484 57370
L67921 57483
" />
<path d="M68934 57820
L69046 57876
L69271 57876
L69384 57820
L69440 57708
L69440 57651
L69384 57539
L69271 57483
L69102 57483
L68990 57426
L68934 57314
L68934 57258
L68990 57145
L69102 57089
L69271 57089
L69384 57145
" />
<path d="M69834 58326
L69890 58270
L70002 58101
L70059 57989
L70115 57820
L70171 57539
L70171 57314
L70115 57033
L70059 56864
L70002 56751
L69890 56583
L69834 56526
" />
<circle cx="41948.8" cy="58901.6" r="157.48" /> 
<path d="M43399 58254
L43512 58254
L43624 58311
L43681 58367
L43737 58479
L43793 58704
L43793 58985
L43737 59210
L43681 59323
L43624 59379
L43512 59435
L43399 59435
L43287 59379
L43231 59323
L43174 59210
L43118 58985
L43118 58704
L43174 58479
L43231 58367
L43287 58311
L43399 58254
" />
<path d="M44299 59323
L44356 59379
L44299 59435
L44243 59379
L44299 59323
L44299 59435
" />
<path d="M45030 58760
L44918 58704
L44862 58648
L44805 58535
L44805 58479
L44862 58367
L44918 58311
L45030 58254
L45255 58254
L45368 58311
L45424 58367
L45480 58479
L45480 58535
L45424 58648
L45368 58704
L45255 58760
L45030 58760
L44918 58817
L44862 58873
L44805 58985
L44805 59210
L44862 59323
L44918 59379
L45030 59435
L45255 59435
L45368 59379
L45424 59323
L45480 59210
L45480 58985
L45424 58873
L45368 58817
L45255 58760
" />
<path d="M46212 58254
L46324 58254
L46437 58311
L46493 58367
L46549 58479
L46605 58704
L46605 58985
L46549 59210
L46493 59323
L46437 59379
L46324 59435
L46212 59435
L46099 59379
L46043 59323
L45987 59210
L45930 58985
L45930 58704
L45987 58479
L46043 58367
L46099 58311
L46212 58254
" />
<path d="M47111 59435
L47111 58648
" />
<path d="M47111 58760
L47168 58704
L47280 58648
L47449 58648
L47561 58704
L47618 58817
L47618 59435
" />
<path d="M47618 58817
L47674 58704
L47786 58648
L47955 58648
L48068 58704
L48124 58817
L48124 59435
" />
<path d="M48686 59435
L48686 58648
" />
<path d="M48686 58760
L48742 58704
L48855 58648
L49024 58648
L49136 58704
L49192 58817
L49192 59435
" />
<path d="M49192 58817
L49249 58704
L49361 58648
L49530 58648
L49642 58704
L49699 58817
L49699 59435
" />
<path d="M52005 58198
L50992 59717
" />
<path d="M53523 58254
L53636 58254
L53748 58311
L53804 58367
L53861 58479
L53917 58704
L53917 58985
L53861 59210
L53804 59323
L53748 59379
L53636 59435
L53523 59435
L53411 59379
L53354 59323
L53298 59210
L53242 58985
L53242 58704
L53298 58479
L53354 58367
L53411 58311
L53523 58254
" />
<path d="M54423 59323
L54479 59379
L54423 59435
L54367 59379
L54423 59323
L54423 59435
" />
<path d="M55210 58254
L55323 58254
L55435 58311
L55492 58367
L55548 58479
L55604 58704
L55604 58985
L55548 59210
L55492 59323
L55435 59379
L55323 59435
L55210 59435
L55098 59379
L55042 59323
L54985 59210
L54929 58985
L54929 58704
L54985 58479
L55042 58367
L55098 58311
L55210 58254
" />
<path d="M55998 58254
L56729 58254
L56335 58704
L56504 58704
L56616 58760
L56673 58817
L56729 58929
L56729 59210
L56673 59323
L56616 59379
L56504 59435
L56167 59435
L56054 59379
L55998 59323
" />
<path d="M57854 59435
L57179 59435
" />
<path d="M57516 59435
L57516 58254
L57404 58423
L57291 58535
L57179 58592
" />
<path d="M58304 58254
L58304 58479
" />
<path d="M58754 58254
L58754 58479
" />
<path d="M60497 59885
L60441 59829
L60329 59660
L60272 59548
L60216 59379
L60160 59098
L60160 58873
L60216 58592
L60272 58423
L60329 58311
L60441 58142
L60497 58086
" />
<path d="M61453 58254
L61228 58254
L61116 58311
L61060 58367
L60947 58535
L60891 58760
L60891 59210
L60947 59323
L61003 59379
L61116 59435
L61341 59435
L61453 59379
L61510 59323
L61566 59210
L61566 58929
L61510 58817
L61453 58760
L61341 58704
L61116 58704
L61003 58760
L60947 58817
L60891 58929
" />
<path d="M62634 58254
L62072 58254
L62016 58817
L62072 58760
L62185 58704
L62466 58704
L62578 58760
L62634 58817
L62691 58929
L62691 59210
L62634 59323
L62578 59379
L62466 59435
L62185 59435
L62072 59379
L62016 59323
" />
<path d="M64097 59435
L64097 58254
" />
<path d="M64603 59435
L64603 58817
L64547 58704
L64434 58648
L64266 58648
L64153 58704
L64097 58760
" />
<path d="M65334 59435
L65222 59379
L65165 59323
L65109 59210
L65109 58873
L65165 58760
L65222 58704
L65334 58648
L65503 58648
L65615 58704
L65672 58760
L65728 58873
L65728 59210
L65672 59323
L65615 59379
L65503 59435
L65334 59435
" />
<path d="M66403 59435
L66290 59379
L66234 59267
L66234 58254
" />
<path d="M67303 59379
L67190 59435
L66965 59435
L66853 59379
L66796 59267
L66796 58817
L66853 58704
L66965 58648
L67190 58648
L67303 58704
L67359 58817
L67359 58929
L66796 59042
" />
<path d="M67809 59379
L67921 59435
L68146 59435
L68259 59379
L68315 59267
L68315 59210
L68259 59098
L68146 59042
L67978 59042
L67865 58985
L67809 58873
L67809 58817
L67865 58704
L67978 58648
L68146 58648
L68259 58704
" />
<path d="M68709 59885
L68765 59829
L68877 59660
L68934 59548
L68990 59379
L69046 59098
L69046 58873
L68990 58592
L68934 58423
L68877 58311
L68765 58142
L68709 58086
" />
<path d="M41909 60263
L41909 60657
" />
<path d="M41712 60460
L42106 60460
" />
<path d="M43793 60994
L43118 60994
" />
<path d="M43456 60994
L43456 59813
L43343 59982
L43231 60095
L43118 60151
" />
<path d="M44299 60882
L44356 60938
L44299 60994
L44243 60938
L44299 60882
L44299 60994
" />
<path d="M45087 59813
L45199 59813
L45312 59870
L45368 59926
L45424 60038
L45480 60263
L45480 60544
L45424 60769
L45368 60882
L45312 60938
L45199 60994
L45087 60994
L44974 60938
L44918 60882
L44862 60769
L44805 60544
L44805 60263
L44862 60038
L44918 59926
L44974 59870
L45087 59813
" />
<path d="M46212 59813
L46324 59813
L46437 59870
L46493 59926
L46549 60038
L46605 60263
L46605 60544
L46549 60769
L46493 60882
L46437 60938
L46324 60994
L46212 60994
L46099 60938
L46043 60882
L45987 60769
L45930 60544
L45930 60263
L45987 60038
L46043 59926
L46099 59870
L46212 59813
" />
<path d="M47111 60994
L47111 60207
" />
<path d="M47111 60320
L47168 60263
L47280 60207
L47449 60207
L47561 60263
L47618 60376
L47618 60994
" />
<path d="M47618 60376
L47674 60263
L47786 60207
L47955 60207
L48068 60263
L48124 60376
L48124 60994
" />
<path d="M48686 60994
L48686 60207
" />
<path d="M48686 60320
L48742 60263
L48855 60207
L49024 60207
L49136 60263
L49192 60376
L49192 60994
" />
<path d="M49192 60376
L49249 60263
L49361 60207
L49530 60207
L49642 60263
L49699 60376
L49699 60994
" />
<path d="M52005 59757
L50992 61276
" />
<path d="M53523 59813
L53636 59813
L53748 59870
L53804 59926
L53861 60038
L53917 60263
L53917 60544
L53861 60769
L53804 60882
L53748 60938
L53636 60994
L53523 60994
L53411 60938
L53354 60882
L53298 60769
L53242 60544
L53242 60263
L53298 60038
L53354 59926
L53411 59870
L53523 59813
" />
<path d="M54423 60882
L54479 60938
L54423 60994
L54367 60938
L54423 60882
L54423 60994
" />
<path d="M55210 59813
L55323 59813
L55435 59870
L55492 59926
L55548 60038
L55604 60263
L55604 60544
L55548 60769
L55492 60882
L55435 60938
L55323 60994
L55210 60994
L55098 60938
L55042 60882
L54985 60769
L54929 60544
L54929 60263
L54985 60038
L55042 59926
L55098 59870
L55210 59813
" />
<path d="M55998 59813
L56729 59813
L56335 60263
L56504 60263
L56616 60320
L56673 60376
L56729 60488
L56729 60769
L56673 60882
L56616 60938
L56504 60994
L56167 60994
L56054 60938
L55998 60882
" />
<path d="M57291 60994
L57516 60994
L57629 60938
L57685 60882
L57798 60713
L57854 60488
L57854 60038
L57798 59926
L57741 59870
L57629 59813
L57404 59813
L57291 59870
L57235 59926
L57179 60038
L57179 60320
L57235 60432
L57291 60488
L57404 60544
L57629 60544
L57741 60488
L57798 60432
L57854 60320
" />
<path d="M58304 59813
L58304 60038
" />
<path d="M58754 59813
L58754 60038
" />
<path d="M60497 61444
L60441 61388
L60329 61219
L60272 61107
L60216 60938
L60160 60657
L60160 60432
L60216 60151
L60272 59982
L60329 59870
L60441 59701
L60497 59645
" />
<path d="M61566 60994
L60891 60994
" />
<path d="M61228 60994
L61228 59813
L61116 59982
L61003 60095
L60891 60151
" />
<path d="M62241 60320
L62128 60263
L62072 60207
L62016 60095
L62016 60038
L62072 59926
L62128 59870
L62241 59813
L62466 59813
L62578 59870
L62634 59926
L62691 60038
L62691 60095
L62634 60207
L62578 60263
L62466 60320
L62241 60320
L62128 60376
L62072 60432
L62016 60544
L62016 60769
L62072 60882
L62128 60938
L62241 60994
L62466 60994
L62578 60938
L62634 60882
L62691 60769
L62691 60544
L62634 60432
L62578 60376
L62466 60320
" />
<path d="M63366 60320
L63253 60263
L63197 60207
L63141 60095
L63141 60038
L63197 59926
L63253 59870
L63366 59813
L63591 59813
L63703 59870
L63759 59926
L63816 60038
L63816 60095
L63759 60207
L63703 60263
L63591 60320
L63366 60320
L63253 60376
L63197 60432
L63141 60544
L63141 60769
L63197 60882
L63253 60938
L63366 60994
L63591 60994
L63703 60938
L63759 60882
L63816 60769
L63816 60544
L63759 60432
L63703 60376
L63591 60320
" />
<path d="M65222 60994
L65222 59813
" />
<path d="M65728 60994
L65728 60376
L65672 60263
L65559 60207
L65390 60207
L65278 60263
L65222 60320
" />
<path d="M66459 60994
L66347 60938
L66290 60882
L66234 60769
L66234 60432
L66290 60320
L66347 60263
L66459 60207
L66628 60207
L66740 60263
L66796 60320
L66853 60432
L66853 60769
L66796 60882
L66740 60938
L66628 60994
L66459 60994
" />
<path d="M67528 60994
L67415 60938
L67359 60826
L67359 59813
" />
<path d="M68428 60938
L68315 60994
L68090 60994
L67978 60938
L67921 60826
L67921 60376
L67978 60263
L68090 60207
L68315 60207
L68428 60263
L68484 60376
L68484 60488
L67921 60601
" />
<path d="M68934 60938
L69046 60994
L69271 60994
L69384 60938
L69440 60826
L69440 60769
L69384 60657
L69271 60601
L69102 60601
L68990 60544
L68934 60432
L68934 60376
L68990 60263
L69102 60207
L69271 60207
L69384 60263
" />
<path d="M70846 60544
L71746 60544
" />
<path d="M71296 60994
L71296 60095
" />
<path d="M73827 60994
L73152 60994
" />
<path d="M73489 60994
L73489 59813
L73377 59982
L73264 60095
L73152 60151
" />
<path d="M75177 60938
L75289 60994
L75514 60994
L75627 60938
L75683 60826
L75683 60769
L75627 60657
L75514 60601
L75345 60601
L75233 60544
L75177 60432
L75177 60376
L75233 60263
L75345 60207
L75514 60207
L75627 60263
" />
<path d="M76358 60994
L76245 60938
L76189 60826
L76189 59813
" />
<path d="M76976 60994
L76864 60938
L76808 60882
L76751 60769
L76751 60432
L76808 60320
L76864 60263
L76976 60207
L77145 60207
L77258 60263
L77314 60320
L77370 60432
L77370 60769
L77314 60882
L77258 60938
L77145 60994
L76976 60994
" />
<path d="M77708 60207
L78158 60207
" />
<path d="M77876 59813
L77876 60826
L77933 60938
L78045 60994
L78158 60994
" />
<path d="M78439 61444
L78495 61388
L78607 61219
L78664 61107
L78720 60938
L78776 60657
L78776 60432
L78720 60151
L78664 59982
L78607 59870
L78495 59701
L78439 59645
" />
<polyline fill="none;"
points="41933,62437
41933,61602
41098,61602
41098,62437
41933,62437
" /> 
<path d="M43062 61372
L43793 61372
L43399 61822
L43568 61822
L43681 61879
L43737 61935
L43793 62047
L43793 62329
L43737 62441
L43681 62497
L43568 62553
L43231 62553
L43118 62497
L43062 62441
" />
<path d="M44299 62441
L44356 62497
L44299 62553
L44243 62497
L44299 62441
L44299 62553
" />
<path d="M45087 61372
L45199 61372
L45312 61429
L45368 61485
L45424 61597
L45480 61822
L45480 62104
L45424 62329
L45368 62441
L45312 62497
L45199 62553
L45087 62553
L44974 62497
L44918 62441
L44862 62329
L44805 62104
L44805 61822
L44862 61597
L44918 61485
L44974 61429
L45087 61372
" />
<path d="M46212 61372
L46324 61372
L46437 61429
L46493 61485
L46549 61597
L46605 61822
L46605 62104
L46549 62329
L46493 62441
L46437 62497
L46324 62553
L46212 62553
L46099 62497
L46043 62441
L45987 62329
L45930 62104
L45930 61822
L45987 61597
L46043 61485
L46099 61429
L46212 61372
" />
<path d="M47111 62553
L47111 61766
" />
<path d="M47111 61879
L47168 61822
L47280 61766
L47449 61766
L47561 61822
L47618 61935
L47618 62553
" />
<path d="M47618 61935
L47674 61822
L47786 61766
L47955 61766
L48068 61822
L48124 61935
L48124 62553
" />
<path d="M48686 62553
L48686 61766
" />
<path d="M48686 61879
L48742 61822
L48855 61766
L49024 61766
L49136 61822
L49192 61935
L49192 62553
" />
<path d="M49192 61935
L49249 61822
L49361 61766
L49530 61766
L49642 61822
L49699 61935
L49699 62553
" />
<path d="M52005 61316
L50992 62835
" />
<path d="M53523 61372
L53636 61372
L53748 61429
L53804 61485
L53861 61597
L53917 61822
L53917 62104
L53861 62329
L53804 62441
L53748 62497
L53636 62553
L53523 62553
L53411 62497
L53354 62441
L53298 62329
L53242 62104
L53242 61822
L53298 61597
L53354 61485
L53411 61429
L53523 61372
" />
<path d="M54423 62441
L54479 62497
L54423 62553
L54367 62497
L54423 62441
L54423 62553
" />
<path d="M55604 62553
L54929 62553
" />
<path d="M55267 62553
L55267 61372
L55154 61541
L55042 61654
L54929 61710
" />
<path d="M56729 62553
L56054 62553
" />
<path d="M56392 62553
L56392 61372
L56279 61541
L56167 61654
L56054 61710
" />
<path d="M57404 61879
L57291 61822
L57235 61766
L57179 61654
L57179 61597
L57235 61485
L57291 61429
L57404 61372
L57629 61372
L57741 61429
L57798 61485
L57854 61597
L57854 61654
L57798 61766
L57741 61822
L57629 61879
L57404 61879
L57291 61935
L57235 61991
L57179 62104
L57179 62329
L57235 62441
L57291 62497
L57404 62553
L57629 62553
L57741 62497
L57798 62441
L57854 62329
L57854 62104
L57798 61991
L57741 61935
L57629 61879
" />
<path d="M58304 61372
L58304 61597
" />
<path d="M58754 61372
L58754 61597
" />
<path d="M60497 63003
L60441 62947
L60329 62778
L60272 62666
L60216 62497
L60160 62216
L60160 61991
L60216 61710
L60272 61541
L60329 61429
L60441 61260
L60497 61204
" />
<path d="M61566 62553
L60891 62553
" />
<path d="M61228 62553
L61228 61372
L61116 61541
L61003 61654
L60891 61710
" />
<path d="M62972 62553
L62972 61372
" />
<path d="M63478 62553
L63478 61935
L63422 61822
L63309 61766
L63141 61766
L63028 61822
L62972 61879
" />
<path d="M64209 62553
L64097 62497
L64041 62441
L63984 62329
L63984 61991
L64041 61879
L64097 61822
L64209 61766
L64378 61766
L64491 61822
L64547 61879
L64603 61991
L64603 62329
L64547 62441
L64491 62497
L64378 62553
L64209 62553
" />
<path d="M65278 62553
L65165 62497
L65109 62385
L65109 61372
" />
<path d="M66178 62497
L66065 62553
L65840 62553
L65728 62497
L65672 62385
L65672 61935
L65728 61822
L65840 61766
L66065 61766
L66178 61822
L66234 61935
L66234 62047
L65672 62160
" />
<path d="M66628 63003
L66684 62947
L66796 62778
L66853 62666
L66909 62497
L66965 62216
L66965 61991
L66909 61710
L66853 61541
L66796 61429
L66684 61260
L66628 61204
" />
<polyline fill="none;"
points="41712,64106
42106,63712
41712,63318
41318,63712
41712,64106
" /> 
<path d="M43118 63178
L43174 63122
L43287 63065
L43568 63065
L43681 63122
L43737 63178
L43793 63290
L43793 63403
L43737 63571
L43062 64246
L43793 64246
" />
<path d="M44299 64134
L44356 64190
L44299 64246
L44243 64190
L44299 64134
L44299 64246
" />
<path d="M45087 63065
L45199 63065
L45312 63122
L45368 63178
L45424 63290
L45480 63515
L45480 63796
L45424 64021
L45368 64134
L45312 64190
L45199 64246
L45087 64246
L44974 64190
L44918 64134
L44862 64021
L44805 63796
L44805 63515
L44862 63290
L44918 63178
L44974 63122
L45087 63065
" />
<path d="M46212 63065
L46324 63065
L46437 63122
L46493 63178
L46549 63290
L46605 63515
L46605 63796
L46549 64021
L46493 64134
L46437 64190
L46324 64246
L46212 64246
L46099 64190
L46043 64134
L45987 64021
L45930 63796
L45930 63515
L45987 63290
L46043 63178
L46099 63122
L46212 63065
" />
<path d="M47111 64246
L47111 63459
" />
<path d="M47111 63571
L47168 63515
L47280 63459
L47449 63459
L47561 63515
L47618 63628
L47618 64246
" />
<path d="M47618 63628
L47674 63515
L47786 63459
L47955 63459
L48068 63515
L48124 63628
L48124 64246
" />
<path d="M48686 64246
L48686 63459
" />
<path d="M48686 63571
L48742 63515
L48855 63459
L49024 63459
L49136 63515
L49192 63628
L49192 64246
" />
<path d="M49192 63628
L49249 63515
L49361 63459
L49530 63459
L49642 63515
L49699 63628
L49699 64246
" />
<path d="M52005 63009
L50992 64528
" />
<path d="M53523 63065
L53636 63065
L53748 63122
L53804 63178
L53861 63290
L53917 63515
L53917 63796
L53861 64021
L53804 64134
L53748 64190
L53636 64246
L53523 64246
L53411 64190
L53354 64134
L53298 64021
L53242 63796
L53242 63515
L53298 63290
L53354 63178
L53411 63122
L53523 63065
" />
<path d="M54423 64134
L54479 64190
L54423 64246
L54367 64190
L54423 64134
L54423 64246
" />
<path d="M55210 63065
L55323 63065
L55435 63122
L55492 63178
L55548 63290
L55604 63515
L55604 63796
L55548 64021
L55492 64134
L55435 64190
L55323 64246
L55210 64246
L55098 64190
L55042 64134
L54985 64021
L54929 63796
L54929 63515
L54985 63290
L55042 63178
L55098 63122
L55210 63065
" />
<path d="M55998 63065
L56785 63065
L56279 64246
" />
<path d="M57291 64246
L57516 64246
L57629 64190
L57685 64134
L57798 63965
L57854 63740
L57854 63290
L57798 63178
L57741 63122
L57629 63065
L57404 63065
L57291 63122
L57235 63178
L57179 63290
L57179 63571
L57235 63684
L57291 63740
L57404 63796
L57629 63796
L57741 63740
L57798 63684
L57854 63571
" />
<path d="M58304 63065
L58304 63290
" />
<path d="M58754 63065
L58754 63290
" />
<path d="M60497 64696
L60441 64640
L60329 64471
L60272 64359
L60216 64190
L60160 63909
L60160 63684
L60216 63403
L60272 63234
L60329 63122
L60441 62953
L60497 62897
" />
<path d="M61453 63065
L61228 63065
L61116 63122
L61060 63178
L60947 63347
L60891 63571
L60891 64021
L60947 64134
L61003 64190
L61116 64246
L61341 64246
L61453 64190
L61510 64134
L61566 64021
L61566 63740
L61510 63628
L61453 63571
L61341 63515
L61116 63515
L61003 63571
L60947 63628
L60891 63740
" />
<path d="M62972 64246
L62972 63065
" />
<path d="M63478 64246
L63478 63628
L63422 63515
L63309 63459
L63141 63459
L63028 63515
L62972 63571
" />
<path d="M64209 64246
L64097 64190
L64041 64134
L63984 64021
L63984 63684
L64041 63571
L64097 63515
L64209 63459
L64378 63459
L64491 63515
L64547 63571
L64603 63684
L64603 64021
L64547 64134
L64491 64190
L64378 64246
L64209 64246
" />
<path d="M65278 64246
L65165 64190
L65109 64078
L65109 63065
" />
<path d="M66178 64190
L66065 64246
L65840 64246
L65728 64190
L65672 64078
L65672 63628
L65728 63515
L65840 63459
L66065 63459
L66178 63515
L66234 63628
L66234 63740
L65672 63853
" />
<path d="M66684 64190
L66796 64246
L67021 64246
L67134 64190
L67190 64078
L67190 64021
L67134 63909
L67021 63853
L66853 63853
L66740 63796
L66684 63684
L66684 63628
L66740 63515
L66853 63459
L67021 63459
L67134 63515
" />
<path d="M67584 64696
L67640 64640
L67753 64471
L67809 64359
L67865 64190
L67921 63909
L67921 63684
L67865 63403
L67809 63234
L67753 63122
L67640 62953
L67584 62897
" />
<path d="M69721 64696
L69665 64640
L69552 64471
L69496 64359
L69440 64190
L69384 63909
L69384 63684
L69440 63403
L69496 63234
L69552 63122
L69665 62953
L69721 62897
" />
<path d="M70171 63459
L70171 64246
" />
<path d="M70171 63571
L70227 63515
L70340 63459
L70508 63459
L70621 63515
L70677 63628
L70677 64246
" />
<path d="M71408 64246
L71296 64190
L71240 64134
L71183 64021
L71183 63684
L71240 63571
L71296 63515
L71408 63459
L71577 63459
L71690 63515
L71746 63571
L71802 63684
L71802 64021
L71746 64134
L71690 64190
L71577 64246
L71408 64246
" />
<path d="M72140 63459
L72589 63459
" />
<path d="M72308 63065
L72308 64078
L72365 64190
L72477 64246
L72589 64246
" />
<path d="M73883 63459
L73883 64640
" />
<path d="M73883 63515
L73996 63459
L74221 63459
L74333 63515
L74389 63571
L74446 63684
L74446 64021
L74389 64134
L74333 64190
L74221 64246
L73996 64246
L73883 64190
" />
<path d="M75120 64246
L75008 64190
L74952 64078
L74952 63065
" />
<path d="M76077 64246
L76077 63628
L76020 63515
L75908 63459
L75683 63459
L75570 63515
" />
<path d="M76077 64190
L75964 64246
L75683 64246
L75570 64190
L75514 64078
L75514 63965
L75570 63853
L75683 63796
L75964 63796
L76077 63740
" />
<path d="M76470 63459
L76920 63459
" />
<path d="M76639 63065
L76639 64078
L76695 64190
L76808 64246
L76920 64246
" />
<path d="M77764 64190
L77651 64246
L77426 64246
L77314 64190
L77258 64078
L77258 63628
L77314 63515
L77426 63459
L77651 63459
L77764 63515
L77820 63628
L77820 63740
L77258 63853
" />
<path d="M78832 64246
L78832 63065
" />
<path d="M78832 64190
L78720 64246
L78495 64246
L78383 64190
L78326 64134
L78270 64021
L78270 63684
L78326 63571
L78383 63515
L78495 63459
L78720 63459
L78832 63515
" />
<path d="M79282 64696
L79339 64640
L79451 64471
L79507 64359
L79564 64190
L79620 63909
L79620 63684
L79564 63403
L79507 63234
L79451 63122
L79339 62953
L79282 62897
" />
<path d="M40846 64641
L42106 65901
" />
<path d="M42106 64641
L40846 65901
" />
<circle cx="41476.4" cy="65271.7" r="629.921" /> 
<path d="M43062 64624
L43793 64624
L43399 65074
L43568 65074
L43681 65131
L43737 65187
L43793 65299
L43793 65580
L43737 65693
L43681 65749
L43568 65805
L43231 65805
L43118 65749
L43062 65693
" />
<path d="M44299 65693
L44356 65749
L44299 65805
L44243 65749
L44299 65693
L44299 65805
" />
<path d="M44805 64737
L44862 64681
L44974 64624
L45255 64624
L45368 64681
L45424 64737
L45480 64849
L45480 64962
L45424 65131
L44749 65805
L45480 65805
" />
<path d="M46212 64624
L46324 64624
L46437 64681
L46493 64737
L46549 64849
L46605 65074
L46605 65356
L46549 65580
L46493 65693
L46437 65749
L46324 65805
L46212 65805
L46099 65749
L46043 65693
L45987 65580
L45930 65356
L45930 65074
L45987 64849
L46043 64737
L46099 64681
L46212 64624
" />
<path d="M47111 65805
L47111 65018
" />
<path d="M47111 65131
L47168 65074
L47280 65018
L47449 65018
L47561 65074
L47618 65187
L47618 65805
" />
<path d="M47618 65187
L47674 65074
L47786 65018
L47955 65018
L48068 65074
L48124 65187
L48124 65805
" />
<path d="M48686 65805
L48686 65018
" />
<path d="M48686 65131
L48742 65074
L48855 65018
L49024 65018
L49136 65074
L49192 65187
L49192 65805
" />
<path d="M49192 65187
L49249 65074
L49361 65018
L49530 65018
L49642 65074
L49699 65187
L49699 65805
" />
<path d="M52005 64568
L50992 66087
" />
<path d="M53523 64624
L53636 64624
L53748 64681
L53804 64737
L53861 64849
L53917 65074
L53917 65356
L53861 65580
L53804 65693
L53748 65749
L53636 65805
L53523 65805
L53411 65749
L53354 65693
L53298 65580
L53242 65356
L53242 65074
L53298 64849
L53354 64737
L53411 64681
L53523 64624
" />
<path d="M54423 65693
L54479 65749
L54423 65805
L54367 65749
L54423 65693
L54423 65805
" />
<path d="M55604 65805
L54929 65805
" />
<path d="M55267 65805
L55267 64624
L55154 64793
L55042 64906
L54929 64962
" />
<path d="M56054 64737
L56110 64681
L56223 64624
L56504 64624
L56616 64681
L56673 64737
L56729 64849
L56729 64962
L56673 65131
L55998 65805
L56729 65805
" />
<path d="M57741 64624
L57516 64624
L57404 64681
L57348 64737
L57235 64906
L57179 65131
L57179 65580
L57235 65693
L57291 65749
L57404 65805
L57629 65805
L57741 65749
L57798 65693
L57854 65580
L57854 65299
L57798 65187
L57741 65131
L57629 65074
L57404 65074
L57291 65131
L57235 65187
L57179 65299
" />
<path d="M58304 64624
L58304 64849
" />
<path d="M58754 64624
L58754 64849
" />
<path d="M60497 66255
L60441 66199
L60329 66030
L60272 65918
L60216 65749
L60160 65468
L60160 65243
L60216 64962
L60272 64793
L60329 64681
L60441 64512
L60497 64456
" />
<path d="M61453 65018
L61453 65805
" />
<path d="M61172 64568
L60891 65412
L61622 65412
" />
<path d="M62972 65805
L62972 64624
" />
<path d="M63478 65805
L63478 65187
L63422 65074
L63309 65018
L63141 65018
L63028 65074
L62972 65131
" />
<path d="M64209 65805
L64097 65749
L64041 65693
L63984 65580
L63984 65243
L64041 65131
L64097 65074
L64209 65018
L64378 65018
L64491 65074
L64547 65131
L64603 65243
L64603 65580
L64547 65693
L64491 65749
L64378 65805
L64209 65805
" />
<path d="M65278 65805
L65165 65749
L65109 65637
L65109 64624
" />
<path d="M66178 65749
L66065 65805
L65840 65805
L65728 65749
L65672 65637
L65672 65187
L65728 65074
L65840 65018
L66065 65018
L66178 65074
L66234 65187
L66234 65299
L65672 65412
" />
<path d="M66684 65749
L66796 65805
L67021 65805
L67134 65749
L67190 65637
L67190 65580
L67134 65468
L67021 65412
L66853 65412
L66740 65356
L66684 65243
L66684 65187
L66740 65074
L66853 65018
L67021 65018
L67134 65074
" />
<path d="M67584 66255
L67640 66199
L67753 66030
L67809 65918
L67865 65749
L67921 65468
L67921 65243
L67865 64962
L67809 64793
L67753 64681
L67640 64512
L67584 64456
" />
<path d="M69721 66255
L69665 66199
L69552 66030
L69496 65918
L69440 65749
L69384 65468
L69384 65243
L69440 64962
L69496 64793
L69552 64681
L69665 64512
L69721 64456
" />
<path d="M70171 65018
L70171 65805
" />
<path d="M70171 65131
L70227 65074
L70340 65018
L70508 65018
L70621 65074
L70677 65187
L70677 65805
" />
<path d="M71408 65805
L71296 65749
L71240 65693
L71183 65580
L71183 65243
L71240 65131
L71296 65074
L71408 65018
L71577 65018
L71690 65074
L71746 65131
L71802 65243
L71802 65580
L71746 65693
L71690 65749
L71577 65805
L71408 65805
" />
<path d="M72140 65018
L72589 65018
" />
<path d="M72308 64624
L72308 65637
L72365 65749
L72477 65805
L72589 65805
" />
<path d="M73883 65018
L73883 66199
" />
<path d="M73883 65074
L73996 65018
L74221 65018
L74333 65074
L74389 65131
L74446 65243
L74446 65580
L74389 65693
L74333 65749
L74221 65805
L73996 65805
L73883 65749
" />
<path d="M75120 65805
L75008 65749
L74952 65637
L74952 64624
" />
<path d="M76077 65805
L76077 65187
L76020 65074
L75908 65018
L75683 65018
L75570 65074
" />
<path d="M76077 65749
L75964 65805
L75683 65805
L75570 65749
L75514 65637
L75514 65524
L75570 65412
L75683 65356
L75964 65356
L76077 65299
" />
<path d="M76470 65018
L76920 65018
" />
<path d="M76639 64624
L76639 65637
L76695 65749
L76808 65805
L76920 65805
" />
<path d="M77764 65749
L77651 65805
L77426 65805
L77314 65749
L77258 65637
L77258 65187
L77314 65074
L77426 65018
L77651 65018
L77764 65074
L77820 65187
L77820 65299
L77258 65412
" />
<path d="M78832 65805
L78832 64624
" />
<path d="M78832 65749
L78720 65805
L78495 65805
L78383 65749
L78326 65693
L78270 65580
L78270 65243
L78326 65131
L78383 65074
L78495 65018
L78720 65018
L78832 65074
" />
<path d="M79282 66255
L79339 66199
L79451 66030
L79507 65918
L79564 65749
L79620 65468
L79620 65243
L79564 64962
L79507 64793
L79451 64681
L79339 64512
L79282 64456
" />
</g> 
</svg>
