M48
;DRILL file {KiCad 4.0.2-stable} date 25/05/2016 09:42:33
;FORMAT={-:-/ absolute / metric / decimal}
FMAT,2
METRIC,TZ
T1C0.500
T2C0.800
T3C1.000
T4C3.000
T5C2.000
T6C3.200
%
G90
G05
M71
T1
X1.651Y64.643
X1.778Y33.655
X1.778Y30.988
X1.966Y98.027
X2.032Y56.388
X2.032Y53.848
X2.032Y9.779
X2.413Y81.28
X2.413Y76.835
X2.413Y72.517
X2.413Y69.088
X2.413Y29.21
X2.54Y50.165
X6.731Y66.04
X7.493Y10.541
X8.128Y54.737
X8.382Y44.196
X8.382Y41.656
X8.382Y23.114
X8.382Y20.574
X8.509Y33.655
X8.509Y31.115
X8.868Y95.615
X8.89Y87.884
X8.89Y80.772
X9.144Y2.794
X11.176Y87.884
X11.43Y3.683
X13.462Y49.403
X13.694Y98.473
X13.948Y46.974
X14.097Y53.467
X14.519Y15.224
X15.027Y46.974
X15.43Y66.23
X16.256Y23.114
X16.383Y20.383
X17.209Y40.64
X17.272Y9.652
X17.653Y33.274
X17.885Y98.409
X18.669Y92.456
X18.796Y47.244
X19.621Y38.354
X19.685Y92.456
X19.79Y16.367
X19.812Y9.652
X19.875Y41.148
X20.679Y98.409
X20.701Y92.456
X20.955Y62.865
X21.086Y96.476
X21.463Y72.517
X21.463Y70.104
X21.463Y66.929
X21.463Y29.21
X21.59Y92.456
X21.971Y31.75
X22.479Y92.456
X22.52Y98.409
X23.495Y56.642
X23.495Y46.99
X23.6Y14.082
X23.6Y11.795
X24.384Y21.59
X24.638Y89.408
X24.765Y53.467
X24.892Y24.13
X25.019Y60.833
X25.146Y84.074
X25.146Y26.543
X25.4Y77.216
X25.527Y68.326
X25.654Y21.59
X25.908Y42.545
X26.098Y40.513
X26.162Y81.407
X26.924Y34.036
X27.432Y81.407
X28.321Y53.467
X28.702Y40.513
X28.956Y77.216
X28.956Y42.545
X29.972Y76.2
X29.972Y2.794
X30.353Y47.371
X30.48Y21.59
X30.988Y58.293
X30.988Y40.216
X31.242Y91.44
X31.496Y83.693
X32.385Y3.683
X33.528Y87.503
X33.655Y91.44
X34.163Y29.337
X34.163Y27.94
X36.322Y92.71
X36.322Y30.48
X36.576Y23.495
X36.83Y20.066
X36.957Y44.577
X37.274Y53.53
X37.719Y39.179
X38.1Y78.232
X38.1Y76.962
X38.1Y75.438
X38.227Y9.652
X38.231Y17.5
X38.231Y15.239
X38.481Y65.278
X38.862Y81.153
X38.994Y20.508
X39.56Y31.941
X39.56Y30.416
X40.132Y42.545
X40.132Y23.544
X40.767Y9.652
X40.771Y15.239
X41.148Y64.262
X41.529Y58.039
X42.164Y31.013
X43.116Y69.215
X43.116Y39.814
X44.196Y62.738
X44.196Y39.116
X44.704Y67.056
X44.767Y96.584
X44.885Y30.987
X44.958Y26.035
X45.339Y20.256
X45.466Y29.591
X46.355Y97.599
X46.355Y96.584
X46.355Y59.563
X46.736Y69.342
X46.736Y61.976
X46.99Y13.208
X47.117Y54.356
X47.688Y33.972
X47.752Y76.073
X47.752Y74.422
X47.752Y72.898
X47.752Y71.374
X48.006Y98.044
X48.514Y62.484
X48.746Y35.436
X48.768Y2.794
X48.831Y44.005
X48.831Y41.656
X48.895Y46.863
X48.959Y20.193
X49.784Y38.608
X49.847Y17.335
X49.965Y23.392
X50.013Y25.679
X50.038Y36.449
X50.863Y20.32
X50.927Y2.794
X51.181Y35.306
X51.244Y49.022
X51.816Y27.432
X53.34Y32.893
X53.34Y3.683
X53.572Y38.402
X53.594Y98.234
X53.911Y59.627
X53.911Y56.451
X53.911Y53.213
X54.038Y78.232
X54.038Y42.418
X54.224Y31.862
X54.229Y75.629
X55.281Y25.69
X55.308Y49.721
X55.372Y68.707
X55.626Y74.168
X55.626Y71.628
X56.007Y30.988
X56.197Y98.552
X56.388Y90.043
X56.388Y88.456
X56.515Y15.24
X56.625Y35.142
X56.642Y59.69
X56.642Y53.149
X57.255Y42.315
X57.594Y80.2
X57.658Y64.262
X57.752Y31.049
X58.356Y97.599
X58.356Y96.52
X58.928Y23.368
X59.118Y74.612
X59.182Y60.452
X59.186Y15.239
X59.236Y9.549
X59.274Y18.477
X60.134Y38.417
X60.706Y73.66
X60.706Y32.766
X60.706Y30.988
X60.96Y58.928
X61.522Y17.728
X61.7Y9.549
X61.973Y66.658
X63.373Y64.303
X63.754Y32.766
X63.754Y31.242
X64.135Y37.211
X64.139Y9.575
X64.77Y70.167
X64.77Y59.641
X65.087Y56.642
X65.18Y94.36
X66.167Y64.264
X67.056Y23.368
X67.056Y21.082
X67.31Y45.339
X67.466Y15.442
X67.501Y34.671
X67.501Y32.385
X67.501Y30.861
X67.564Y70.421
X67.882Y53.34
X67.882Y51.752
X68.761Y12.064
X68.961Y64.322
X68.961Y40.45
X69.85Y2.794
X70.294Y87.566
X70.358Y66.675
X70.387Y70.42
X71.374Y85.873
X71.438Y44.323
X71.755Y64.322
X72.009Y2.794
X72.072Y47.307
X72.39Y36.131
X73.66Y70.612
X74.041Y27.686
X74.295Y3.81
X74.422Y85.852
X74.549Y64.342
X75.184Y31.877
X75.946Y59.641
X75.946Y57.785
X76.073Y70.548
X76.454Y17.906
X76.644Y45.529
X76.915Y15.569
X77.343Y64.322
X77.343Y42.926
X78.483Y57.133
X78.486Y40.386
X78.613Y31.115
X78.994Y21.082
X79.184Y49.276
X80.191Y9.499
X80.264Y21.082
X80.454Y52.133
X80.877Y37.64
X81.09Y79.692
X81.471Y73.406
X81.471Y68.77
X82.63Y17.601
X82.681Y15.239
X82.706Y9.499
X82.833Y46.798
X82.833Y44.195
X82.96Y39.369
X83.214Y22.732
X83.563Y53.196
X84.582Y28.956
X84.582Y27.94
X85.094Y9.499
X85.344Y26.162
X85.348Y67.334
X85.373Y69.785
X85.373Y68.642
X85.602Y23.113
X86.614Y50.038
X86.739Y15.667
X88.003Y74.625
X88.739Y13.778
X88.9Y47.498
X89.154Y31.75
X89.154Y30.226
X90.678Y3.175
X91.186Y12.319
X91.24Y67.182
X91.278Y44.195
X91.278Y41.591
X91.532Y25.589
X91.532Y23.113
X91.532Y20.509
X92.358Y65.658
X92.409Y70.738
X92.456Y8.382
X92.79Y76.326
X97.155Y35.56
X97.155Y14.605
X98.044Y52.324
X98.171Y12.446
X98.171Y8.763
X98.251Y76.644
X98.298Y70.612
X98.298Y61.722
X98.298Y33.401
X98.298Y31.242
T2
X1.778Y88.9
X1.778Y84.836
X5.4Y89.8
X6.604Y85.344
X9.122Y98.155
X12.4Y85.3
X19.396Y88.581
X21.082Y80.772
X22.606Y90.551
X23.582Y80.772
X26.674Y94.995
X26.674Y92.495
X27.156Y8.747
X29.464Y89.408
X29.718Y81.28
X32.319Y97.9
X34.417Y34.163
X36.51Y28.558
X40.359Y51.054
X41.113Y92.518
X45.212Y88.352
X45.212Y85.852
X45.239Y51.054
X46.99Y46.482
X47.056Y20.32
X48.3Y57.658
X50.8Y96.754
X50.8Y94.254
X50.8Y64.262
X50.8Y62.865
X50.8Y57.658
X50.88Y46.735
X54.122Y61.468
X54.229Y18.796
X56.622Y61.468
X57.678Y85.598
X58.444Y48.006
X59.944Y67.818
X60.178Y85.598
X60.944Y48.006
X62.992Y50.292
X63.754Y34.798
X63.754Y29.276
X65.466Y98.027
X65.498Y83.629
X67.466Y56.641
X70.387Y56.641
X72.136Y42.164
X73.181Y56.641
X77.023Y98.027
X78.74Y86.086
X78.74Y83.586
X80.264Y53.848
X84.836Y36.322
X84.836Y34.227
X85.344Y83.312
X85.805Y76.631
X87.376Y83.312
X87.564Y98.027
X90.072Y55.396
X92.51Y56.819
X93.374Y72.364
X94.593Y74.345
X97.959Y91.452
X97.971Y85.229
T3
X3.81Y48.006
X3.81Y45.466
X3.81Y42.926
X3.81Y40.386
X3.81Y37.846
X3.81Y26.924
X3.81Y24.384
X3.81Y21.844
X3.81Y19.304
X3.81Y16.764
X5.715Y77.804
X6.35Y48.006
X6.35Y45.466
X6.35Y42.926
X6.35Y40.386
X6.35Y37.846
X6.35Y26.924
X6.35Y24.384
X6.35Y21.844
X6.35Y19.304
X6.35Y16.764
X6.604Y70.612
X6.604Y68.072
X6.604Y61.214
X6.604Y58.674
X9.144Y70.612
X9.144Y68.072
X9.144Y61.214
X9.144Y58.674
X10.795Y45.466
X10.795Y42.926
X10.795Y40.386
X10.795Y24.384
X10.795Y21.844
X10.795Y19.304
X11.684Y70.612
X11.684Y68.072
X11.684Y61.214
X11.684Y58.674
X11.684Y14.478
X12.446Y32.258
X13.462Y7.62
X13.462Y5.08
X14.224Y70.612
X14.224Y68.072
X14.224Y61.214
X14.224Y58.674
X16.002Y12.065
X16.002Y7.62
X16.002Y5.08
X16.764Y70.612
X16.764Y68.072
X16.764Y61.214
X16.764Y58.674
X17.78Y51.562
X17.78Y49.022
X18.542Y12.065
X18.542Y7.62
X18.542Y5.08
X19.304Y70.612
X19.304Y68.072
X19.304Y61.214
X19.304Y58.674
X20.32Y51.562
X20.32Y49.022
X21.082Y12.065
X21.082Y7.62
X21.082Y5.08
X21.336Y36.068
X22.86Y51.562
X22.86Y49.022
X23.622Y7.62
X23.622Y5.08
X23.876Y36.068
X25.4Y51.562
X25.4Y49.022
X27.178Y71.628
X27.178Y64.008
X27.94Y51.562
X27.94Y49.022
X29.718Y71.628
X29.718Y64.008
X32.258Y71.628
X32.258Y64.008
X33.782Y82.55
X33.782Y80.01
X34.417Y7.62
X34.417Y5.08
X34.798Y71.628
X34.798Y64.008
X36.957Y12.065
X36.957Y7.62
X36.957Y5.08
X38.1Y70.866
X38.481Y63.246
X38.481Y60.706
X38.481Y58.166
X39.497Y12.065
X39.497Y7.62
X39.497Y5.08
X42.037Y12.065
X42.037Y7.62
X42.037Y5.08
X44.577Y7.62
X44.577Y5.08
X49.784Y13.462
X55.372Y7.62
X55.372Y5.08
X57.912Y12.065
X57.912Y7.62
X57.912Y5.08
X60.452Y12.065
X60.452Y7.62
X60.452Y5.08
X62.992Y12.065
X62.992Y7.62
X62.992Y5.08
X64.77Y74.93
X64.77Y72.39
X65.532Y7.62
X65.532Y5.08
X67.31Y81.28
X67.31Y78.74
X67.31Y74.93
X67.31Y72.39
X69.85Y74.93
X69.85Y72.39
X70.057Y92.072
X72.39Y74.93
X72.39Y72.39
X72.597Y92.072
X74.93Y81.28
X74.93Y78.74
X74.93Y74.93
X74.93Y72.39
X75.137Y92.072
X76.327Y7.62
X76.327Y5.08
X77.47Y74.93
X77.47Y72.39
X78.867Y12.065
X78.867Y7.62
X78.867Y5.08
X81.407Y12.065
X81.407Y7.62
X81.407Y5.08
X82.757Y92.1
X83.947Y12.065
X83.947Y7.62
X83.947Y5.08
X84.201Y60.833
X84.201Y58.293
X84.201Y55.753
X85.297Y92.1
X86.487Y7.62
X86.487Y5.08
X87.681Y78.994
X87.837Y92.1
X87.884Y34.544
X88.773Y24.384
X88.773Y21.844
X88.773Y19.304
X88.9Y45.466
X88.9Y42.926
X88.9Y40.386
X90.221Y78.994
X93.472Y48.006
X93.472Y45.466
X93.472Y42.926
X93.472Y40.386
X93.472Y37.846
X93.472Y26.924
X93.472Y24.384
X93.472Y21.844
X93.472Y19.304
X93.472Y16.764
X94.107Y78.994
X96.012Y48.006
X96.012Y45.466
X96.012Y42.926
X96.012Y40.386
X96.012Y37.846
X96.012Y26.924
X96.012Y24.384
X96.012Y21.844
X96.012Y19.304
X96.012Y16.764
X96.647Y78.994
T4
X50.021Y30.958
T5
X67.997Y89.972
X72.597Y95.972
X77.197Y89.972
X80.697Y90.
X85.297Y96.
X89.897Y90.
T6
X5.Y95.
X5.Y4.999
X95.Y95.
X95.Y5.
T3
X5.715Y80.209G85X5.715Y81.749
G05
T0
M30
