G04 #@! TF.FileFunction,Soldermask,Top*
%FSLAX46Y46*%
G04 Gerber Fmt 4.6, Leading zero omitted, Abs format (unit mm)*
G04 Created by KiCad (PCBNEW 4.0.2-stable) date 25/05/2016 09:45:10*
%MOMM*%
G01*
G04 APERTURE LIST*
%ADD10C,0.150000*%
%ADD11C,1.500000*%
%ADD12C,0.100000*%
%ADD13C,1.600000*%
%ADD14R,0.900000X1.300000*%
%ADD15O,1.524000X3.810000*%
%ADD16C,1.500000*%
%ADD17R,2.500000X1.700000*%
%ADD18R,0.900000X0.900000*%
%ADD19R,3.600000X2.000000*%
%ADD20R,1.200000X2.000000*%
%ADD21R,1.100000X1.700000*%
%ADD22R,1.400000X2.100000*%
%ADD23R,1.300000X0.900000*%
%ADD24R,2.200000X0.600000*%
%ADD25C,1.700000*%
%ADD26R,1.000000X1.000000*%
%ADD27O,1.600000X3.200000*%
%ADD28C,1.800000*%
%ADD29C,2.000000*%
%ADD30R,2.400000X4.200000*%
%ADD31R,1.200000X0.650000*%
%ADD32C,6.200000*%
%ADD33R,2.000000X3.600000*%
%ADD34R,2.000000X1.200000*%
%ADD35C,3.000000*%
%ADD36C,0.254000*%
G04 APERTURE END LIST*
D10*
D11*
X48884814Y49401048D02*
G75*
G03X48768000Y52832000I-1894814J1652952D01*
G01*
D12*
X100000000Y100000000D02*
X100000000Y0D01*
X0Y100000000D02*
X100000000Y100000000D01*
X0Y0D02*
X0Y100000000D01*
X15000000Y0D02*
X0Y0D01*
X100000000Y0D02*
X15000000Y0D01*
D10*
G36*
X57371588Y32527258D02*
X57548364Y32350482D01*
X56487704Y31289822D01*
X56310928Y31466598D01*
X57371588Y32527258D01*
X57371588Y32527258D01*
G37*
G36*
X57018035Y32880811D02*
X57194811Y32704035D01*
X56134151Y31643375D01*
X55957375Y31820151D01*
X57018035Y32880811D01*
X57018035Y32880811D01*
G37*
G36*
X56664482Y33234365D02*
X56841258Y33057589D01*
X55780598Y31996929D01*
X55603822Y32173705D01*
X56664482Y33234365D01*
X56664482Y33234365D01*
G37*
G36*
X56310928Y33587918D02*
X56487704Y33411142D01*
X55427044Y32350482D01*
X55250268Y32527258D01*
X56310928Y33587918D01*
X56310928Y33587918D01*
G37*
G36*
X55957375Y33941471D02*
X56134151Y33764695D01*
X55073491Y32704035D01*
X54896715Y32880811D01*
X55957375Y33941471D01*
X55957375Y33941471D01*
G37*
G36*
X55603822Y34295025D02*
X55780598Y34118249D01*
X54719938Y33057589D01*
X54543162Y33234365D01*
X55603822Y34295025D01*
X55603822Y34295025D01*
G37*
G36*
X55250268Y34648578D02*
X55427044Y34471802D01*
X54366384Y33411142D01*
X54189608Y33587918D01*
X55250268Y34648578D01*
X55250268Y34648578D01*
G37*
G36*
X54896715Y35002132D02*
X55073491Y34825356D01*
X54012831Y33764696D01*
X53836055Y33941472D01*
X54896715Y35002132D01*
X54896715Y35002132D01*
G37*
G36*
X54543161Y35355685D02*
X54719937Y35178909D01*
X53659277Y34118249D01*
X53482501Y34295025D01*
X54543161Y35355685D01*
X54543161Y35355685D01*
G37*
G36*
X54189608Y35709238D02*
X54366384Y35532462D01*
X53305724Y34471802D01*
X53128948Y34648578D01*
X54189608Y35709238D01*
X54189608Y35709238D01*
G37*
G36*
X53836055Y36062792D02*
X54012831Y35886016D01*
X52952171Y34825356D01*
X52775395Y35002132D01*
X53836055Y36062792D01*
X53836055Y36062792D01*
G37*
G36*
X53482501Y36416345D02*
X53659277Y36239569D01*
X52598617Y35178909D01*
X52421841Y35355685D01*
X53482501Y36416345D01*
X53482501Y36416345D01*
G37*
G36*
X53128948Y36769899D02*
X53305724Y36593123D01*
X52245064Y35532463D01*
X52068288Y35709239D01*
X53128948Y36769899D01*
X53128948Y36769899D01*
G37*
G36*
X52775394Y37123452D02*
X52952170Y36946676D01*
X51891510Y35886016D01*
X51714734Y36062792D01*
X52775394Y37123452D01*
X52775394Y37123452D01*
G37*
G36*
X52421841Y37477005D02*
X52598617Y37300229D01*
X51537957Y36239569D01*
X51361181Y36416345D01*
X52421841Y37477005D01*
X52421841Y37477005D01*
G37*
G36*
X52068288Y37830559D02*
X52245064Y37653783D01*
X51184404Y36593123D01*
X51007628Y36769899D01*
X52068288Y37830559D01*
X52068288Y37830559D01*
G37*
G36*
X51714734Y38184112D02*
X51891510Y38007336D01*
X50830850Y36946676D01*
X50654074Y37123452D01*
X51714734Y38184112D01*
X51714734Y38184112D01*
G37*
G36*
X51361181Y38537665D02*
X51537957Y38360889D01*
X50477297Y37300229D01*
X50300521Y37477005D01*
X51361181Y38537665D01*
X51361181Y38537665D01*
G37*
G36*
X48638819Y38537665D02*
X49699479Y37477005D01*
X49522703Y37300229D01*
X48462043Y38360889D01*
X48638819Y38537665D01*
X48638819Y38537665D01*
G37*
G36*
X48285266Y38184112D02*
X49345926Y37123452D01*
X49169150Y36946676D01*
X48108490Y38007336D01*
X48285266Y38184112D01*
X48285266Y38184112D01*
G37*
G36*
X47931712Y37830559D02*
X48992372Y36769899D01*
X48815596Y36593123D01*
X47754936Y37653783D01*
X47931712Y37830559D01*
X47931712Y37830559D01*
G37*
G36*
X47578159Y37477005D02*
X48638819Y36416345D01*
X48462043Y36239569D01*
X47401383Y37300229D01*
X47578159Y37477005D01*
X47578159Y37477005D01*
G37*
G36*
X47224606Y37123452D02*
X48285266Y36062792D01*
X48108490Y35886016D01*
X47047830Y36946676D01*
X47224606Y37123452D01*
X47224606Y37123452D01*
G37*
G36*
X46871052Y36769899D02*
X47931712Y35709239D01*
X47754936Y35532463D01*
X46694276Y36593123D01*
X46871052Y36769899D01*
X46871052Y36769899D01*
G37*
G36*
X46517499Y36416345D02*
X47578159Y35355685D01*
X47401383Y35178909D01*
X46340723Y36239569D01*
X46517499Y36416345D01*
X46517499Y36416345D01*
G37*
G36*
X46163945Y36062792D02*
X47224605Y35002132D01*
X47047829Y34825356D01*
X45987169Y35886016D01*
X46163945Y36062792D01*
X46163945Y36062792D01*
G37*
G36*
X45810392Y35709238D02*
X46871052Y34648578D01*
X46694276Y34471802D01*
X45633616Y35532462D01*
X45810392Y35709238D01*
X45810392Y35709238D01*
G37*
G36*
X45456839Y35355685D02*
X46517499Y34295025D01*
X46340723Y34118249D01*
X45280063Y35178909D01*
X45456839Y35355685D01*
X45456839Y35355685D01*
G37*
G36*
X45103285Y35002132D02*
X46163945Y33941472D01*
X45987169Y33764696D01*
X44926509Y34825356D01*
X45103285Y35002132D01*
X45103285Y35002132D01*
G37*
G36*
X44749732Y34648578D02*
X45810392Y33587918D01*
X45633616Y33411142D01*
X44572956Y34471802D01*
X44749732Y34648578D01*
X44749732Y34648578D01*
G37*
G36*
X44396178Y34295025D02*
X45456838Y33234365D01*
X45280062Y33057589D01*
X44219402Y34118249D01*
X44396178Y34295025D01*
X44396178Y34295025D01*
G37*
G36*
X44042625Y33941471D02*
X45103285Y32880811D01*
X44926509Y32704035D01*
X43865849Y33764695D01*
X44042625Y33941471D01*
X44042625Y33941471D01*
G37*
G36*
X43689072Y33587918D02*
X44749732Y32527258D01*
X44572956Y32350482D01*
X43512296Y33411142D01*
X43689072Y33587918D01*
X43689072Y33587918D01*
G37*
G36*
X43335518Y33234365D02*
X44396178Y32173705D01*
X44219402Y31996929D01*
X43158742Y33057589D01*
X43335518Y33234365D01*
X43335518Y33234365D01*
G37*
G36*
X42981965Y32880811D02*
X44042625Y31820151D01*
X43865849Y31643375D01*
X42805189Y32704035D01*
X42981965Y32880811D01*
X42981965Y32880811D01*
G37*
G36*
X42628412Y32527258D02*
X43689072Y31466598D01*
X43512296Y31289822D01*
X42451636Y32350482D01*
X42628412Y32527258D01*
X42628412Y32527258D01*
G37*
G36*
X43512296Y30688780D02*
X43689072Y30512004D01*
X42628412Y29451344D01*
X42451636Y29628120D01*
X43512296Y30688780D01*
X43512296Y30688780D01*
G37*
G36*
X43865849Y30335227D02*
X44042625Y30158451D01*
X42981965Y29097791D01*
X42805189Y29274567D01*
X43865849Y30335227D01*
X43865849Y30335227D01*
G37*
G36*
X44219402Y29981673D02*
X44396178Y29804897D01*
X43335518Y28744237D01*
X43158742Y28921013D01*
X44219402Y29981673D01*
X44219402Y29981673D01*
G37*
G36*
X44572956Y29628120D02*
X44749732Y29451344D01*
X43689072Y28390684D01*
X43512296Y28567460D01*
X44572956Y29628120D01*
X44572956Y29628120D01*
G37*
G36*
X44926509Y29274567D02*
X45103285Y29097791D01*
X44042625Y28037131D01*
X43865849Y28213907D01*
X44926509Y29274567D01*
X44926509Y29274567D01*
G37*
G36*
X45280062Y28921013D02*
X45456838Y28744237D01*
X44396178Y27683577D01*
X44219402Y27860353D01*
X45280062Y28921013D01*
X45280062Y28921013D01*
G37*
G36*
X45633616Y28567460D02*
X45810392Y28390684D01*
X44749732Y27330024D01*
X44572956Y27506800D01*
X45633616Y28567460D01*
X45633616Y28567460D01*
G37*
G36*
X45987169Y28213906D02*
X46163945Y28037130D01*
X45103285Y26976470D01*
X44926509Y27153246D01*
X45987169Y28213906D01*
X45987169Y28213906D01*
G37*
G36*
X46340723Y27860353D02*
X46517499Y27683577D01*
X45456839Y26622917D01*
X45280063Y26799693D01*
X46340723Y27860353D01*
X46340723Y27860353D01*
G37*
G36*
X46694276Y27506800D02*
X46871052Y27330024D01*
X45810392Y26269364D01*
X45633616Y26446140D01*
X46694276Y27506800D01*
X46694276Y27506800D01*
G37*
G36*
X47047829Y27153246D02*
X47224605Y26976470D01*
X46163945Y25915810D01*
X45987169Y26092586D01*
X47047829Y27153246D01*
X47047829Y27153246D01*
G37*
G36*
X47401383Y26799693D02*
X47578159Y26622917D01*
X46517499Y25562257D01*
X46340723Y25739033D01*
X47401383Y26799693D01*
X47401383Y26799693D01*
G37*
G36*
X47754936Y26446139D02*
X47931712Y26269363D01*
X46871052Y25208703D01*
X46694276Y25385479D01*
X47754936Y26446139D01*
X47754936Y26446139D01*
G37*
G36*
X48108490Y26092586D02*
X48285266Y25915810D01*
X47224606Y24855150D01*
X47047830Y25031926D01*
X48108490Y26092586D01*
X48108490Y26092586D01*
G37*
G36*
X48462043Y25739033D02*
X48638819Y25562257D01*
X47578159Y24501597D01*
X47401383Y24678373D01*
X48462043Y25739033D01*
X48462043Y25739033D01*
G37*
G36*
X48815596Y25385479D02*
X48992372Y25208703D01*
X47931712Y24148043D01*
X47754936Y24324819D01*
X48815596Y25385479D01*
X48815596Y25385479D01*
G37*
G36*
X49169150Y25031926D02*
X49345926Y24855150D01*
X48285266Y23794490D01*
X48108490Y23971266D01*
X49169150Y25031926D01*
X49169150Y25031926D01*
G37*
G36*
X49522703Y24678373D02*
X49699479Y24501597D01*
X48638819Y23440937D01*
X48462043Y23617713D01*
X49522703Y24678373D01*
X49522703Y24678373D01*
G37*
G36*
X50477297Y24678373D02*
X51537957Y23617713D01*
X51361181Y23440937D01*
X50300521Y24501597D01*
X50477297Y24678373D01*
X50477297Y24678373D01*
G37*
G36*
X50830850Y25031926D02*
X51891510Y23971266D01*
X51714734Y23794490D01*
X50654074Y24855150D01*
X50830850Y25031926D01*
X50830850Y25031926D01*
G37*
G36*
X51184404Y25385479D02*
X52245064Y24324819D01*
X52068288Y24148043D01*
X51007628Y25208703D01*
X51184404Y25385479D01*
X51184404Y25385479D01*
G37*
G36*
X51537957Y25739033D02*
X52598617Y24678373D01*
X52421841Y24501597D01*
X51361181Y25562257D01*
X51537957Y25739033D01*
X51537957Y25739033D01*
G37*
G36*
X51891510Y26092586D02*
X52952170Y25031926D01*
X52775394Y24855150D01*
X51714734Y25915810D01*
X51891510Y26092586D01*
X51891510Y26092586D01*
G37*
G36*
X52245064Y26446139D02*
X53305724Y25385479D01*
X53128948Y25208703D01*
X52068288Y26269363D01*
X52245064Y26446139D01*
X52245064Y26446139D01*
G37*
G36*
X52598617Y26799693D02*
X53659277Y25739033D01*
X53482501Y25562257D01*
X52421841Y26622917D01*
X52598617Y26799693D01*
X52598617Y26799693D01*
G37*
G36*
X52952171Y27153246D02*
X54012831Y26092586D01*
X53836055Y25915810D01*
X52775395Y26976470D01*
X52952171Y27153246D01*
X52952171Y27153246D01*
G37*
G36*
X53305724Y27506800D02*
X54366384Y26446140D01*
X54189608Y26269364D01*
X53128948Y27330024D01*
X53305724Y27506800D01*
X53305724Y27506800D01*
G37*
G36*
X53659277Y27860353D02*
X54719937Y26799693D01*
X54543161Y26622917D01*
X53482501Y27683577D01*
X53659277Y27860353D01*
X53659277Y27860353D01*
G37*
G36*
X54012831Y28213906D02*
X55073491Y27153246D01*
X54896715Y26976470D01*
X53836055Y28037130D01*
X54012831Y28213906D01*
X54012831Y28213906D01*
G37*
G36*
X54366384Y28567460D02*
X55427044Y27506800D01*
X55250268Y27330024D01*
X54189608Y28390684D01*
X54366384Y28567460D01*
X54366384Y28567460D01*
G37*
G36*
X54719938Y28921013D02*
X55780598Y27860353D01*
X55603822Y27683577D01*
X54543162Y28744237D01*
X54719938Y28921013D01*
X54719938Y28921013D01*
G37*
G36*
X55073491Y29274567D02*
X56134151Y28213907D01*
X55957375Y28037131D01*
X54896715Y29097791D01*
X55073491Y29274567D01*
X55073491Y29274567D01*
G37*
G36*
X55427044Y29628120D02*
X56487704Y28567460D01*
X56310928Y28390684D01*
X55250268Y29451344D01*
X55427044Y29628120D01*
X55427044Y29628120D01*
G37*
G36*
X55780598Y29981673D02*
X56841258Y28921013D01*
X56664482Y28744237D01*
X55603822Y29804897D01*
X55780598Y29981673D01*
X55780598Y29981673D01*
G37*
G36*
X56134151Y30335227D02*
X57194811Y29274567D01*
X57018035Y29097791D01*
X55957375Y30158451D01*
X56134151Y30335227D01*
X56134151Y30335227D01*
G37*
G36*
X56487704Y30688780D02*
X57548364Y29628120D01*
X57371588Y29451344D01*
X56310928Y30512004D01*
X56487704Y30688780D01*
X56487704Y30688780D01*
G37*
G36*
X50000000Y34736967D02*
X53747666Y30989301D01*
X50000000Y27241635D01*
X46252334Y30989301D01*
X50000000Y34736967D01*
X50000000Y34736967D01*
G37*
D13*
X38481000Y63246000D03*
X38481000Y58166000D03*
X38481000Y60706000D03*
D14*
X75735000Y49276000D03*
X77935000Y49276000D03*
D13*
X27940000Y51562000D03*
X27940000Y49022000D03*
X25400000Y51562000D03*
X25400000Y49022000D03*
X22860000Y51562000D03*
X22860000Y49022000D03*
X20320000Y51562000D03*
X20320000Y49022000D03*
X17780000Y51562000D03*
X17780000Y49022000D03*
X45239000Y51054000D03*
X40359000Y51054000D03*
D15*
X27178000Y64008000D03*
X29718000Y64008000D03*
X32258000Y64008000D03*
X34798000Y64008000D03*
X27178000Y71628000D03*
X29718000Y71628000D03*
X32258000Y71628000D03*
X34798000Y71628000D03*
D16*
X81407000Y12065000D03*
X78867000Y12065000D03*
X83947000Y12065000D03*
X10795000Y45466000D03*
X12446000Y32258000D03*
X10795000Y24384000D03*
X11684000Y14478000D03*
X16002000Y12065000D03*
X49784000Y13462000D03*
X36957000Y12065000D03*
X10795000Y42926000D03*
X10795000Y40386000D03*
X10795000Y21844000D03*
X10795000Y19304000D03*
X18542000Y12065000D03*
X21082000Y12065000D03*
X39497000Y12065000D03*
X42037000Y12065000D03*
X57912000Y12065000D03*
X60452000Y12065000D03*
X62992000Y12065000D03*
X88773000Y19304000D03*
X88773000Y21844000D03*
X88773000Y24384000D03*
X88900000Y40386000D03*
X88900000Y42926000D03*
X88900000Y45466000D03*
X38100000Y70866000D03*
D17*
X19399000Y90551000D03*
X15399000Y90551000D03*
D18*
X53155600Y44195000D03*
X55055600Y44195000D03*
X55121600Y47939000D03*
X55121600Y46039000D03*
X53089600Y47939000D03*
X53089600Y46039000D03*
D10*
G36*
X57748249Y35267853D02*
X57111853Y35904249D01*
X57748249Y36540645D01*
X58384645Y35904249D01*
X57748249Y35267853D01*
X57748249Y35267853D01*
G37*
G36*
X59091751Y36611355D02*
X58455355Y37247751D01*
X59091751Y37884147D01*
X59728147Y37247751D01*
X59091751Y36611355D01*
X59091751Y36611355D01*
G37*
D18*
X50869600Y40639000D03*
X52769600Y40639000D03*
X50869600Y42417000D03*
X52769600Y42417000D03*
X62230000Y34732000D03*
X62230000Y32832000D03*
X65278000Y34732000D03*
X65278000Y32832000D03*
X52766000Y18796000D03*
X50866000Y18796000D03*
X40643600Y28514000D03*
X40643600Y30414000D03*
X38481000Y28514000D03*
X38481000Y30414000D03*
X46929000Y40640000D03*
X48829000Y40640000D03*
X46929000Y42672000D03*
X48829000Y42672000D03*
X46929000Y45212000D03*
X48829000Y45212000D03*
X59182000Y29275000D03*
X59182000Y31175000D03*
X62230000Y29276000D03*
X62230000Y31176000D03*
X65278000Y29276000D03*
X65278000Y31176000D03*
X47056000Y21590000D03*
X48956000Y21590000D03*
X47056000Y18796000D03*
X48956000Y18796000D03*
X47053500Y17015500D03*
X47053500Y15115500D03*
X40643600Y33843000D03*
X40643600Y31943000D03*
X38481000Y33843000D03*
X38481000Y31943000D03*
X36322000Y33843000D03*
X36322000Y31943000D03*
D19*
X38862000Y88392000D03*
D20*
X38862000Y94996000D03*
X36576000Y94996000D03*
X41148000Y94996000D03*
D21*
X28272000Y86614000D03*
X31672000Y86614000D03*
D22*
X40168000Y77606000D03*
X44668000Y77606000D03*
X40168000Y69206000D03*
X44668000Y69206000D03*
D18*
X52766000Y21590000D03*
X50866000Y21590000D03*
D23*
X43691600Y92879000D03*
X43691600Y95079000D03*
D14*
X63838000Y78740000D03*
X61638000Y78740000D03*
X63838000Y81026000D03*
X61638000Y81026000D03*
D23*
X69853600Y81110000D03*
X69853600Y78910000D03*
X72393600Y81110000D03*
X72393600Y78910000D03*
D14*
X59774000Y78740000D03*
X57574000Y78740000D03*
X51986000Y74168000D03*
X54186000Y74168000D03*
X51986000Y71628000D03*
X54186000Y71628000D03*
D23*
X86995000Y60663000D03*
X86995000Y58463000D03*
X85344000Y65743000D03*
X85344000Y63543000D03*
X87503000Y63543000D03*
X87503000Y65743000D03*
X90170000Y68750000D03*
X90170000Y70950000D03*
D14*
X88003200Y76606400D03*
X90203200Y76606400D03*
D23*
X96647000Y69426000D03*
X96647000Y67226000D03*
D14*
X94572000Y67183000D03*
X92372000Y67183000D03*
X94572000Y69037200D03*
X92372000Y69037200D03*
D23*
X33658600Y94996000D03*
X33658600Y92796000D03*
X18034000Y44788000D03*
X18034000Y42588000D03*
X21082000Y44788000D03*
X21082000Y42588000D03*
X24384000Y44788000D03*
X24384000Y42588000D03*
X27432000Y44788000D03*
X27432000Y42588000D03*
X41402000Y43604000D03*
X41402000Y45804000D03*
X42037000Y16340000D03*
X42037000Y14140000D03*
X39497000Y16340000D03*
X39497000Y14140000D03*
X36957000Y16340000D03*
X36957000Y14140000D03*
X34671000Y16340000D03*
X34671000Y14140000D03*
D14*
X31580000Y15240000D03*
X29380000Y15240000D03*
X31580000Y17780000D03*
X29380000Y17780000D03*
X31580000Y20320000D03*
X29380000Y20320000D03*
X31580000Y22860000D03*
X29380000Y22860000D03*
X31580000Y25400000D03*
X29380000Y25400000D03*
X31580000Y27940000D03*
X29380000Y27940000D03*
X31580000Y30480000D03*
X29380000Y30480000D03*
X31580000Y33020000D03*
X29380000Y33020000D03*
X84498000Y40386000D03*
X86698000Y40386000D03*
D23*
X88773000Y15156000D03*
X88773000Y17356000D03*
X78867000Y16340000D03*
X78867000Y14140000D03*
X57912000Y16340000D03*
X57912000Y14140000D03*
D14*
X86698000Y45466000D03*
X84498000Y45466000D03*
X86698000Y42926000D03*
X84498000Y42926000D03*
X86698000Y24384000D03*
X84498000Y24384000D03*
X86698000Y21844000D03*
X84498000Y21844000D03*
D23*
X83947000Y14140000D03*
X83947000Y16340000D03*
X81407000Y14140000D03*
X81407000Y16340000D03*
X62992000Y14140000D03*
X62992000Y16340000D03*
X60452000Y14140000D03*
X60452000Y16340000D03*
D14*
X40343000Y55245000D03*
X38143000Y55245000D03*
X45212000Y55245000D03*
X43012000Y55245000D03*
D23*
X22355600Y96265000D03*
X22355600Y94065000D03*
D14*
X45042000Y64262000D03*
X42842000Y64262000D03*
D23*
X82804000Y81704000D03*
X82804000Y83904000D03*
X27432000Y39200000D03*
X27432000Y37000000D03*
X36068000Y40216000D03*
X36068000Y38016000D03*
X29972000Y39200000D03*
X29972000Y37000000D03*
X32512000Y40216000D03*
X32512000Y38016000D03*
X34290000Y43772000D03*
X34290000Y41572000D03*
X30480000Y44788000D03*
X30480000Y42588000D03*
X63373000Y67775000D03*
X63373000Y65575000D03*
X66167000Y67775000D03*
X66167000Y65575000D03*
X68961000Y67739000D03*
X68961000Y65539000D03*
X71755000Y67739000D03*
X71755000Y65539000D03*
X74549000Y67739000D03*
X74549000Y65539000D03*
X77343000Y67775000D03*
X77343000Y65575000D03*
D10*
G36*
X65771579Y42830634D02*
X66690817Y41911396D01*
X66054421Y41275000D01*
X65135183Y42194238D01*
X65771579Y42830634D01*
X65771579Y42830634D01*
G37*
G36*
X64215945Y41275000D02*
X65135183Y40355762D01*
X64498787Y39719366D01*
X63579549Y40638604D01*
X64215945Y41275000D01*
X64215945Y41275000D01*
G37*
D14*
X23538000Y86614000D03*
X25738000Y86614000D03*
X1821000Y86995000D03*
X4021000Y86995000D03*
X5377000Y86995000D03*
X7577000Y86995000D03*
D23*
X7620000Y88689000D03*
X7620000Y90889000D03*
D14*
X43729000Y60706000D03*
X41529000Y60706000D03*
X45212000Y57785000D03*
X43012000Y57785000D03*
D23*
X43942000Y44302500D03*
X43942000Y46502500D03*
D14*
X49614000Y64262000D03*
X47414000Y64262000D03*
X20744000Y38354000D03*
X22944000Y38354000D03*
D23*
X50800000Y68156000D03*
X50800000Y65956000D03*
X82804000Y85260000D03*
X82804000Y87460000D03*
D14*
X60031600Y90042000D03*
X57831600Y90042000D03*
D23*
X19752100Y96265000D03*
X19752100Y94065000D03*
D14*
X10079600Y90931000D03*
X12279600Y90931000D03*
D23*
X45977600Y92879000D03*
X45977600Y95079000D03*
D14*
X17105600Y84582000D03*
X14905600Y84582000D03*
D23*
X31242000Y94996000D03*
X31242000Y92796000D03*
X38862000Y43604000D03*
X38862000Y45804000D03*
X31496000Y80180000D03*
X31496000Y82380000D03*
X29718000Y58082000D03*
X29718000Y60282000D03*
D14*
X17105600Y87375000D03*
X14905600Y87375000D03*
D23*
X90170000Y72560000D03*
X90170000Y74760000D03*
X96647000Y73744000D03*
X96647000Y71544000D03*
D14*
X94454800Y76352400D03*
X96654800Y76352400D03*
D24*
X90089000Y64643000D03*
X90089000Y63373000D03*
X90089000Y62103000D03*
X90089000Y60833000D03*
X90089000Y59563000D03*
X90089000Y58293000D03*
X90089000Y57023000D03*
X95839000Y64643000D03*
X95839000Y63373000D03*
X95839000Y62103000D03*
X95839000Y60833000D03*
X95839000Y59563000D03*
X95839000Y58293000D03*
X95839000Y57023000D03*
D14*
X77554000Y47244000D03*
X75354000Y47244000D03*
D23*
X80073500Y56431000D03*
X80073500Y58631000D03*
D14*
X77005000Y52133500D03*
X79205000Y52133500D03*
D10*
G36*
X70527332Y46999769D02*
X71093018Y47565455D01*
X71411216Y47247257D01*
X70845530Y46681571D01*
X70527332Y46999769D01*
X70527332Y46999769D01*
G37*
G36*
X70986951Y46540149D02*
X71552637Y47105835D01*
X71870835Y46787637D01*
X71305149Y46221951D01*
X70986951Y46540149D01*
X70986951Y46540149D01*
G37*
G36*
X71446571Y46080530D02*
X72012257Y46646216D01*
X72330455Y46328018D01*
X71764769Y45762332D01*
X71446571Y46080530D01*
X71446571Y46080530D01*
G37*
G36*
X72860784Y47494743D02*
X73426470Y48060429D01*
X73744668Y47742231D01*
X73178982Y47176545D01*
X72860784Y47494743D01*
X72860784Y47494743D01*
G37*
G36*
X72401165Y47954363D02*
X72966851Y48520049D01*
X73285049Y48201851D01*
X72719363Y47636165D01*
X72401165Y47954363D01*
X72401165Y47954363D01*
G37*
G36*
X71941545Y48413982D02*
X72507231Y48979668D01*
X72825429Y48661470D01*
X72259743Y48095784D01*
X71941545Y48413982D01*
X71941545Y48413982D01*
G37*
G36*
X54700249Y39077853D02*
X54063853Y39714249D01*
X54700249Y40350645D01*
X55336645Y39714249D01*
X54700249Y39077853D01*
X54700249Y39077853D01*
G37*
G36*
X56043751Y40421355D02*
X55407355Y41057751D01*
X56043751Y41694147D01*
X56680147Y41057751D01*
X56043751Y40421355D01*
X56043751Y40421355D01*
G37*
D25*
X78740000Y86086000D03*
X78740000Y83586000D03*
X58443600Y48006000D03*
X60943600Y48006000D03*
X50800000Y94254000D03*
X50800000Y96754000D03*
X60178000Y85598000D03*
X57678000Y85598000D03*
X21082000Y80772000D03*
X23582000Y80772000D03*
X50800000Y57658000D03*
X48300000Y57658000D03*
X56622000Y61468000D03*
X54122000Y61468000D03*
X26673600Y94995000D03*
X26673600Y92495000D03*
X45212000Y85852000D03*
X45212000Y88352000D03*
D26*
X54165500Y89584000D03*
X54165500Y86184000D03*
X55372000Y82726000D03*
X55372000Y79326000D03*
X34876000Y97536000D03*
X38276000Y97536000D03*
X39702000Y97536000D03*
X43102000Y97536000D03*
D13*
X5715000Y77804000D03*
D27*
X5715000Y80979000D03*
D13*
X96647000Y78994000D03*
X94107000Y78994000D03*
X90220800Y78994000D03*
X87680800Y78994000D03*
X23876000Y36068000D03*
X21336000Y36068000D03*
X33782000Y80010000D03*
X33782000Y82550000D03*
X67310000Y81280000D03*
X67310000Y78740000D03*
X74930000Y81280000D03*
X74930000Y78740000D03*
X96012000Y37846000D03*
X93472000Y37846000D03*
X96012000Y40386000D03*
X93472000Y40386000D03*
X96012000Y42926000D03*
X93472000Y42926000D03*
X96012000Y45466000D03*
X93472000Y45466000D03*
X96012000Y48006000D03*
X93472000Y48006000D03*
X96012000Y16764000D03*
X93472000Y16764000D03*
X96012000Y19304000D03*
X93472000Y19304000D03*
X96012000Y21844000D03*
X93472000Y21844000D03*
X96012000Y24384000D03*
X93472000Y24384000D03*
X96012000Y26924000D03*
X93472000Y26924000D03*
X76327000Y5080000D03*
X76327000Y7620000D03*
X78867000Y5080000D03*
X78867000Y7620000D03*
X81407000Y5080000D03*
X81407000Y7620000D03*
X83947000Y5080000D03*
X83947000Y7620000D03*
X86487000Y5080000D03*
X86487000Y7620000D03*
X55372000Y5080000D03*
X55372000Y7620000D03*
X57912000Y5080000D03*
X57912000Y7620000D03*
X60452000Y5080000D03*
X60452000Y7620000D03*
X62992000Y5080000D03*
X62992000Y7620000D03*
X65532000Y5080000D03*
X65532000Y7620000D03*
X77470000Y74930000D03*
X77470000Y72390000D03*
X74930000Y74930000D03*
X74930000Y72390000D03*
X72390000Y74930000D03*
X72390000Y72390000D03*
X69850000Y74930000D03*
X69850000Y72390000D03*
X67310000Y74930000D03*
X67310000Y72390000D03*
X64770000Y74930000D03*
X64770000Y72390000D03*
X3810000Y48006000D03*
X6350000Y48006000D03*
X3810000Y45466000D03*
X6350000Y45466000D03*
X3810000Y42926000D03*
X6350000Y42926000D03*
X3810000Y40386000D03*
X6350000Y40386000D03*
X3810000Y37846000D03*
X6350000Y37846000D03*
X3810000Y26924000D03*
X6350000Y26924000D03*
X3810000Y24384000D03*
X6350000Y24384000D03*
X3810000Y21844000D03*
X6350000Y21844000D03*
X3810000Y19304000D03*
X6350000Y19304000D03*
X3810000Y16764000D03*
X6350000Y16764000D03*
X13462000Y5080000D03*
X13462000Y7620000D03*
X16002000Y5080000D03*
X16002000Y7620000D03*
X18542000Y5080000D03*
X18542000Y7620000D03*
X21082000Y5080000D03*
X21082000Y7620000D03*
X23622000Y5080000D03*
X23622000Y7620000D03*
X34417000Y5080000D03*
X34417000Y7620000D03*
X36957000Y5080000D03*
X36957000Y7620000D03*
X39497000Y5080000D03*
X39497000Y7620000D03*
X42037000Y5080000D03*
X42037000Y7620000D03*
X44577000Y5080000D03*
X44577000Y7620000D03*
X84201000Y55753000D03*
X84201000Y60833000D03*
X84201000Y58293000D03*
D28*
X82757000Y92100000D03*
X85297000Y92100000D03*
X87837000Y92100000D03*
D29*
X85297000Y96000000D03*
X80697000Y90000000D03*
X89897000Y90000000D03*
D28*
X70057000Y92072000D03*
X72597000Y92072000D03*
X75137000Y92072000D03*
D29*
X72597000Y95972000D03*
X67997000Y89972000D03*
X77197000Y89972000D03*
D30*
X11366000Y95123000D03*
X16066000Y95123000D03*
D31*
X12439500Y87947500D03*
X10039500Y88897500D03*
X10039500Y87947500D03*
X10039500Y86997500D03*
X12439500Y86997500D03*
X12439500Y88897500D03*
D32*
X5000000Y95000000D03*
X95000000Y95000000D03*
X95000000Y5000000D03*
X5000000Y4999000D03*
D33*
X62805600Y94868000D03*
D34*
X56201600Y94868000D03*
X56201600Y92582000D03*
X56201600Y97154000D03*
D35*
X27000000Y4000000D03*
X90000000Y95000000D03*
D16*
X87884000Y34544000D03*
D13*
X19304000Y61214000D03*
X19304000Y58674000D03*
X16764000Y61214000D03*
X16764000Y58674000D03*
X14224000Y61214000D03*
X14224000Y58674000D03*
X11684000Y61214000D03*
X11684000Y58674000D03*
X9144000Y61214000D03*
X9144000Y58674000D03*
X6604000Y58674000D03*
X6604000Y61214000D03*
X19304000Y70612000D03*
X19304000Y68072000D03*
X16764000Y70612000D03*
X16764000Y68072000D03*
X14224000Y70612000D03*
X14224000Y68072000D03*
X11684000Y70612000D03*
X11684000Y68072000D03*
X9144000Y70612000D03*
X9144000Y68072000D03*
X6604000Y68072000D03*
X6604000Y70612000D03*
D36*
G36*
X9373000Y12627000D02*
X1124486Y12627000D01*
X1079566Y14873000D01*
X9373000Y14873000D01*
X9373000Y12627000D01*
X9373000Y12627000D01*
G37*
X9373000Y12627000D02*
X1124486Y12627000D01*
X1079566Y14873000D01*
X9373000Y14873000D01*
X9373000Y12627000D01*
M02*
