G04 #@! TF.FileFunction,Soldermask,Bot*
%FSLAX46Y46*%
G04 Gerber Fmt 4.6, Leading zero omitted, Abs format (unit mm)*
G04 Created by KiCad (PCBNEW 4.0.2-stable) date 25/05/2016 09:45:10*
%MOMM*%
G01*
G04 APERTURE LIST*
%ADD10C,0.150000*%
%ADD11C,0.100000*%
%ADD12R,2.200000X0.600000*%
%ADD13C,1.600000*%
%ADD14O,1.524000X3.810000*%
%ADD15R,0.900000X1.300000*%
%ADD16C,1.500000*%
%ADD17R,1.000000X1.000000*%
%ADD18R,0.900000X0.900000*%
%ADD19C,1.000000*%
%ADD20R,1.300000X0.900000*%
%ADD21C,2.000000*%
%ADD22R,0.450000X0.800000*%
%ADD23C,1.700000*%
%ADD24O,1.600000X3.200000*%
%ADD25R,2.500000X1.700000*%
%ADD26C,1.800000*%
%ADD27C,6.200000*%
%ADD28C,3.000000*%
%ADD29C,0.254000*%
G04 APERTURE END LIST*
D10*
D11*
X100000000Y100000000D02*
X100000000Y0D01*
X0Y100000000D02*
X100000000Y100000000D01*
X0Y0D02*
X0Y100000000D01*
X15000000Y0D02*
X0Y0D01*
X100000000Y0D02*
X15000000Y0D01*
D12*
X79114000Y26162000D03*
X79114000Y24892000D03*
X79114000Y23622000D03*
X79114000Y22352000D03*
X73914000Y22352000D03*
X73914000Y23622000D03*
X73914000Y24892000D03*
X73914000Y26162000D03*
D13*
X38481000Y63246000D03*
X38481000Y58166000D03*
X38481000Y60706000D03*
D12*
X27552000Y25400000D03*
X27552000Y24130000D03*
X27552000Y22860000D03*
X27552000Y21590000D03*
X22352000Y21590000D03*
X22352000Y22860000D03*
X22352000Y24130000D03*
X22352000Y25400000D03*
D13*
X27940000Y51562000D03*
X27940000Y49022000D03*
X25400000Y51562000D03*
X25400000Y49022000D03*
X22860000Y51562000D03*
X22860000Y49022000D03*
X20320000Y51562000D03*
X20320000Y49022000D03*
X17780000Y51562000D03*
X17780000Y49022000D03*
X45239000Y51054000D03*
X40359000Y51054000D03*
D14*
X27178000Y64008000D03*
X29718000Y64008000D03*
X32258000Y64008000D03*
X34798000Y64008000D03*
X27178000Y71628000D03*
X29718000Y71628000D03*
X32258000Y71628000D03*
X34798000Y71628000D03*
D15*
X43858000Y24638000D03*
X46058000Y24638000D03*
D16*
X81407000Y12065000D03*
X78867000Y12065000D03*
X83947000Y12065000D03*
D17*
X77279000Y59641000D03*
X77279000Y63041000D03*
X77279000Y65737000D03*
X77279000Y69137000D03*
X74549000Y59641000D03*
X74549000Y63041000D03*
X74549000Y65737000D03*
X74549000Y69137000D03*
X71755000Y59641000D03*
X71755000Y63041000D03*
X71755000Y65737000D03*
X71755000Y69137000D03*
X68961000Y59641000D03*
X68961000Y63041000D03*
X68961000Y65737000D03*
X68961000Y69137000D03*
X66167000Y59641000D03*
X66167000Y63041000D03*
X66167000Y65737000D03*
X66167000Y69137000D03*
X63373000Y59641000D03*
X63373000Y63041000D03*
X63373000Y65737000D03*
X63373000Y69137000D03*
D16*
X10795000Y45466000D03*
X12446000Y32258000D03*
X10795000Y24384000D03*
X11684000Y14478000D03*
X16002000Y12065000D03*
X49784000Y13462000D03*
X36957000Y12065000D03*
X10795000Y42926000D03*
X10795000Y40386000D03*
X10795000Y21844000D03*
X10795000Y19304000D03*
X18542000Y12065000D03*
X21082000Y12065000D03*
X39497000Y12065000D03*
X42037000Y12065000D03*
X57912000Y12065000D03*
X60452000Y12065000D03*
X62992000Y12065000D03*
X88773000Y19304000D03*
X88773000Y21844000D03*
X88773000Y24384000D03*
X88900000Y40386000D03*
X88900000Y42926000D03*
X88900000Y45466000D03*
X38100000Y70866000D03*
D18*
X52451000Y40198000D03*
X52451000Y42098000D03*
D19*
X51054000Y26670000D03*
X53086000Y25146000D03*
D12*
X50243000Y75247000D03*
X50243000Y73977000D03*
X50243000Y72707000D03*
X50243000Y71437000D03*
X45043000Y71437000D03*
X45043000Y72707000D03*
X45043000Y73977000D03*
X45043000Y75247000D03*
D15*
X26078000Y89408000D03*
X28278000Y89408000D03*
X32850000Y89408000D03*
X30650000Y89408000D03*
X8806000Y83566000D03*
X11006000Y83566000D03*
D20*
X22355600Y96265000D03*
X22355600Y94065000D03*
D15*
X80942000Y36322000D03*
X83142000Y36322000D03*
X80942000Y34290000D03*
X83142000Y34290000D03*
X64432000Y53340000D03*
X66632000Y53340000D03*
X64432000Y50292000D03*
X66632000Y50292000D03*
X32936000Y37719000D03*
X35136000Y37719000D03*
X32936000Y40259000D03*
X35136000Y40259000D03*
X30226000Y31242000D03*
X28026000Y31242000D03*
X25908000Y31242000D03*
X23708000Y31242000D03*
X81450000Y66802000D03*
X83650000Y66802000D03*
X81450000Y70612000D03*
X83650000Y70612000D03*
X29718000Y79756000D03*
X27518000Y79756000D03*
X29718000Y83058000D03*
X27518000Y83058000D03*
D20*
X27178000Y55034000D03*
X27178000Y57234000D03*
X29718000Y58336000D03*
X29718000Y60536000D03*
X16002000Y16340000D03*
X16002000Y14140000D03*
D15*
X15070000Y24384000D03*
X12870000Y24384000D03*
X15070000Y45466000D03*
X12870000Y45466000D03*
D20*
X18542000Y16340000D03*
X18542000Y14140000D03*
D15*
X15070000Y21844000D03*
X12870000Y21844000D03*
X15048000Y42926000D03*
X12848000Y42926000D03*
D20*
X21082000Y16340000D03*
X21082000Y14140000D03*
D15*
X15070000Y19304000D03*
X12870000Y19304000D03*
X15048000Y40386000D03*
X12848000Y40386000D03*
D20*
X13462000Y11895000D03*
X13462000Y9695000D03*
D15*
X10625000Y26924000D03*
X8425000Y26924000D03*
X10625000Y48006000D03*
X8425000Y48006000D03*
X84498000Y42926000D03*
X86698000Y42926000D03*
X84498000Y21844000D03*
X86698000Y21844000D03*
D20*
X81407000Y16340000D03*
X81407000Y14140000D03*
X60452000Y16340000D03*
X60452000Y14140000D03*
D15*
X84498000Y45466000D03*
X86698000Y45466000D03*
D20*
X88773000Y28786000D03*
X88773000Y26586000D03*
D15*
X88793500Y12065000D03*
X86593500Y12065000D03*
X67444800Y12065000D03*
X65244800Y12065000D03*
X86698000Y40386000D03*
X84498000Y40386000D03*
X91397000Y37846000D03*
X89197000Y37846000D03*
X86698000Y19304000D03*
X84498000Y19304000D03*
X91397000Y16764000D03*
X89197000Y16764000D03*
D20*
X78867000Y14140000D03*
X78867000Y16340000D03*
X76327000Y9695000D03*
X76327000Y11895000D03*
X57912000Y14140000D03*
X57912000Y16340000D03*
X55372000Y9695000D03*
X55372000Y11895000D03*
X57404000Y70020000D03*
X57404000Y72220000D03*
X27178000Y75100000D03*
X27178000Y77300000D03*
D15*
X43434000Y42608500D03*
X41234000Y42608500D03*
D20*
X53848000Y66421000D03*
X53848000Y68621000D03*
X49403000Y81110000D03*
X49403000Y78910000D03*
D15*
X50800000Y60706000D03*
X48600000Y60706000D03*
D20*
X19558000Y27008000D03*
X19558000Y24808000D03*
X17272000Y27008000D03*
X17272000Y24808000D03*
X32004000Y17442000D03*
X32004000Y19642000D03*
X71628000Y31072000D03*
X71628000Y28872000D03*
X69850000Y21252000D03*
X69850000Y23452000D03*
D15*
X24046000Y27940000D03*
X26246000Y27940000D03*
X76370000Y28956000D03*
X78570000Y28956000D03*
X80942000Y31750000D03*
X83142000Y31750000D03*
X30226000Y28448000D03*
X32426000Y28448000D03*
X30226000Y25654000D03*
X32426000Y25654000D03*
X81831000Y26162000D03*
X84031000Y26162000D03*
X80942000Y28956000D03*
X83142000Y28956000D03*
X85260000Y31750000D03*
X87460000Y31750000D03*
D20*
X43307000Y56304000D03*
X43307000Y58504000D03*
D15*
X42926000Y61214000D03*
X45126000Y61214000D03*
X27518000Y67818000D03*
X29718000Y67818000D03*
X39710000Y67564000D03*
X41910000Y67564000D03*
D20*
X36195000Y76200000D03*
X36195000Y78400000D03*
D15*
X33147000Y49149000D03*
X35347000Y49149000D03*
D20*
X82804000Y87292000D03*
X82804000Y89492000D03*
X66040000Y85895000D03*
X66040000Y88095000D03*
D15*
X17356000Y80772000D03*
X15156000Y80772000D03*
X11006000Y86106000D03*
X8806000Y86106000D03*
D20*
X65532000Y42164000D03*
X65532000Y44364000D03*
X32258000Y58336000D03*
X32258000Y60536000D03*
D15*
X24978000Y59436000D03*
X27178000Y59436000D03*
D20*
X59182000Y52748000D03*
X59182000Y54948000D03*
D15*
X45126000Y64262000D03*
X42926000Y64262000D03*
X56048000Y64262000D03*
X53848000Y64262000D03*
X47922000Y66802000D03*
X50122000Y66802000D03*
D20*
X57658000Y74592000D03*
X57658000Y76792000D03*
X54229000Y28158000D03*
X54229000Y30358000D03*
D15*
X47922000Y69342000D03*
X50122000Y69342000D03*
D20*
X59944000Y70020000D03*
X59944000Y72220000D03*
X60706000Y74592000D03*
X60706000Y76792000D03*
D15*
X45001000Y81153000D03*
X47201000Y81153000D03*
D20*
X28956000Y45974000D03*
X28956000Y43774000D03*
X25908000Y45974000D03*
X25908000Y43774000D03*
D15*
X62146000Y85915500D03*
X64346000Y85915500D03*
D20*
X17780000Y75946000D03*
X17780000Y78146000D03*
D15*
X68072000Y42164000D03*
X70272000Y42164000D03*
X61552000Y50292000D03*
X59352000Y50292000D03*
X72474000Y89154000D03*
X70274000Y89154000D03*
D20*
X64770000Y90594000D03*
X64770000Y92794000D03*
D15*
X60031600Y88518000D03*
X57831600Y88518000D03*
D20*
X53594000Y94404000D03*
X53594000Y96604000D03*
X48006000Y94404000D03*
X48006000Y96604000D03*
D15*
X23622000Y77470000D03*
X21422000Y77470000D03*
X23622000Y84074000D03*
X21422000Y84074000D03*
X12784000Y80772000D03*
X10584000Y80772000D03*
X25230000Y73152000D03*
X23030000Y73152000D03*
X65532000Y46736000D03*
X63332000Y46736000D03*
D20*
X59182000Y56812000D03*
X59182000Y59012000D03*
D15*
X33528000Y76200000D03*
X31328000Y76200000D03*
X45001000Y77724000D03*
X47201000Y77724000D03*
X42248000Y75438000D03*
X40048000Y75438000D03*
X50800000Y54356000D03*
X48600000Y54356000D03*
D20*
X31750000Y45974000D03*
X31750000Y43774000D03*
X81915000Y21633000D03*
X81915000Y23833000D03*
X28956000Y17442000D03*
X28956000Y19642000D03*
X73533000Y16807000D03*
X73533000Y19007000D03*
X36957000Y16340000D03*
X36957000Y14140000D03*
X42037000Y16340000D03*
X42037000Y14140000D03*
X34417000Y11895000D03*
X34417000Y9695000D03*
X39497000Y16340000D03*
X39497000Y14140000D03*
X85347600Y87459000D03*
X85347600Y85259000D03*
X87379600Y87459000D03*
X87379600Y85259000D03*
X72898000Y85936000D03*
X72898000Y83736000D03*
X69596000Y85872500D03*
X69596000Y83672500D03*
D21*
X37592000Y67564000D03*
D15*
X42248000Y78105000D03*
X40048000Y78105000D03*
X25230000Y70104000D03*
X23030000Y70104000D03*
D18*
X40132000Y20508000D03*
X40132000Y18608000D03*
X38100000Y21402000D03*
X38100000Y23302000D03*
X42418000Y21402000D03*
X42418000Y23302000D03*
D20*
X35052000Y18542000D03*
X35052000Y20742000D03*
D15*
X46820000Y18542000D03*
X44620000Y18542000D03*
D22*
X39482000Y24368000D03*
X40132000Y24368000D03*
X40782000Y24368000D03*
X40782000Y22368000D03*
X40132000Y22368000D03*
X39482000Y22368000D03*
D15*
X57996000Y44958000D03*
X55796000Y44958000D03*
D20*
X58928000Y66378000D03*
X58928000Y64178000D03*
D15*
X56091000Y54864000D03*
X53891000Y54864000D03*
X56091000Y58166000D03*
X53891000Y58166000D03*
D18*
X55626000Y40198000D03*
X55626000Y42098000D03*
D15*
X47668000Y49022000D03*
X49868000Y49022000D03*
D20*
X46990000Y44323000D03*
X46990000Y42123000D03*
D15*
X62314000Y29210000D03*
X60114000Y29210000D03*
D20*
X65532000Y30142000D03*
X65532000Y32342000D03*
X59182000Y35136000D03*
X59182000Y32936000D03*
D23*
X78740000Y86086000D03*
X78740000Y83586000D03*
X58443600Y48006000D03*
X60943600Y48006000D03*
X50800000Y94254000D03*
X50800000Y96754000D03*
X60178000Y85598000D03*
X57678000Y85598000D03*
X21082000Y80772000D03*
X23582000Y80772000D03*
X50800000Y57658000D03*
X48300000Y57658000D03*
X56622000Y61468000D03*
X54122000Y61468000D03*
X26673600Y94995000D03*
X26673600Y92495000D03*
X45212000Y85852000D03*
X45212000Y88352000D03*
D15*
X3980000Y50165000D03*
X6180000Y50165000D03*
X3980000Y29210000D03*
X6180000Y29210000D03*
D20*
X11430000Y5250000D03*
X11430000Y7450000D03*
X32385000Y5250000D03*
X32385000Y7450000D03*
D15*
X95715000Y35560000D03*
X93515000Y35560000D03*
X95715000Y14605000D03*
X93515000Y14605000D03*
D20*
X74295000Y5250000D03*
X74295000Y7450000D03*
X53340000Y5250000D03*
X53340000Y7450000D03*
X78740000Y34966000D03*
X78740000Y32766000D03*
D15*
X28026000Y34036000D03*
X30226000Y34036000D03*
X42248000Y81153000D03*
X40048000Y81153000D03*
D13*
X5715000Y77804000D03*
D24*
X5715000Y80979000D03*
D25*
X9684000Y75946000D03*
X13684000Y75946000D03*
D13*
X96647000Y78994000D03*
X94107000Y78994000D03*
X90220800Y78994000D03*
X87680800Y78994000D03*
X23876000Y36068000D03*
X21336000Y36068000D03*
X33782000Y80010000D03*
X33782000Y82550000D03*
X67310000Y81280000D03*
X67310000Y78740000D03*
X74930000Y81280000D03*
X74930000Y78740000D03*
X96012000Y37846000D03*
X93472000Y37846000D03*
X96012000Y40386000D03*
X93472000Y40386000D03*
X96012000Y42926000D03*
X93472000Y42926000D03*
X96012000Y45466000D03*
X93472000Y45466000D03*
X96012000Y48006000D03*
X93472000Y48006000D03*
X96012000Y16764000D03*
X93472000Y16764000D03*
X96012000Y19304000D03*
X93472000Y19304000D03*
X96012000Y21844000D03*
X93472000Y21844000D03*
X96012000Y24384000D03*
X93472000Y24384000D03*
X96012000Y26924000D03*
X93472000Y26924000D03*
X76327000Y5080000D03*
X76327000Y7620000D03*
X78867000Y5080000D03*
X78867000Y7620000D03*
X81407000Y5080000D03*
X81407000Y7620000D03*
X83947000Y5080000D03*
X83947000Y7620000D03*
X86487000Y5080000D03*
X86487000Y7620000D03*
X55372000Y5080000D03*
X55372000Y7620000D03*
X57912000Y5080000D03*
X57912000Y7620000D03*
X60452000Y5080000D03*
X60452000Y7620000D03*
X62992000Y5080000D03*
X62992000Y7620000D03*
X65532000Y5080000D03*
X65532000Y7620000D03*
X77470000Y74930000D03*
X77470000Y72390000D03*
X74930000Y74930000D03*
X74930000Y72390000D03*
X72390000Y74930000D03*
X72390000Y72390000D03*
X69850000Y74930000D03*
X69850000Y72390000D03*
X67310000Y74930000D03*
X67310000Y72390000D03*
X64770000Y74930000D03*
X64770000Y72390000D03*
X3810000Y48006000D03*
X6350000Y48006000D03*
X3810000Y45466000D03*
X6350000Y45466000D03*
X3810000Y42926000D03*
X6350000Y42926000D03*
X3810000Y40386000D03*
X6350000Y40386000D03*
X3810000Y37846000D03*
X6350000Y37846000D03*
X3810000Y26924000D03*
X6350000Y26924000D03*
X3810000Y24384000D03*
X6350000Y24384000D03*
X3810000Y21844000D03*
X6350000Y21844000D03*
X3810000Y19304000D03*
X6350000Y19304000D03*
X3810000Y16764000D03*
X6350000Y16764000D03*
X13462000Y5080000D03*
X13462000Y7620000D03*
X16002000Y5080000D03*
X16002000Y7620000D03*
X18542000Y5080000D03*
X18542000Y7620000D03*
X21082000Y5080000D03*
X21082000Y7620000D03*
X23622000Y5080000D03*
X23622000Y7620000D03*
X34417000Y5080000D03*
X34417000Y7620000D03*
X36957000Y5080000D03*
X36957000Y7620000D03*
X39497000Y5080000D03*
X39497000Y7620000D03*
X42037000Y5080000D03*
X42037000Y7620000D03*
X44577000Y5080000D03*
X44577000Y7620000D03*
X84201000Y55753000D03*
X84201000Y60833000D03*
X84201000Y58293000D03*
D26*
X82757000Y92100000D03*
X85297000Y92100000D03*
X87837000Y92100000D03*
D21*
X85297000Y96000000D03*
X80697000Y90000000D03*
X89897000Y90000000D03*
D26*
X70057000Y92072000D03*
X72597000Y92072000D03*
X75137000Y92072000D03*
D21*
X72597000Y95972000D03*
X67997000Y89972000D03*
X77197000Y89972000D03*
D27*
X5000000Y95000000D03*
X95000000Y95000000D03*
X95000000Y5000000D03*
X5000000Y4999000D03*
D28*
X27000000Y4000000D03*
X90000000Y95000000D03*
D15*
X39454000Y33528000D03*
X37254000Y33528000D03*
X39454000Y36068000D03*
X37254000Y36068000D03*
D16*
X87884000Y34544000D03*
D15*
X9144000Y65786000D03*
X11344000Y65786000D03*
D20*
X19304000Y65913000D03*
X19304000Y63713000D03*
D13*
X19304000Y61214000D03*
X19304000Y58674000D03*
X16764000Y61214000D03*
X16764000Y58674000D03*
X14224000Y61214000D03*
X14224000Y58674000D03*
X11684000Y61214000D03*
X11684000Y58674000D03*
X9144000Y61214000D03*
X9144000Y58674000D03*
X6604000Y58674000D03*
X6604000Y61214000D03*
X19304000Y70612000D03*
X19304000Y68072000D03*
X16764000Y70612000D03*
X16764000Y68072000D03*
X14224000Y70612000D03*
X14224000Y68072000D03*
X11684000Y70612000D03*
X11684000Y68072000D03*
X9144000Y70612000D03*
X9144000Y68072000D03*
X6604000Y68072000D03*
X6604000Y70612000D03*
D29*
G36*
X9373000Y12627000D02*
X1127000Y12627000D01*
X1127000Y14873000D01*
X9373000Y14873000D01*
X9373000Y12627000D01*
X9373000Y12627000D01*
G37*
X9373000Y12627000D02*
X1127000Y12627000D01*
X1127000Y14873000D01*
X9373000Y14873000D01*
X9373000Y12627000D01*
M02*
