G04 #@! TF.FileFunction,Soldermask,Top*
%FSLAX46Y46*%
G04 Gerber Fmt 4.6, Leading zero omitted, Abs format (unit mm)*
G04 Created by KiCad (PCBNEW 4.0.1-stable) date 18/01/2016 20:30:30*
%MOMM*%
G01*
G04 APERTURE LIST*
%ADD10C,0.150000*%
%ADD11C,1.500000*%
%ADD12R,3.600000X2.200000*%
%ADD13R,0.550000X2.150000*%
%ADD14R,2.500000X1.700000*%
%ADD15R,2.100000X5.000000*%
%ADD16C,1.600000*%
%ADD17R,0.900000X0.900000*%
%ADD18R,3.600000X2.000000*%
%ADD19R,1.200000X2.000000*%
%ADD20O,3.810000X1.524000*%
%ADD21C,3.000000*%
%ADD22R,1.200000X0.650000*%
%ADD23R,1.700000X1.100000*%
%ADD24R,1.400000X2.100000*%
%ADD25R,1.300000X0.900000*%
%ADD26R,0.900000X1.300000*%
%ADD27R,2.200000X0.600000*%
%ADD28C,1.700000*%
%ADD29R,1.000000X1.000000*%
%ADD30C,1.800000*%
%ADD31C,2.000000*%
G04 APERTURE END LIST*
D10*
D11*
X81403400Y12066000D03*
X78863400Y12066000D03*
X83943400Y12066000D03*
X14220400Y57913000D03*
X10791400Y45467000D03*
X12442400Y32259000D03*
X10791400Y24385000D03*
X11680400Y14479000D03*
X15998400Y12066000D03*
X49780400Y13463000D03*
X36953400Y12066000D03*
X10791400Y42927000D03*
X10791400Y40387000D03*
X10791400Y21845000D03*
X10791400Y19305000D03*
X18538400Y12066000D03*
X21078400Y12066000D03*
X39493400Y12066000D03*
X42033400Y12066000D03*
X57908400Y12066000D03*
X60448400Y12066000D03*
X62988400Y12066000D03*
X88769400Y19305000D03*
X88769400Y21845000D03*
X88769400Y24385000D03*
X88896400Y40387000D03*
X88896400Y42927000D03*
X88896400Y45467000D03*
X38096400Y70867000D03*
D12*
X58733900Y96876600D03*
D13*
X58733900Y90615500D03*
X61273900Y90615500D03*
X56193900Y90615500D03*
X57463900Y90615500D03*
X60003900Y90615500D03*
D14*
X19395400Y90552000D03*
X15395400Y90552000D03*
D15*
X12112400Y95124000D03*
X15312400Y95124000D03*
D16*
X74926400Y81281000D03*
X74926400Y78741000D03*
X67306400Y81281000D03*
X67306400Y78741000D03*
D17*
X52894400Y43181000D03*
X54794400Y43181000D03*
X54606400Y46417000D03*
X54606400Y44517000D03*
X52828400Y46417000D03*
X52828400Y44517000D03*
D10*
G36*
X57744649Y35268853D02*
X57108253Y35905249D01*
X57744649Y36541645D01*
X58381045Y35905249D01*
X57744649Y35268853D01*
X57744649Y35268853D01*
G37*
G36*
X59088151Y36612355D02*
X58451755Y37248751D01*
X59088151Y37885147D01*
X59724547Y37248751D01*
X59088151Y36612355D01*
X59088151Y36612355D01*
G37*
D17*
X50481400Y40387000D03*
X52381400Y40387000D03*
X50481400Y41911000D03*
X52381400Y41911000D03*
X59940400Y34352000D03*
X59940400Y32452000D03*
X61464400Y34352000D03*
X61464400Y32452000D03*
X52635400Y20448000D03*
X50735400Y20448000D03*
X40763400Y28515000D03*
X40763400Y30415000D03*
X39366400Y28515000D03*
X39366400Y30415000D03*
X46925400Y40387000D03*
X48825400Y40387000D03*
X46925400Y43308000D03*
X48825400Y43308000D03*
X46925400Y41911000D03*
X48825400Y41911000D03*
X59051400Y29150000D03*
X59051400Y31050000D03*
X60575400Y29150000D03*
X60575400Y31050000D03*
X62099400Y29150000D03*
X62099400Y31050000D03*
X47306400Y21972000D03*
X49206400Y21972000D03*
X47306400Y20448000D03*
X49206400Y20448000D03*
X47306400Y19051000D03*
X49206400Y19051000D03*
X40763400Y33844000D03*
X40763400Y31944000D03*
X39366400Y33844000D03*
X39366400Y31944000D03*
X37969400Y33844000D03*
X37969400Y31944000D03*
D16*
X27301400Y81916000D03*
X27301400Y79376000D03*
X84197400Y55754000D03*
X84197400Y60834000D03*
X84197400Y58294000D03*
X90217200Y78995000D03*
X87677200Y78995000D03*
D18*
X38858400Y88393000D03*
D19*
X38858400Y94997000D03*
X36572400Y94997000D03*
X41144400Y94997000D03*
D16*
X21586400Y45721000D03*
X19046400Y45721000D03*
X21586400Y48261000D03*
X19046400Y48261000D03*
X21586400Y50801000D03*
X19046400Y50801000D03*
X21586400Y53341000D03*
X19046400Y53341000D03*
X21586400Y55881000D03*
X19046400Y55881000D03*
D20*
X17643360Y64027032D03*
X17643360Y66567032D03*
X17643360Y69107032D03*
X17643360Y71647032D03*
X10023360Y64027032D03*
X10023360Y66567032D03*
X10023360Y69107032D03*
X10023360Y71647032D03*
D21*
X5711400Y77805000D03*
X5711400Y82805000D03*
D16*
X34413400Y5081000D03*
X34413400Y7621000D03*
X36953400Y5081000D03*
X36953400Y7621000D03*
X39493400Y5081000D03*
X39493400Y7621000D03*
X42033400Y5081000D03*
X42033400Y7621000D03*
X44573400Y5081000D03*
X44573400Y7621000D03*
X13458400Y5081000D03*
X13458400Y7621000D03*
X15998400Y5081000D03*
X15998400Y7621000D03*
X18538400Y5081000D03*
X18538400Y7621000D03*
X21078400Y5081000D03*
X21078400Y7621000D03*
X23618400Y5081000D03*
X23618400Y7621000D03*
X3806400Y26925000D03*
X6346400Y26925000D03*
X3806400Y24385000D03*
X6346400Y24385000D03*
X3806400Y21845000D03*
X6346400Y21845000D03*
X3806400Y19305000D03*
X6346400Y19305000D03*
X3806400Y16765000D03*
X6346400Y16765000D03*
X3806400Y48007000D03*
X6346400Y48007000D03*
X3806400Y45467000D03*
X6346400Y45467000D03*
X3806400Y42927000D03*
X6346400Y42927000D03*
X3806400Y40387000D03*
X6346400Y40387000D03*
X3806400Y37847000D03*
X6346400Y37847000D03*
X96008400Y37847000D03*
X93468400Y37847000D03*
X96008400Y40387000D03*
X93468400Y40387000D03*
X96008400Y42927000D03*
X93468400Y42927000D03*
X96008400Y45467000D03*
X93468400Y45467000D03*
X96008400Y48007000D03*
X93468400Y48007000D03*
X96008400Y16765000D03*
X93468400Y16765000D03*
X96008400Y19305000D03*
X93468400Y19305000D03*
X96008400Y21845000D03*
X93468400Y21845000D03*
X96008400Y24385000D03*
X93468400Y24385000D03*
X96008400Y26925000D03*
X93468400Y26925000D03*
X76323400Y5081000D03*
X76323400Y7621000D03*
X78863400Y5081000D03*
X78863400Y7621000D03*
X81403400Y5081000D03*
X81403400Y7621000D03*
X83943400Y5081000D03*
X83943400Y7621000D03*
X86483400Y5081000D03*
X86483400Y7621000D03*
D10*
G36*
X57367988Y32528258D02*
X57544764Y32351482D01*
X56484104Y31290822D01*
X56307328Y31467598D01*
X57367988Y32528258D01*
X57367988Y32528258D01*
G37*
G36*
X57014435Y32881811D02*
X57191211Y32705035D01*
X56130551Y31644375D01*
X55953775Y31821151D01*
X57014435Y32881811D01*
X57014435Y32881811D01*
G37*
G36*
X56660882Y33235365D02*
X56837658Y33058589D01*
X55776998Y31997929D01*
X55600222Y32174705D01*
X56660882Y33235365D01*
X56660882Y33235365D01*
G37*
G36*
X56307328Y33588918D02*
X56484104Y33412142D01*
X55423444Y32351482D01*
X55246668Y32528258D01*
X56307328Y33588918D01*
X56307328Y33588918D01*
G37*
G36*
X55953775Y33942471D02*
X56130551Y33765695D01*
X55069891Y32705035D01*
X54893115Y32881811D01*
X55953775Y33942471D01*
X55953775Y33942471D01*
G37*
G36*
X55600222Y34296025D02*
X55776998Y34119249D01*
X54716338Y33058589D01*
X54539562Y33235365D01*
X55600222Y34296025D01*
X55600222Y34296025D01*
G37*
G36*
X55246668Y34649578D02*
X55423444Y34472802D01*
X54362784Y33412142D01*
X54186008Y33588918D01*
X55246668Y34649578D01*
X55246668Y34649578D01*
G37*
G36*
X54893115Y35003132D02*
X55069891Y34826356D01*
X54009231Y33765696D01*
X53832455Y33942472D01*
X54893115Y35003132D01*
X54893115Y35003132D01*
G37*
G36*
X54539561Y35356685D02*
X54716337Y35179909D01*
X53655677Y34119249D01*
X53478901Y34296025D01*
X54539561Y35356685D01*
X54539561Y35356685D01*
G37*
G36*
X54186008Y35710238D02*
X54362784Y35533462D01*
X53302124Y34472802D01*
X53125348Y34649578D01*
X54186008Y35710238D01*
X54186008Y35710238D01*
G37*
G36*
X53832455Y36063792D02*
X54009231Y35887016D01*
X52948571Y34826356D01*
X52771795Y35003132D01*
X53832455Y36063792D01*
X53832455Y36063792D01*
G37*
G36*
X53478901Y36417345D02*
X53655677Y36240569D01*
X52595017Y35179909D01*
X52418241Y35356685D01*
X53478901Y36417345D01*
X53478901Y36417345D01*
G37*
G36*
X53125348Y36770899D02*
X53302124Y36594123D01*
X52241464Y35533463D01*
X52064688Y35710239D01*
X53125348Y36770899D01*
X53125348Y36770899D01*
G37*
G36*
X52771794Y37124452D02*
X52948570Y36947676D01*
X51887910Y35887016D01*
X51711134Y36063792D01*
X52771794Y37124452D01*
X52771794Y37124452D01*
G37*
G36*
X52418241Y37478005D02*
X52595017Y37301229D01*
X51534357Y36240569D01*
X51357581Y36417345D01*
X52418241Y37478005D01*
X52418241Y37478005D01*
G37*
G36*
X52064688Y37831559D02*
X52241464Y37654783D01*
X51180804Y36594123D01*
X51004028Y36770899D01*
X52064688Y37831559D01*
X52064688Y37831559D01*
G37*
G36*
X51711134Y38185112D02*
X51887910Y38008336D01*
X50827250Y36947676D01*
X50650474Y37124452D01*
X51711134Y38185112D01*
X51711134Y38185112D01*
G37*
G36*
X51357581Y38538665D02*
X51534357Y38361889D01*
X50473697Y37301229D01*
X50296921Y37478005D01*
X51357581Y38538665D01*
X51357581Y38538665D01*
G37*
G36*
X48635219Y38538665D02*
X49695879Y37478005D01*
X49519103Y37301229D01*
X48458443Y38361889D01*
X48635219Y38538665D01*
X48635219Y38538665D01*
G37*
G36*
X48281666Y38185112D02*
X49342326Y37124452D01*
X49165550Y36947676D01*
X48104890Y38008336D01*
X48281666Y38185112D01*
X48281666Y38185112D01*
G37*
G36*
X47928112Y37831559D02*
X48988772Y36770899D01*
X48811996Y36594123D01*
X47751336Y37654783D01*
X47928112Y37831559D01*
X47928112Y37831559D01*
G37*
G36*
X47574559Y37478005D02*
X48635219Y36417345D01*
X48458443Y36240569D01*
X47397783Y37301229D01*
X47574559Y37478005D01*
X47574559Y37478005D01*
G37*
G36*
X47221006Y37124452D02*
X48281666Y36063792D01*
X48104890Y35887016D01*
X47044230Y36947676D01*
X47221006Y37124452D01*
X47221006Y37124452D01*
G37*
G36*
X46867452Y36770899D02*
X47928112Y35710239D01*
X47751336Y35533463D01*
X46690676Y36594123D01*
X46867452Y36770899D01*
X46867452Y36770899D01*
G37*
G36*
X46513899Y36417345D02*
X47574559Y35356685D01*
X47397783Y35179909D01*
X46337123Y36240569D01*
X46513899Y36417345D01*
X46513899Y36417345D01*
G37*
G36*
X46160345Y36063792D02*
X47221005Y35003132D01*
X47044229Y34826356D01*
X45983569Y35887016D01*
X46160345Y36063792D01*
X46160345Y36063792D01*
G37*
G36*
X45806792Y35710238D02*
X46867452Y34649578D01*
X46690676Y34472802D01*
X45630016Y35533462D01*
X45806792Y35710238D01*
X45806792Y35710238D01*
G37*
G36*
X45453239Y35356685D02*
X46513899Y34296025D01*
X46337123Y34119249D01*
X45276463Y35179909D01*
X45453239Y35356685D01*
X45453239Y35356685D01*
G37*
G36*
X45099685Y35003132D02*
X46160345Y33942472D01*
X45983569Y33765696D01*
X44922909Y34826356D01*
X45099685Y35003132D01*
X45099685Y35003132D01*
G37*
G36*
X44746132Y34649578D02*
X45806792Y33588918D01*
X45630016Y33412142D01*
X44569356Y34472802D01*
X44746132Y34649578D01*
X44746132Y34649578D01*
G37*
G36*
X44392578Y34296025D02*
X45453238Y33235365D01*
X45276462Y33058589D01*
X44215802Y34119249D01*
X44392578Y34296025D01*
X44392578Y34296025D01*
G37*
G36*
X44039025Y33942471D02*
X45099685Y32881811D01*
X44922909Y32705035D01*
X43862249Y33765695D01*
X44039025Y33942471D01*
X44039025Y33942471D01*
G37*
G36*
X43685472Y33588918D02*
X44746132Y32528258D01*
X44569356Y32351482D01*
X43508696Y33412142D01*
X43685472Y33588918D01*
X43685472Y33588918D01*
G37*
G36*
X43331918Y33235365D02*
X44392578Y32174705D01*
X44215802Y31997929D01*
X43155142Y33058589D01*
X43331918Y33235365D01*
X43331918Y33235365D01*
G37*
G36*
X42978365Y32881811D02*
X44039025Y31821151D01*
X43862249Y31644375D01*
X42801589Y32705035D01*
X42978365Y32881811D01*
X42978365Y32881811D01*
G37*
G36*
X42624812Y32528258D02*
X43685472Y31467598D01*
X43508696Y31290822D01*
X42448036Y32351482D01*
X42624812Y32528258D01*
X42624812Y32528258D01*
G37*
G36*
X43508696Y30689780D02*
X43685472Y30513004D01*
X42624812Y29452344D01*
X42448036Y29629120D01*
X43508696Y30689780D01*
X43508696Y30689780D01*
G37*
G36*
X43862249Y30336227D02*
X44039025Y30159451D01*
X42978365Y29098791D01*
X42801589Y29275567D01*
X43862249Y30336227D01*
X43862249Y30336227D01*
G37*
G36*
X44215802Y29982673D02*
X44392578Y29805897D01*
X43331918Y28745237D01*
X43155142Y28922013D01*
X44215802Y29982673D01*
X44215802Y29982673D01*
G37*
G36*
X44569356Y29629120D02*
X44746132Y29452344D01*
X43685472Y28391684D01*
X43508696Y28568460D01*
X44569356Y29629120D01*
X44569356Y29629120D01*
G37*
G36*
X44922909Y29275567D02*
X45099685Y29098791D01*
X44039025Y28038131D01*
X43862249Y28214907D01*
X44922909Y29275567D01*
X44922909Y29275567D01*
G37*
G36*
X45276462Y28922013D02*
X45453238Y28745237D01*
X44392578Y27684577D01*
X44215802Y27861353D01*
X45276462Y28922013D01*
X45276462Y28922013D01*
G37*
G36*
X45630016Y28568460D02*
X45806792Y28391684D01*
X44746132Y27331024D01*
X44569356Y27507800D01*
X45630016Y28568460D01*
X45630016Y28568460D01*
G37*
G36*
X45983569Y28214906D02*
X46160345Y28038130D01*
X45099685Y26977470D01*
X44922909Y27154246D01*
X45983569Y28214906D01*
X45983569Y28214906D01*
G37*
G36*
X46337123Y27861353D02*
X46513899Y27684577D01*
X45453239Y26623917D01*
X45276463Y26800693D01*
X46337123Y27861353D01*
X46337123Y27861353D01*
G37*
G36*
X46690676Y27507800D02*
X46867452Y27331024D01*
X45806792Y26270364D01*
X45630016Y26447140D01*
X46690676Y27507800D01*
X46690676Y27507800D01*
G37*
G36*
X47044229Y27154246D02*
X47221005Y26977470D01*
X46160345Y25916810D01*
X45983569Y26093586D01*
X47044229Y27154246D01*
X47044229Y27154246D01*
G37*
G36*
X47397783Y26800693D02*
X47574559Y26623917D01*
X46513899Y25563257D01*
X46337123Y25740033D01*
X47397783Y26800693D01*
X47397783Y26800693D01*
G37*
G36*
X47751336Y26447139D02*
X47928112Y26270363D01*
X46867452Y25209703D01*
X46690676Y25386479D01*
X47751336Y26447139D01*
X47751336Y26447139D01*
G37*
G36*
X48104890Y26093586D02*
X48281666Y25916810D01*
X47221006Y24856150D01*
X47044230Y25032926D01*
X48104890Y26093586D01*
X48104890Y26093586D01*
G37*
G36*
X48458443Y25740033D02*
X48635219Y25563257D01*
X47574559Y24502597D01*
X47397783Y24679373D01*
X48458443Y25740033D01*
X48458443Y25740033D01*
G37*
G36*
X48811996Y25386479D02*
X48988772Y25209703D01*
X47928112Y24149043D01*
X47751336Y24325819D01*
X48811996Y25386479D01*
X48811996Y25386479D01*
G37*
G36*
X49165550Y25032926D02*
X49342326Y24856150D01*
X48281666Y23795490D01*
X48104890Y23972266D01*
X49165550Y25032926D01*
X49165550Y25032926D01*
G37*
G36*
X49519103Y24679373D02*
X49695879Y24502597D01*
X48635219Y23441937D01*
X48458443Y23618713D01*
X49519103Y24679373D01*
X49519103Y24679373D01*
G37*
G36*
X50473697Y24679373D02*
X51534357Y23618713D01*
X51357581Y23441937D01*
X50296921Y24502597D01*
X50473697Y24679373D01*
X50473697Y24679373D01*
G37*
G36*
X50827250Y25032926D02*
X51887910Y23972266D01*
X51711134Y23795490D01*
X50650474Y24856150D01*
X50827250Y25032926D01*
X50827250Y25032926D01*
G37*
G36*
X51180804Y25386479D02*
X52241464Y24325819D01*
X52064688Y24149043D01*
X51004028Y25209703D01*
X51180804Y25386479D01*
X51180804Y25386479D01*
G37*
G36*
X51534357Y25740033D02*
X52595017Y24679373D01*
X52418241Y24502597D01*
X51357581Y25563257D01*
X51534357Y25740033D01*
X51534357Y25740033D01*
G37*
G36*
X51887910Y26093586D02*
X52948570Y25032926D01*
X52771794Y24856150D01*
X51711134Y25916810D01*
X51887910Y26093586D01*
X51887910Y26093586D01*
G37*
G36*
X52241464Y26447139D02*
X53302124Y25386479D01*
X53125348Y25209703D01*
X52064688Y26270363D01*
X52241464Y26447139D01*
X52241464Y26447139D01*
G37*
G36*
X52595017Y26800693D02*
X53655677Y25740033D01*
X53478901Y25563257D01*
X52418241Y26623917D01*
X52595017Y26800693D01*
X52595017Y26800693D01*
G37*
G36*
X52948571Y27154246D02*
X54009231Y26093586D01*
X53832455Y25916810D01*
X52771795Y26977470D01*
X52948571Y27154246D01*
X52948571Y27154246D01*
G37*
G36*
X53302124Y27507800D02*
X54362784Y26447140D01*
X54186008Y26270364D01*
X53125348Y27331024D01*
X53302124Y27507800D01*
X53302124Y27507800D01*
G37*
G36*
X53655677Y27861353D02*
X54716337Y26800693D01*
X54539561Y26623917D01*
X53478901Y27684577D01*
X53655677Y27861353D01*
X53655677Y27861353D01*
G37*
G36*
X54009231Y28214906D02*
X55069891Y27154246D01*
X54893115Y26977470D01*
X53832455Y28038130D01*
X54009231Y28214906D01*
X54009231Y28214906D01*
G37*
G36*
X54362784Y28568460D02*
X55423444Y27507800D01*
X55246668Y27331024D01*
X54186008Y28391684D01*
X54362784Y28568460D01*
X54362784Y28568460D01*
G37*
G36*
X54716338Y28922013D02*
X55776998Y27861353D01*
X55600222Y27684577D01*
X54539562Y28745237D01*
X54716338Y28922013D01*
X54716338Y28922013D01*
G37*
G36*
X55069891Y29275567D02*
X56130551Y28214907D01*
X55953775Y28038131D01*
X54893115Y29098791D01*
X55069891Y29275567D01*
X55069891Y29275567D01*
G37*
G36*
X55423444Y29629120D02*
X56484104Y28568460D01*
X56307328Y28391684D01*
X55246668Y29452344D01*
X55423444Y29629120D01*
X55423444Y29629120D01*
G37*
G36*
X55776998Y29982673D02*
X56837658Y28922013D01*
X56660882Y28745237D01*
X55600222Y29805897D01*
X55776998Y29982673D01*
X55776998Y29982673D01*
G37*
G36*
X56130551Y30336227D02*
X57191211Y29275567D01*
X57014435Y29098791D01*
X55953775Y30159451D01*
X56130551Y30336227D01*
X56130551Y30336227D01*
G37*
G36*
X56484104Y30689780D02*
X57544764Y29629120D01*
X57367988Y29452344D01*
X56307328Y30513004D01*
X56484104Y30689780D01*
X56484104Y30689780D01*
G37*
G36*
X49996400Y34737967D02*
X53744066Y30990301D01*
X49996400Y27242635D01*
X46248734Y30990301D01*
X49996400Y34737967D01*
X49996400Y34737967D01*
G37*
D16*
X77466400Y74931000D03*
X77466400Y72391000D03*
X74926400Y74931000D03*
X74926400Y72391000D03*
X72386400Y74931000D03*
X72386400Y72391000D03*
X69846400Y74931000D03*
X69846400Y72391000D03*
X67306400Y74931000D03*
X67306400Y72391000D03*
X64766400Y74931000D03*
X64766400Y72391000D03*
X44960400Y51033000D03*
X40080400Y51033000D03*
D22*
X12435900Y87948500D03*
X10035900Y88898500D03*
X10035900Y87948500D03*
X10035900Y86998500D03*
X12435900Y86998500D03*
X12435900Y88898500D03*
D16*
X34518400Y36117000D03*
X34518400Y38657000D03*
D23*
X2536400Y72313000D03*
X2536400Y68913000D03*
D16*
X55368400Y5081000D03*
X55368400Y7621000D03*
X57908400Y5081000D03*
X57908400Y7621000D03*
X60448400Y5081000D03*
X60448400Y7621000D03*
X62988400Y5081000D03*
X62988400Y7621000D03*
X65528400Y5081000D03*
X65528400Y7621000D03*
D24*
X31148400Y79913000D03*
X35648400Y79913000D03*
X31148400Y71513000D03*
X35648400Y71513000D03*
D17*
X52635400Y21972000D03*
X50735400Y21972000D03*
D25*
X45970400Y92797000D03*
X45970400Y94997000D03*
X22475400Y96224000D03*
X22475400Y94024000D03*
X63242400Y94997000D03*
X63242400Y97197000D03*
X63242400Y93493500D03*
X63242400Y91293500D03*
D26*
X63834400Y78741000D03*
X61634400Y78741000D03*
X63834400Y81027000D03*
X61634400Y81027000D03*
X59770400Y78741000D03*
X57570400Y78741000D03*
D25*
X32254400Y39582000D03*
X32254400Y37382000D03*
D26*
X50458400Y74169000D03*
X52658400Y74169000D03*
X50458400Y71946500D03*
X52658400Y71946500D03*
D25*
X86991400Y60664000D03*
X86991400Y58464000D03*
X85340400Y65744000D03*
X85340400Y63544000D03*
X87499400Y63544000D03*
X87499400Y65744000D03*
X90166400Y68751000D03*
X90166400Y70951000D03*
D26*
X87999600Y76607400D03*
X90199600Y76607400D03*
D25*
X96643400Y69427000D03*
X96643400Y67227000D03*
D26*
X94568400Y67184000D03*
X92368400Y67184000D03*
X94568400Y69038200D03*
X92368400Y69038200D03*
D25*
X33524400Y94997000D03*
X33524400Y92797000D03*
D26*
X26836400Y55881000D03*
X29036400Y55881000D03*
X26836400Y57961000D03*
X29036400Y57961000D03*
X26836400Y43181000D03*
X29036400Y43181000D03*
X26836400Y50801000D03*
X29036400Y50801000D03*
X24188400Y69772000D03*
X21988400Y69772000D03*
D25*
X42033400Y16341000D03*
X42033400Y14141000D03*
X39493400Y16341000D03*
X39493400Y14141000D03*
X36953400Y16341000D03*
X36953400Y14141000D03*
X34667400Y16341000D03*
X34667400Y14141000D03*
D26*
X31576400Y15241000D03*
X29376400Y15241000D03*
X31576400Y17781000D03*
X29376400Y17781000D03*
X31576400Y20321000D03*
X29376400Y20321000D03*
X31576400Y22861000D03*
X29376400Y22861000D03*
X31576400Y25401000D03*
X29376400Y25401000D03*
X31576400Y27941000D03*
X29376400Y27941000D03*
X31576400Y30481000D03*
X29376400Y30481000D03*
X31576400Y33021000D03*
X29376400Y33021000D03*
X84494400Y40387000D03*
X86694400Y40387000D03*
D25*
X88769400Y15157000D03*
X88769400Y17357000D03*
X78863400Y16341000D03*
X78863400Y14141000D03*
X57908400Y16341000D03*
X57908400Y14141000D03*
D26*
X86694400Y45467000D03*
X84494400Y45467000D03*
X86694400Y42927000D03*
X84494400Y42927000D03*
X86694400Y24385000D03*
X84494400Y24385000D03*
X86694400Y21845000D03*
X84494400Y21845000D03*
D25*
X83943400Y14141000D03*
X83943400Y16341000D03*
X81403400Y14141000D03*
X81403400Y16341000D03*
X62988400Y14141000D03*
X62988400Y16341000D03*
X60448400Y14141000D03*
X60448400Y16341000D03*
D26*
X39488400Y53827000D03*
X41688400Y53827000D03*
X45244400Y53828000D03*
X43044400Y53828000D03*
D25*
X20697400Y96224000D03*
X20697400Y94024000D03*
D26*
X45800400Y61723000D03*
X43600400Y61723000D03*
D25*
X82800400Y81705000D03*
X82800400Y83905000D03*
D26*
X26836400Y45721000D03*
X29036400Y45721000D03*
X26836400Y48261000D03*
X29036400Y48261000D03*
D25*
X63369400Y67776000D03*
X63369400Y65576000D03*
X66163400Y67776000D03*
X66163400Y65576000D03*
X68957400Y67740000D03*
X68957400Y65540000D03*
X71751400Y67740000D03*
X71751400Y65540000D03*
X74545400Y67740000D03*
X74545400Y65540000D03*
X77339400Y67776000D03*
X77339400Y65576000D03*
D10*
G36*
X66269996Y41509595D02*
X67189234Y40590357D01*
X66552838Y39953961D01*
X65633600Y40873199D01*
X66269996Y41509595D01*
X66269996Y41509595D01*
G37*
G36*
X64714362Y39953961D02*
X65633600Y39034723D01*
X64997204Y38398327D01*
X64077966Y39317565D01*
X64714362Y39953961D01*
X64714362Y39953961D01*
G37*
D26*
X4652400Y74169000D03*
X2452400Y74169000D03*
X1817400Y86996000D03*
X4017400Y86996000D03*
X5373400Y86996000D03*
X7573400Y86996000D03*
D25*
X7616400Y88690000D03*
X7616400Y90890000D03*
D26*
X45244400Y58089000D03*
X43044400Y58089000D03*
X45270800Y55859000D03*
X43070800Y55859000D03*
D25*
X40001400Y45891000D03*
X40001400Y48091000D03*
D26*
X49610400Y61723000D03*
X47410400Y61723000D03*
D25*
X30984400Y50504000D03*
X30984400Y48304000D03*
X32254400Y40938000D03*
X32254400Y43138000D03*
D26*
X28762400Y35688000D03*
X30962400Y35688000D03*
D25*
X49526400Y65617000D03*
X49526400Y63417000D03*
X82800400Y85261000D03*
X82800400Y87461000D03*
X18728900Y96224000D03*
X18728900Y94024000D03*
D26*
X10135900Y90552000D03*
X12335900Y90552000D03*
D25*
X43684400Y92797000D03*
X43684400Y94997000D03*
D26*
X16971400Y87948500D03*
X14771400Y87948500D03*
D25*
X31238400Y94997000D03*
X31238400Y92797000D03*
D26*
X30265400Y52706000D03*
X32465400Y52706000D03*
X24188400Y66724000D03*
X21988400Y66724000D03*
X24104400Y63676000D03*
X21904400Y63676000D03*
X16971400Y85916500D03*
X14771400Y85916500D03*
D25*
X90166400Y72561000D03*
X90166400Y74761000D03*
D16*
X96643400Y78995000D03*
X94103400Y78995000D03*
D25*
X96643400Y73745000D03*
X96643400Y71545000D03*
D26*
X94451200Y76353400D03*
X96651200Y76353400D03*
D27*
X90085400Y64644000D03*
X90085400Y63374000D03*
X90085400Y62104000D03*
X90085400Y60834000D03*
X90085400Y59564000D03*
X90085400Y58294000D03*
X90085400Y57024000D03*
X95835400Y64644000D03*
X95835400Y63374000D03*
X95835400Y62104000D03*
X95835400Y60834000D03*
X95835400Y59564000D03*
X95835400Y58294000D03*
X95835400Y57024000D03*
D10*
G36*
X76201396Y51149134D02*
X77120634Y50229896D01*
X76484238Y49593500D01*
X75565000Y50512738D01*
X76201396Y51149134D01*
X76201396Y51149134D01*
G37*
G36*
X74645762Y49593500D02*
X75565000Y48674262D01*
X74928604Y48037866D01*
X74009366Y48957104D01*
X74645762Y49593500D01*
X74645762Y49593500D01*
G37*
G36*
X73528004Y49499366D02*
X72608766Y50418604D01*
X73245162Y51055000D01*
X74164400Y50135762D01*
X73528004Y49499366D01*
X73528004Y49499366D01*
G37*
G36*
X75083638Y51055000D02*
X74164400Y51974238D01*
X74800796Y52610634D01*
X75720034Y51691396D01*
X75083638Y51055000D01*
X75083638Y51055000D01*
G37*
G36*
X72291266Y44769896D02*
X73210504Y45689134D01*
X73846900Y45052738D01*
X72927662Y44133500D01*
X72291266Y44769896D01*
X72291266Y44769896D01*
G37*
G36*
X73846900Y43214262D02*
X74766138Y44133500D01*
X75402534Y43497104D01*
X74483296Y42577866D01*
X73846900Y43214262D01*
X73846900Y43214262D01*
G37*
G36*
X73815266Y46293896D02*
X74734504Y47213134D01*
X75370900Y46576738D01*
X74451662Y45657500D01*
X73815266Y46293896D01*
X73815266Y46293896D01*
G37*
G36*
X75370900Y44738262D02*
X76290138Y45657500D01*
X76926534Y45021104D01*
X76007296Y44101866D01*
X75370900Y44738262D01*
X75370900Y44738262D01*
G37*
G36*
X70523732Y47000769D02*
X71089418Y47566455D01*
X71407616Y47248257D01*
X70841930Y46682571D01*
X70523732Y47000769D01*
X70523732Y47000769D01*
G37*
G36*
X70983351Y46541149D02*
X71549037Y47106835D01*
X71867235Y46788637D01*
X71301549Y46222951D01*
X70983351Y46541149D01*
X70983351Y46541149D01*
G37*
G36*
X71442971Y46081530D02*
X72008657Y46647216D01*
X72326855Y46329018D01*
X71761169Y45763332D01*
X71442971Y46081530D01*
X71442971Y46081530D01*
G37*
G36*
X72857184Y47495743D02*
X73422870Y48061429D01*
X73741068Y47743231D01*
X73175382Y47177545D01*
X72857184Y47495743D01*
X72857184Y47495743D01*
G37*
G36*
X72397565Y47955363D02*
X72963251Y48521049D01*
X73281449Y48202851D01*
X72715763Y47637165D01*
X72397565Y47955363D01*
X72397565Y47955363D01*
G37*
G36*
X71937945Y48414982D02*
X72503631Y48980668D01*
X72821829Y48662470D01*
X72256143Y48096784D01*
X71937945Y48414982D01*
X71937945Y48414982D01*
G37*
G36*
X54696649Y39078853D02*
X54060253Y39715249D01*
X54696649Y40351645D01*
X55333045Y39715249D01*
X54696649Y39078853D01*
X54696649Y39078853D01*
G37*
G36*
X56040151Y40422355D02*
X55403755Y41058751D01*
X56040151Y41695147D01*
X56676547Y41058751D01*
X56040151Y40422355D01*
X56040151Y40422355D01*
G37*
D28*
X78736400Y86087000D03*
X78736400Y83587000D03*
X57420400Y48007000D03*
X59920400Y48007000D03*
X50796400Y94255000D03*
X50796400Y96755000D03*
X60174400Y85599000D03*
X57674400Y85599000D03*
X20336400Y81281000D03*
X22836400Y81281000D03*
X51030400Y57659000D03*
X48530400Y57659000D03*
X56618400Y61469000D03*
X54118400Y61469000D03*
X27047400Y95612000D03*
X27047400Y93112000D03*
X45208400Y88353000D03*
X45208400Y85853000D03*
D29*
X54161900Y89585000D03*
X54161900Y86185000D03*
X54161900Y83870000D03*
X54161900Y80470000D03*
X34872400Y97537000D03*
X38272400Y97537000D03*
X39698400Y97537000D03*
X43098400Y97537000D03*
D16*
X38096400Y62231000D03*
X38096400Y57151000D03*
X38096400Y59691000D03*
D30*
X82753400Y92073000D03*
X85293400Y92073000D03*
X87833400Y92073000D03*
D31*
X85293400Y95973000D03*
X80693400Y89973000D03*
X89893400Y89973000D03*
D30*
X70053400Y92073000D03*
X72593400Y92073000D03*
X75133400Y92073000D03*
D31*
X72593400Y95973000D03*
X67993400Y89973000D03*
X77193400Y89973000D03*
M02*
