G04 #@! TF.FileFunction,Soldermask,Bot*
%FSLAX46Y46*%
G04 Gerber Fmt 4.6, Leading zero omitted, Abs format (unit mm)*
G04 Created by KiCad (PCBNEW 4.0.1-stable) date 18/01/2016 20:30:30*
%MOMM*%
G01*
G04 APERTURE LIST*
%ADD10C,0.150000*%
%ADD11R,1.300000X0.900000*%
%ADD12C,1.500000*%
%ADD13R,1.000000X1.000000*%
%ADD14C,1.600000*%
%ADD15R,0.900000X0.900000*%
%ADD16C,1.000000*%
%ADD17O,3.810000X1.524000*%
%ADD18R,0.600000X2.200000*%
%ADD19C,3.000000*%
%ADD20R,2.200000X2.800000*%
%ADD21R,2.200000X0.600000*%
%ADD22R,0.900000X1.300000*%
%ADD23C,2.000000*%
%ADD24R,0.450000X0.800000*%
%ADD25C,1.700000*%
%ADD26C,1.800000*%
G04 APERTURE END LIST*
D10*
D11*
X43557400Y29889000D03*
X43557400Y32089000D03*
D12*
X81403400Y12066000D03*
X78863400Y12066000D03*
X83943400Y12066000D03*
D13*
X77275400Y59642000D03*
X77275400Y63042000D03*
X77275400Y65738000D03*
X77275400Y69138000D03*
X74545400Y59642000D03*
X74545400Y63042000D03*
X74545400Y65738000D03*
X74545400Y69138000D03*
X71751400Y59642000D03*
X71751400Y63042000D03*
X71751400Y65738000D03*
X71751400Y69138000D03*
X68957400Y59642000D03*
X68957400Y63042000D03*
X68957400Y65738000D03*
X68957400Y69138000D03*
X66163400Y59642000D03*
X66163400Y63042000D03*
X66163400Y65738000D03*
X66163400Y69138000D03*
X63369400Y59642000D03*
X63369400Y63042000D03*
X63369400Y65738000D03*
X63369400Y69138000D03*
D12*
X14220400Y57913000D03*
X10791400Y45467000D03*
X12442400Y32259000D03*
X10791400Y24385000D03*
X11680400Y14479000D03*
X15998400Y12066000D03*
X49780400Y13463000D03*
X36953400Y12066000D03*
X10791400Y42927000D03*
X10791400Y40387000D03*
X10791400Y21845000D03*
X10791400Y19305000D03*
X18538400Y12066000D03*
X21078400Y12066000D03*
X39493400Y12066000D03*
X42033400Y12066000D03*
X57908400Y12066000D03*
X60448400Y12066000D03*
X62988400Y12066000D03*
X88769400Y19305000D03*
X88769400Y21845000D03*
X88769400Y24385000D03*
X88896400Y40387000D03*
X88896400Y42927000D03*
X88896400Y45467000D03*
X38096400Y70867000D03*
D14*
X74926400Y81281000D03*
X74926400Y78741000D03*
X67306400Y81281000D03*
X67306400Y78741000D03*
D15*
X53910400Y39625000D03*
X55810400Y39625000D03*
D14*
X27301400Y81916000D03*
X27301400Y79376000D03*
X84197400Y55754000D03*
X84197400Y60834000D03*
X84197400Y58294000D03*
X90217200Y78995000D03*
X87677200Y78995000D03*
D16*
X51050400Y26671000D03*
X53082400Y26163000D03*
X47748400Y28830000D03*
X48764400Y26544000D03*
D14*
X21586400Y45721000D03*
X19046400Y45721000D03*
X21586400Y48261000D03*
X19046400Y48261000D03*
X21586400Y50801000D03*
X19046400Y50801000D03*
X21586400Y53341000D03*
X19046400Y53341000D03*
X21586400Y55881000D03*
X19046400Y55881000D03*
D17*
X17643360Y64027032D03*
X17643360Y66567032D03*
X17643360Y69107032D03*
X17643360Y71647032D03*
X10023360Y64027032D03*
X10023360Y66567032D03*
X10023360Y69107032D03*
X10023360Y71647032D03*
D18*
X71730400Y23495000D03*
X70460400Y23495000D03*
X69190400Y23495000D03*
X67920400Y23495000D03*
X67920400Y28695000D03*
X69190400Y28695000D03*
X70460400Y28695000D03*
X71730400Y28695000D03*
D19*
X5711400Y77805000D03*
X5711400Y82805000D03*
D14*
X34413400Y5081000D03*
X34413400Y7621000D03*
X36953400Y5081000D03*
X36953400Y7621000D03*
X39493400Y5081000D03*
X39493400Y7621000D03*
X42033400Y5081000D03*
X42033400Y7621000D03*
X44573400Y5081000D03*
X44573400Y7621000D03*
X13458400Y5081000D03*
X13458400Y7621000D03*
X15998400Y5081000D03*
X15998400Y7621000D03*
X18538400Y5081000D03*
X18538400Y7621000D03*
X21078400Y5081000D03*
X21078400Y7621000D03*
X23618400Y5081000D03*
X23618400Y7621000D03*
X3806400Y26925000D03*
X6346400Y26925000D03*
X3806400Y24385000D03*
X6346400Y24385000D03*
X3806400Y21845000D03*
X6346400Y21845000D03*
X3806400Y19305000D03*
X6346400Y19305000D03*
X3806400Y16765000D03*
X6346400Y16765000D03*
X3806400Y48007000D03*
X6346400Y48007000D03*
X3806400Y45467000D03*
X6346400Y45467000D03*
X3806400Y42927000D03*
X6346400Y42927000D03*
X3806400Y40387000D03*
X6346400Y40387000D03*
X3806400Y37847000D03*
X6346400Y37847000D03*
X96008400Y37847000D03*
X93468400Y37847000D03*
X96008400Y40387000D03*
X93468400Y40387000D03*
X96008400Y42927000D03*
X93468400Y42927000D03*
X96008400Y45467000D03*
X93468400Y45467000D03*
X96008400Y48007000D03*
X93468400Y48007000D03*
X96008400Y16765000D03*
X93468400Y16765000D03*
X96008400Y19305000D03*
X93468400Y19305000D03*
X96008400Y21845000D03*
X93468400Y21845000D03*
X96008400Y24385000D03*
X93468400Y24385000D03*
X96008400Y26925000D03*
X93468400Y26925000D03*
X76323400Y5081000D03*
X76323400Y7621000D03*
X78863400Y5081000D03*
X78863400Y7621000D03*
X81403400Y5081000D03*
X81403400Y7621000D03*
X83943400Y5081000D03*
X83943400Y7621000D03*
X86483400Y5081000D03*
X86483400Y7621000D03*
X77466400Y74931000D03*
X77466400Y72391000D03*
X74926400Y74931000D03*
X74926400Y72391000D03*
X72386400Y74931000D03*
X72386400Y72391000D03*
X69846400Y74931000D03*
X69846400Y72391000D03*
X67306400Y74931000D03*
X67306400Y72391000D03*
X64766400Y74931000D03*
X64766400Y72391000D03*
D20*
X9648400Y77471000D03*
X14048400Y77471000D03*
D14*
X44960400Y51033000D03*
X40080400Y51033000D03*
X34518400Y36117000D03*
X34518400Y38657000D03*
D21*
X46429400Y74232000D03*
X46429400Y72962000D03*
X46429400Y71692000D03*
X46429400Y70422000D03*
X41229400Y70422000D03*
X41229400Y71692000D03*
X41229400Y72962000D03*
X41229400Y74232000D03*
D14*
X55368400Y5081000D03*
X55368400Y7621000D03*
X57908400Y5081000D03*
X57908400Y7621000D03*
X60448400Y5081000D03*
X60448400Y7621000D03*
X62988400Y5081000D03*
X62988400Y7621000D03*
X65528400Y5081000D03*
X65528400Y7621000D03*
D18*
X31238400Y29846000D03*
X32508400Y29846000D03*
X33778400Y29846000D03*
X35048400Y29846000D03*
X35048400Y24646000D03*
X33778400Y24646000D03*
X32508400Y24646000D03*
X31238400Y24646000D03*
D11*
X33524400Y89747000D03*
X33524400Y87547000D03*
X31238400Y89747000D03*
X31238400Y87547000D03*
D22*
X8802400Y83059000D03*
X11002400Y83059000D03*
D11*
X70100400Y81111000D03*
X70100400Y78911000D03*
X64131400Y81111000D03*
X64131400Y78911000D03*
X78101400Y81111000D03*
X78101400Y78911000D03*
X72132400Y81111000D03*
X72132400Y78911000D03*
D22*
X80938400Y36323000D03*
X83138400Y36323000D03*
X80938400Y34291000D03*
X83138400Y34291000D03*
X58881400Y69470000D03*
X56681400Y69470000D03*
X62650400Y56643000D03*
X64850400Y56643000D03*
X62650400Y54738000D03*
X64850400Y54738000D03*
X58881400Y67184000D03*
X56681400Y67184000D03*
D11*
X26348900Y59902000D03*
X26348900Y57702000D03*
D22*
X30138400Y37466000D03*
X32338400Y37466000D03*
X30138400Y41149000D03*
X32338400Y41149000D03*
D11*
X25142400Y29803000D03*
X25142400Y27603000D03*
X23110400Y31962000D03*
X23110400Y29762000D03*
X25142400Y26374000D03*
X25142400Y24174000D03*
D22*
X28360400Y62104000D03*
X30560400Y62104000D03*
X81446400Y67692000D03*
X83646400Y67692000D03*
X81446400Y69787500D03*
X83646400Y69787500D03*
D11*
X85340400Y87461000D03*
X85340400Y85261000D03*
X26158400Y74593000D03*
X26158400Y76793000D03*
X22094400Y74593000D03*
X22094400Y76793000D03*
D22*
X59016400Y78805000D03*
X56816400Y78805000D03*
X59016400Y76705000D03*
X56816400Y76705000D03*
X23448400Y61977000D03*
X21248400Y61977000D03*
D11*
X14341360Y64179000D03*
X14341360Y66379000D03*
X15998400Y16341000D03*
X15998400Y14141000D03*
D22*
X15066400Y24385000D03*
X12866400Y24385000D03*
X15066400Y45467000D03*
X12866400Y45467000D03*
D11*
X18538400Y16341000D03*
X18538400Y14141000D03*
D22*
X15066400Y21845000D03*
X12866400Y21845000D03*
X15044400Y42927000D03*
X12844400Y42927000D03*
D11*
X21078400Y16341000D03*
X21078400Y14141000D03*
D22*
X15066400Y19305000D03*
X12866400Y19305000D03*
X15044400Y40387000D03*
X12844400Y40387000D03*
D11*
X13458400Y11896000D03*
X13458400Y9696000D03*
D22*
X10621400Y26925000D03*
X8421400Y26925000D03*
X10621400Y48007000D03*
X8421400Y48007000D03*
X84494400Y42927000D03*
X86694400Y42927000D03*
X84494400Y21845000D03*
X86694400Y21845000D03*
D11*
X81403400Y16341000D03*
X81403400Y14141000D03*
X60448400Y16341000D03*
X60448400Y14141000D03*
D22*
X84494400Y45467000D03*
X86694400Y45467000D03*
D11*
X88769400Y28787000D03*
X88769400Y26587000D03*
D22*
X88789900Y12066000D03*
X86589900Y12066000D03*
X67441200Y12066000D03*
X65241200Y12066000D03*
X86694400Y40387000D03*
X84494400Y40387000D03*
X91393400Y37847000D03*
X89193400Y37847000D03*
X86694400Y19305000D03*
X84494400Y19305000D03*
X91393400Y16765000D03*
X89193400Y16765000D03*
D11*
X78863400Y14141000D03*
X78863400Y16341000D03*
X76323400Y9696000D03*
X76323400Y11896000D03*
X57908400Y14141000D03*
X57908400Y16341000D03*
X55368400Y9696000D03*
X55368400Y11896000D03*
X50288400Y70529000D03*
X50288400Y72729000D03*
D22*
X6684400Y60453000D03*
X4484400Y60453000D03*
X40593400Y40260000D03*
X38393400Y40260000D03*
X51388400Y64263000D03*
X49188400Y64263000D03*
X44530400Y80265000D03*
X42330400Y80265000D03*
X50880400Y60707000D03*
X48680400Y60707000D03*
X28487400Y21385000D03*
X30687400Y21385000D03*
D11*
X34286400Y20110000D03*
X34286400Y22310000D03*
D22*
X29503400Y32513000D03*
X31703400Y32513000D03*
X74353400Y31672000D03*
X72153400Y31672000D03*
D11*
X69443400Y33280000D03*
X69443400Y31080000D03*
D22*
X26242400Y22607000D03*
X24042400Y22607000D03*
X73780000Y29355400D03*
X75980000Y29355400D03*
D11*
X78863400Y24850000D03*
X78863400Y22650000D03*
X78863400Y28533000D03*
X78863400Y26333000D03*
X27428400Y29803000D03*
X27428400Y27603000D03*
X29714400Y29803000D03*
X29714400Y27603000D03*
X73402400Y23072000D03*
X73402400Y20872000D03*
X75370900Y23072000D03*
X75370900Y20872000D03*
X78863400Y21121000D03*
X78863400Y18921000D03*
X40890400Y64179000D03*
X40890400Y66379000D03*
D22*
X42838400Y66549000D03*
X45038400Y66549000D03*
D11*
X5705360Y66313032D03*
X5705360Y68513032D03*
D22*
X36084900Y53785500D03*
X33884900Y53785500D03*
X35005400Y60326000D03*
X32805400Y60326000D03*
X28360400Y55627000D03*
X30560400Y55627000D03*
X28360400Y57913000D03*
X30560400Y57913000D03*
X38774400Y68581000D03*
X40974400Y68581000D03*
X34624400Y74169000D03*
X32424400Y74169000D03*
X22264400Y59818000D03*
X24464400Y59818000D03*
D11*
X82800400Y87293000D03*
X82800400Y89493000D03*
X66036400Y85896000D03*
X66036400Y88096000D03*
D22*
X16971400Y81281000D03*
X14771400Y81281000D03*
X11002400Y85345000D03*
X8802400Y85345000D03*
X65825400Y43330000D03*
X68025400Y43330000D03*
D11*
X13325360Y67989000D03*
X13325360Y70189000D03*
D22*
X12733360Y60725032D03*
X14933360Y60725032D03*
D11*
X59178400Y51987000D03*
X59178400Y54187000D03*
D22*
X45038400Y68581000D03*
X42838400Y68581000D03*
X54944400Y64263000D03*
X52744400Y64263000D03*
D11*
X49145400Y66083000D03*
X49145400Y68283000D03*
X50796400Y76602000D03*
X50796400Y74402000D03*
X54225400Y28159000D03*
X54225400Y30359000D03*
D22*
X53420400Y67057000D03*
X51220400Y67057000D03*
X54944400Y71883000D03*
X52744400Y71883000D03*
X54944400Y74232000D03*
X52744400Y74232000D03*
D11*
X44319400Y76117000D03*
X44319400Y78317000D03*
D22*
X62142400Y85916500D03*
X64342400Y85916500D03*
D11*
X16938200Y77488600D03*
X16938200Y79688600D03*
X65782400Y45256000D03*
X65782400Y47456000D03*
D22*
X59348400Y50293000D03*
X61548400Y50293000D03*
D11*
X46732400Y78317000D03*
X46732400Y76117000D03*
X87372400Y87461000D03*
X87372400Y85261000D03*
X64766400Y90595000D03*
X64766400Y92795000D03*
D22*
X60024400Y90425000D03*
X57824400Y90425000D03*
X60024400Y88393000D03*
X57824400Y88393000D03*
D11*
X53590400Y94405000D03*
X53590400Y96605000D03*
X48002400Y94405000D03*
X48002400Y96605000D03*
D22*
X22686400Y78487000D03*
X20486400Y78487000D03*
X22686400Y84075000D03*
X20486400Y84075000D03*
X13161400Y81281000D03*
X10961400Y81281000D03*
X6684400Y62231000D03*
X4484400Y62231000D03*
D11*
X68068400Y45256000D03*
X68068400Y47456000D03*
X59178400Y55543000D03*
X59178400Y57743000D03*
X36826400Y74085000D03*
X36826400Y76285000D03*
X40458600Y76117000D03*
X40458600Y78317000D03*
X38604400Y76117000D03*
X38604400Y78317000D03*
D22*
X50880400Y54611000D03*
X48680400Y54611000D03*
X31281400Y71756000D03*
X33481400Y71756000D03*
D11*
X71243400Y17824000D03*
X71243400Y20024000D03*
D22*
X29503400Y34418000D03*
X31703400Y34418000D03*
X65444400Y19178000D03*
X67644400Y19178000D03*
D11*
X36953400Y16341000D03*
X36953400Y14141000D03*
X42033400Y16341000D03*
X42033400Y14141000D03*
X34413400Y11896000D03*
X34413400Y9696000D03*
X39493400Y16341000D03*
X39493400Y14141000D03*
D22*
X72343400Y87885000D03*
X70143400Y87885000D03*
X72343400Y89663000D03*
X70143400Y89663000D03*
D11*
X67941400Y85873500D03*
X67941400Y83673500D03*
X69909900Y85873500D03*
X69909900Y83673500D03*
D23*
X37651900Y65342500D03*
D14*
X96643400Y78995000D03*
X94103400Y78995000D03*
D11*
X42363600Y76117000D03*
X42363600Y78317000D03*
D22*
X6684400Y64009000D03*
X4484400Y64009000D03*
D15*
X38858400Y24705000D03*
X38858400Y26605000D03*
X40255400Y24705000D03*
X40255400Y26605000D03*
X41652400Y24705000D03*
X41652400Y26605000D03*
D22*
X39155400Y22861000D03*
X41355400Y22861000D03*
D11*
X42795400Y18586000D03*
X42795400Y20786000D03*
D24*
X42907400Y25766000D03*
X43557400Y25766000D03*
X44207400Y25766000D03*
X44207400Y23766000D03*
X43557400Y23766000D03*
X42907400Y23766000D03*
D22*
X53760400Y45721000D03*
X55960400Y45721000D03*
X53760400Y43435000D03*
X55960400Y43435000D03*
X58754400Y64263000D03*
X56554400Y64263000D03*
X56468400Y58675000D03*
X54268400Y58675000D03*
X56468400Y56389000D03*
X54268400Y56389000D03*
D15*
X53910400Y41149000D03*
X55810400Y41149000D03*
D22*
X46775400Y43181000D03*
X48975400Y43181000D03*
X46775400Y41149000D03*
X48975400Y41149000D03*
D11*
X61591400Y30016000D03*
X61591400Y32216000D03*
X65401400Y30016000D03*
X65401400Y32216000D03*
D22*
X65825400Y41276000D03*
X68025400Y41276000D03*
D25*
X78736400Y86087000D03*
X78736400Y83587000D03*
X57420400Y48007000D03*
X59920400Y48007000D03*
X50796400Y94255000D03*
X50796400Y96755000D03*
X60174400Y85599000D03*
X57674400Y85599000D03*
X20336400Y81281000D03*
X22836400Y81281000D03*
X51030400Y57659000D03*
X48530400Y57659000D03*
X56618400Y61469000D03*
X54118400Y61469000D03*
X27047400Y95612000D03*
X27047400Y93112000D03*
X45208400Y88353000D03*
X45208400Y85853000D03*
D14*
X38096400Y62231000D03*
X38096400Y57151000D03*
X38096400Y59691000D03*
D22*
X3976400Y50166000D03*
X6176400Y50166000D03*
X3976400Y29211000D03*
X6176400Y29211000D03*
D11*
X11426400Y5251000D03*
X11426400Y7451000D03*
X32381400Y5251000D03*
X32381400Y7451000D03*
D22*
X95711400Y35561000D03*
X93511400Y35561000D03*
X95711400Y14606000D03*
X93511400Y14606000D03*
D11*
X74291400Y5251000D03*
X74291400Y7451000D03*
X53336400Y5251000D03*
X53336400Y7451000D03*
D26*
X82753400Y92073000D03*
X85293400Y92073000D03*
X87833400Y92073000D03*
D23*
X85293400Y95973000D03*
X80693400Y89973000D03*
X89893400Y89973000D03*
D26*
X70053400Y92073000D03*
X72593400Y92073000D03*
X75133400Y92073000D03*
D23*
X72593400Y95973000D03*
X67993400Y89973000D03*
X77193400Y89973000D03*
M02*
