M48
;DRILL file {KiCad 4.0.1-stable} date 18/01/2016 15:46:05
;FORMAT={-:-/ absolute / metric / decimal}
FMAT,2
METRIC,TZ
T1C0.500
T2C0.600
T3C0.800
T4C1.000
T5C2.000
T6C3.000
T7C2.000
%
G90
G05
M71
T1
X4.216Y80.226
X7.506Y80.353
X8.378Y44.197
X8.378Y41.657
X8.378Y23.115
X8.378Y20.575
X8.788Y81.153
X8.864Y95.617
X8.886Y87.885
X9.88Y92.378
X11.172Y87.885
X13.69Y98.474
X13.944Y46.975
X14.516Y15.225
X15.024Y46.975
X16.738Y41.261
X16.738Y39.927
X16.929Y20.559
X16.992Y23.099
X17.268Y9.653
X17.649Y92.457
X17.881Y98.41
X18.25Y87.947
X18.25Y85.915
X18.665Y92.457
X19.681Y92.457
X19.786Y16.369
X19.808Y9.653
X20.675Y98.41
X20.697Y92.457
X21.586Y92.457
X22.475Y92.457
X22.517Y98.41
X23.596Y14.082
X23.596Y11.796
X23.66Y76.757
X23.682Y46.991
X24.282Y83.947
X24.282Y78.359
X24.524Y71.717
X24.585Y76.793
X25.247Y49.515
X25.247Y44.499
X29.438Y98.156
X30.603Y64.136
X30.603Y60.262
X31.111Y69.495
X31.978Y45.325
X35.175Y32.386
X36.093Y50.228
X36.763Y30.481
X36.932Y77.826
X37.947Y30.465
X38.223Y9.653
X38.227Y15.24
X40.763Y9.653
X40.767Y15.24
X42.062Y61.697
X42.16Y31.014
X43.557Y26.671
X43.637Y59.944
X43.872Y73.517
X44.856Y96.329
X44.882Y30.988
X46.478Y32.767
X46.603Y69.008
X46.603Y67.739
X46.603Y66.151
X46.99Y54.61
X47.523Y64.262
X49.174Y17.653
X49.819Y38.672
X49.962Y23.393
X50.009Y25.68
X50.796Y18.924
X51.495Y34.545
X52.384Y33.593
X53.188Y53.518
X53.899Y54.585
X54.22Y31.863
X55.27Y49.657
X55.778Y87.935
X56.003Y30.989
X57.252Y42.316
X57.785Y45.72
X59.182Y15.24
X59.233Y9.55
X59.271Y18.479
X60.131Y38.419
X61.519Y17.729
X61.591Y98.045
X61.591Y97.029
X61.591Y96.013
X61.697Y9.55
X61.97Y66.659
X64.135Y9.576
X65.176Y94.361
X66.481Y23.242
X67.462Y15.443
X67.941Y21.527
X68.758Y12.065
X70.383Y70.421
X70.383Y69.088
X70.672Y45.911
X73.368Y18.732
X74.511Y27.305
X75.209Y17.907
X76.759Y97.968
X76.911Y15.57
X77.114Y20.955
X77.241Y18.732
X77.876Y39.751
X78.226Y53.705
X78.419Y47.118
X78.48Y57.134
X78.638Y30.416
X80.188Y9.5
X80.829Y77.962
X82.626Y17.602
X82.677Y15.24
X82.702Y9.5
X82.829Y46.799
X82.829Y44.196
X82.956Y39.37
X83.21Y22.733
X83.56Y53.197
X85.09Y9.5
X85.344Y67.335
X85.369Y69.787
X85.369Y68.644
X85.598Y23.114
X86.703Y15.684
X88.Y74.626
X88.595Y29.896
X88.735Y13.779
X89.802Y98.019
X91.237Y67.183
X91.275Y44.196
X91.275Y41.593
X91.529Y25.59
X91.529Y23.114
X91.529Y20.511
X92.354Y65.659
X92.405Y70.739
X92.786Y76.327
X98.247Y76.644
T2
X32.105Y57.961
X32.105Y55.421
X38.836Y37.641
X39.598Y36.371
X46.351Y29.084
X47.875Y27.433
X51.812Y27.433
X55.278Y25.691
T3
X1.774Y88.901
X1.774Y84.837
X1.93Y64.008
X1.994Y60.452
X3.806Y48.007
X3.806Y45.467
X3.806Y42.927
X3.806Y40.387
X3.806Y37.847
X3.806Y26.925
X3.806Y24.385
X3.806Y21.845
X3.806Y19.305
X3.806Y16.765
X5.396Y89.801
X6.346Y48.007
X6.346Y45.467
X6.346Y42.927
X6.346Y40.387
X6.346Y37.847
X6.346Y26.925
X6.346Y24.385
X6.346Y21.845
X6.346Y19.305
X6.346Y16.765
X9.118Y98.156
X11.773Y52.159
X12.396Y85.301
X13.458Y7.621
X13.458Y5.081
X15.998Y7.621
X15.998Y5.081
X18.538Y7.621
X18.538Y5.081
X19.046Y55.881
X19.046Y53.341
X19.046Y50.801
X19.046Y48.261
X19.046Y45.721
X19.393Y88.582
X19.71Y76.581
X20.336Y81.281
X21.078Y7.621
X21.078Y5.081
X21.586Y55.881
X21.586Y53.341
X21.586Y50.801
X21.586Y48.261
X21.586Y45.721
X22.602Y90.552
X22.836Y81.281
X23.342Y39.355
X23.533Y52.373
X23.618Y7.621
X23.618Y5.081
X24.571Y56.897
X25.247Y31.926
X27.047Y95.612
X27.047Y93.112
X27.152Y8.748
X27.301Y81.916
X27.301Y79.376
X28.36Y60.199
X28.437Y74.232
X28.437Y52.707
X30.2Y39.165
X31.238Y91.441
X33.503Y69.012
X33.524Y91.441
X34.413Y41.149
X34.413Y7.621
X34.413Y5.081
X34.518Y38.657
X34.518Y36.117
X35.636Y69.012
X36.318Y40.26
X36.55Y48.055
X36.572Y34.164
X36.953Y7.621
X36.953Y5.081
X37.715Y28.576
X37.821Y79.908
X38.096Y62.231
X38.096Y59.691
X38.096Y57.151
X39.493Y7.621
X39.493Y5.081
X40.08Y51.033
X40.31Y79.908
X41.11Y92.519
X41.843Y51.944
X42.033Y7.621
X42.033Y5.081
X43.176Y51.944
X43.176Y40.133
X43.84Y70.485
X44.573Y7.621
X44.573Y5.081
X44.96Y51.033
X45.059Y64.565
X45.208Y88.353
X45.208Y85.853
X45.758Y19.416
X46.025Y97.485
X46.605Y47.88
X47.537Y34.121
X47.777Y49.022
X48.53Y57.659
X48.701Y46.546
X48.701Y45.086
X50.796Y96.755
X50.796Y94.255
X50.862Y44.444
X50.876Y46.736
X51.03Y57.659
X52.701Y18.797
X52.705Y76.2
X52.73Y69.723
X53.568Y38.403
X54.118Y61.469
X54.606Y67.057
X55.016Y78.867
X55.016Y76.835
X55.368Y7.621
X55.368Y5.081
X55.524Y96.647
X56.618Y61.469
X56.622Y35.143
X56.769Y80.645
X57.264Y71.73
X57.42Y48.007
X57.674Y85.599
X57.908Y7.621
X57.908Y5.081
X57.988Y43.434
X58.67Y94.489
X58.67Y92.838
X59.08Y59.309
X59.92Y48.007
X59.94Y93.854
X60.174Y85.599
X60.448Y7.621
X60.448Y5.081
X62.988Y7.621
X62.988Y5.081
X63.369Y64.304
X63.496Y33.91
X63.602Y32.004
X63.623Y29.592
X64.766Y74.931
X64.766Y72.391
X64.795Y52.578
X65.125Y49.452
X65.274Y97.283
X65.43Y33.833
X65.494Y83.629
X65.528Y7.621
X65.528Y5.081
X66.163Y64.265
X66.481Y21.909
X67.306Y81.281
X67.306Y78.741
X67.306Y74.931
X67.306Y72.391
X67.462Y56.642
X67.856Y38.53
X68.957Y64.323
X69.824Y41.324
X69.846Y74.931
X69.846Y72.391
X70.053Y92.073
X70.383Y56.642
X71.751Y64.323
X72.034Y83.693
X72.386Y74.931
X72.386Y72.391
X72.593Y92.073
X73.177Y56.642
X73.402Y42.165
X74.545Y64.343
X74.926Y81.281
X74.926Y78.741
X74.926Y74.931
X74.926Y72.391
X75.133Y92.073
X75.971Y56.642
X76.323Y7.621
X76.323Y5.081
X77.339Y64.323
X77.466Y74.931
X77.466Y72.391
X78.736Y86.087
X78.736Y83.587
X78.863Y7.621
X78.863Y5.081
X79.435Y50.547
X80.873Y37.641
X80.873Y32.942
X80.873Y28.878
X81.403Y7.621
X81.403Y5.081
X82.753Y92.073
X83.118Y32.195
X83.943Y7.621
X83.943Y5.081
X84.197Y60.834
X84.197Y58.294
X84.197Y55.754
X84.832Y36.323
X84.832Y34.227
X85.293Y92.073
X85.34Y83.313
X85.801Y76.632
X86.483Y7.621
X86.483Y5.081
X87.372Y83.313
X87.677Y78.995
X87.833Y92.073
X90.068Y55.397
X90.217Y78.995
X92.507Y56.82
X93.37Y72.365
X93.468Y48.007
X93.468Y45.467
X93.468Y42.927
X93.468Y40.387
X93.468Y37.847
X93.468Y26.925
X93.468Y24.385
X93.468Y21.845
X93.468Y19.305
X93.468Y16.765
X94.103Y78.995
X94.59Y74.346
X96.008Y48.007
X96.008Y45.467
X96.008Y42.927
X96.008Y40.387
X96.008Y37.847
X96.008Y26.925
X96.008Y24.385
X96.008Y21.845
X96.008Y19.305
X96.008Y16.765
X96.643Y78.995
X97.955Y91.453
X97.968Y85.23
T4
X10.023Y71.647
X10.023Y69.107
X10.023Y66.567
X10.023Y64.027
X10.791Y45.467
X10.791Y42.927
X10.791Y40.387
X10.791Y24.385
X10.791Y21.845
X10.791Y19.305
X11.68Y14.479
X12.442Y32.259
X14.22Y57.913
X15.998Y12.066
X17.643Y71.647
X17.643Y69.107
X17.643Y66.567
X17.643Y64.027
X18.538Y12.066
X21.078Y12.066
X36.953Y12.066
X38.096Y70.867
X39.493Y12.066
X42.033Y12.066
X49.78Y13.463
X57.908Y12.066
X60.448Y12.066
X62.988Y12.066
X78.863Y12.066
X81.403Y12.066
X83.943Y12.066
X88.769Y24.385
X88.769Y21.845
X88.769Y19.305
X88.896Y45.467
X88.896Y42.927
X88.896Y40.387
T5
X5.711Y82.805
X5.711Y77.805
T6
X4.996Y95.001
X4.996Y5.001
X50.018Y30.959
X94.996Y95.001
X94.996Y5.001
T7
X67.993Y89.973
X72.593Y95.973
X77.193Y89.973
X80.693Y89.973
X85.293Y95.973
X89.893Y89.973
T0
M30
